SplineFontDB: 3.2
FontName: mono5by7ascii83narrow
FullName: mono5by7ascii83narrow
FamilyName: mono5by7ascii83narrow
Weight: Book
Copyright: Copyright (c) 2013 by Peter Wiegel. All rights reserved.
Version: 1.0
ItalicAngle: 0
UnderlinePosition: -100
UnderlineWidth: 50
Ascent: 864
Descent: 160
InvalidEm: 0
sfntRevision: 0x00010000
LayerCount: 2
Layer: 0 1 "Back" 1
Layer: 1 1 "Fore" 0
HasVMetrics: 1
XUID: [1021 362 -792500644 16850]
StyleMap: 0x0040
FSType: 0
OS2Version: 3
OS2_WeightWidthSlopeOnly: 0
OS2_UseTypoMetrics: 0
CreationTime: 1364308095
ModificationTime: 1584912422
PfmFamily: 81
TTFWeight: 400
TTFWidth: 5
LineGap: 0
VLineGap: 0
Panose: 0 0 0 0 0 0 0 0 0 0
OS2TypoAscent: 700
OS2TypoAOffset: 0
OS2TypoDescent: 0
OS2TypoDOffset: 0
OS2TypoLinegap: 50
OS2WinAscent: 750
OS2WinAOffset: 0
OS2WinDescent: 250
OS2WinDOffset: 0
HheadAscent: 700
HheadAOffset: 0
HheadDescent: 0
HheadDOffset: 0
OS2SubXSize: 700
OS2SubYSize: 650
OS2SubXOff: 0
OS2SubYOff: 140
OS2SupXSize: 700
OS2SupYSize: 650
OS2SupXOff: 0
OS2SupYOff: 477
OS2StrikeYSize: 50
OS2StrikeYPos: 250
OS2CapHeight: 700
OS2XHeight: 500
OS2Vendor: 'pyrs'
OS2CodePages: 0000000d.00000000
OS2UnicodeRanges: a00002af.4000104a.00000000.00000000
MarkAttachClasses: 1
DEI: 91125
TtTable: prep
PUSHW_1
 10
CALL
PUSHW_1
 0
CALL
EndTTInstrs
TtTable: fpgm
PUSHW_1
 0
FDEF
MPPEM
PUSHW_1
 9
LT
IF
PUSHB_2
 1
 1
INSTCTRL
EIF
PUSHW_1
 511
SCANCTRL
PUSHW_1
 68
SCVTCI
PUSHW_2
 9
 3
SDS
SDB
ENDF
PUSHW_1
 1
FDEF
DUP
DUP
RCVT
ROUND[Black]
WCVTP
PUSHB_1
 1
ADD
ENDF
PUSHW_1
 2
FDEF
PUSHW_1
 1
LOOPCALL
POP
ENDF
PUSHW_1
 3
FDEF
DUP
GC[cur]
PUSHB_1
 3
CINDEX
GC[cur]
GT
IF
SWAP
EIF
DUP
ROLL
DUP
ROLL
MD[grid]
ABS
ROLL
DUP
GC[cur]
DUP
ROUND[Grey]
SUB
ABS
PUSHB_1
 4
CINDEX
GC[cur]
DUP
ROUND[Grey]
SUB
ABS
GT
IF
SWAP
NEG
ROLL
EIF
MDAP[rnd]
DUP
PUSHB_1
 0
GTEQ
IF
ROUND[Black]
DUP
PUSHB_1
 0
EQ
IF
POP
PUSHB_1
 64
EIF
ELSE
ROUND[Black]
DUP
PUSHB_1
 0
EQ
IF
POP
PUSHB_1
 64
NEG
EIF
EIF
MSIRP[no-rp0]
ENDF
PUSHW_1
 4
FDEF
DUP
GC[cur]
PUSHB_1
 4
CINDEX
GC[cur]
GT

StartChar: four
Encoding: 52 52 1
Width: 500
Flags: W
LayerCount: 2
Fore
SplineSet
293 154 m 256,0,1
 293 174 293 174 304 188 c 0,2,3
 314 201 314 201 331 205 c 1,4,5
 314 207 314 207 304 219 c 0,6,7
 294 231 294 231 293 251 c 1,8,9
 291 231 291 231 279 218 c 128,-1,10
 267 205 267 205 250 205 c 128,-1,11
 233 205 233 205 221 218 c 0,12,13
 209 230 209 230 207 251 c 1,14,15
 205 231 205 231 194 218 c 0,16,17
 182 205 182 205 165 205 c 128,-1,18
 148 205 148 205 136 218 c 0,19,20
 125 230 125 230 123 251 c 1,21,22
 121 231 121 231 109 218 c 128,-1,23
 97 205 97 205 79 205 c 128,-1,24
 61 205 61 205 49 219.5 c 128,-1,25
 37 234 37 234 37 256 c 0,26,27
 37 276 37 276 48 291 c 0,28,29
 58 304 58 304 75 307 c 1,30,31
 58 309 58 309 48 324 c 0,32,33
 37 338 37 338 37 358 c 0,34,35
 37 380 37 380 49.5 395 c 128,-1,36
 62 410 62 410 79 410 c 0,37,38
 97 410 97 410 110 395 c 128,-1,39
 123 380 123 380 123 358 c 0,40,41
 123 338 123 338 111.5 323.5 c 128,-1,42
 100 309 100 309 84 307 c 1,43,44
 98 304 98 304 109 292 c 0,45,46
 121 279 121 279 123 260 c 1,47,48
 125 280 125 280 136 293.5 c 128,-1,49
 147 307 147 307 165 307 c 128,-1,50
 183 307 183 307 195 292.5 c 128,-1,51
 207 278 207 278 207 256 c 1,52,53
 207 278 207 278 220 292.5 c 128,-1,54
 233 307 233 307 250 307 c 0,55,56
 268 307 268 307 280 292 c 0,57,58
 291 279 291 279 293 260 c 1,59,60
 294 277 294 277 304 291 c 0,61,62
 314 304 314 304 331 307 c 1,63,64
 314 309 314 309 304 324 c 0,65,66
 293 338 293 338 293 358 c 128,-1,67
 293 378 293 378 304 393 c 0,68,69
 314 406 314 406 331 410 c 1,70,71
 314 412 314 412 304 426 c 0,72,73
 293 440 293 440 293 461 c 0,74,75
 293 481 293 481 304 496 c 0,76,77
 314 509 314 509 331 512 c 1,78,79
 314 514 314 514 304 526 c 0,80,81
 294 538 294 538 293 558 c 1,82,83
 291 538 291 538 279 525 c 128,-1,84
 267 512 267 512 250 512 c 0,85,86
 232 512 232 512 219.5 527 c 128,-1,87
 207 542 207 542 207 563 c 0,88,89
 207 585 207 585 220 599.5 c 128,-1,90
 233 614 233 614 250 614 c 128,-1,91
 267 614 267 614 279 601 c 128,-1,92
 291 588 291 588 293 567 c 1,93,94
 295 585 295 585 305 599 c 0,95,96
 315 611 315 611 331 614 c 1,97,98
 314 616 314 616 304 631 c 0,99,100
 293 645 293 645 293 666 c 0,101,102
 293 688 293 688 305 702.5 c 128,-1,103
 317 717 317 717 336 717 c 256,104,105
 354 717 354 717 366 702 c 128,-1,106
 378 687 378 687 378 666 c 0,107,108
 378 646 378 646 367 631 c 128,-1,109
 356 616 356 616 340 614 c 1,110,111
 356 611 356 611 367 598 c 0,112,113
 378 584 378 584 378 563 c 0,114,115
 378 543 378 543 367 528.5 c 128,-1,116
 356 514 356 514 340 512 c 1,117,118
 356 509 356 509 367 496 c 0,119,120
 378 482 378 482 378 461 c 0,121,122
 378 441 378 441 367 426.5 c 128,-1,123
 356 412 356 412 340 410 c 1,124,125
 356 407 356 407 366.5 393 c 128,-1,126
 377 379 377 379 378 358 c 0,127,128
 378 338 378 338 367 323.5 c 128,-1,129
 356 309 356 309 340 307 c 1,130,131
 354 304 354 304 365 291.5 c 128,-1,132
 376 279 376 279 378 261 c 1,133,134
 380 280 380 280 392 293.5 c 128,-1,135
 404 307 404 307 421 307 c 0,136,137
 439 307 439 307 451 292.5 c 128,-1,138
 463 278 463 278 463 256 c 256,139,140
 463 234 463 234 451 219.5 c 128,-1,141
 439 205 439 205 421 205 c 0,142,143
 404 205 404 205 392 218 c 0,144,145
 380 230 380 230 378 251 c 1,146,147
 376 232 376 232 365 219.5 c 128,-1,148
 354 207 354 207 340 205 c 1,149,150
 356 202 356 202 366.5 188 c 128,-1,151
 377 174 377 174 378 154 c 0,152,153
 378 134 378 134 367 119 c 128,-1,154
 356 104 356 104 340 102 c 1,155,156
 356 99 356 99 367 86 c 0,157,158
 378 72 378 72 378 51 c 0,159,160
 378 29 378 29 365.5 14.5 c 128,-1,161
 353 0 353 0 336 0 c 0,162,163
 318 0 318 0 305.5 15 c 128,-1,164
 293 30 293 30 293 51 c 0,165,166
 293 71 293 71 304 86 c 0,167,168
 314 99 314 99 331 102 c 1,169,170
 314 104 314 104 304 119 c 0,171,172
 293 134 293 134 293 154 c 256,0,1
123 461 m 256,173,174
 123 483 123 483 135 497.5 c 128,-1,175
 147 512 147 512 165 512 c 256,176,177
 183 512 183 512 195 497 c 128,-1,178
 207 482 207 482 207 461 c 0,179,180
 207 439 207 439 195 424.5 c 128,-1,181
 183 410 183 410 165 410 c 128,-1,182
 147 410 147 410 135 424.5 c 128,-1,183
 123 439 123 439 123 461 c 256,173,174
EndSplineSet
EndChar

StartChar: five
Encoding: 53 53 2
Width: 500
Flags: W
LayerCount: 2
Fore
SplineSet
37 666 m 0,0,1
 37 688 37 688 49.5 702.5 c 128,-1,2
 62 717 62 717 79 717 c 128,-1,3
 96 717 96 717 108.5 703.5 c 128,-1,4
 121 690 121 690 123 670 c 1,5,6
 125 690 125 690 136 703.5 c 128,-1,7
 147 717 147 717 165 717 c 128,-1,8
 183 717 183 717 195 702 c 128,-1,9
 207 687 207 687 207 666 c 1,10,11
 207 688 207 688 220 702.5 c 128,-1,12
 233 717 233 717 250 717 c 128,-1,13
 267 717 267 717 279 703 c 0,14,15
 291 690 291 690 293 671 c 1,16,17
 295 690 295 690 306.5 703.5 c 128,-1,18
 318 717 318 717 336 717 c 128,-1,19
 354 717 354 717 366 702 c 128,-1,20
 378 687 378 687 378 666 c 1,21,22
 378 688 378 688 390.5 702.5 c 128,-1,23
 403 717 403 717 421 717 c 256,24,25
 439 717 439 717 451 702 c 128,-1,26
 463 687 463 687 463 666 c 0,27,28
 463 644 463 644 451 629 c 128,-1,29
 439 614 439 614 421 614 c 0,30,31
 404 614 404 614 392 628 c 0,32,33
 380 640 380 640 378 660 c 1,34,35
 376 640 376 640 364 628 c 0,36,37
 352 615 352 615 336 614 c 0,38,39
 319 614 319 614 307 628 c 0,40,41
 295 640 295 640 293 660 c 1,42,43
 291 640 291 640 279 628 c 0,44,45
 267 615 267 615 250 614 c 0,46,47
 233 614 233 614 221 628 c 0,48,49
 209 640 209 640 207 660 c 1,50,51
 205 640 205 640 194 628 c 0,52,53
 182 615 182 615 165 614 c 0,54,55
 148 614 148 614 136 628 c 0,56,57
 125 640 125 640 123 660 c 1,58,59
 121 641 121 641 109.5 628.5 c 128,-1,60
 98 616 98 616 84 614 c 1,61,62
 100 611 100 611 111 598 c 0,63,64
 123 584 123 584 123 563 c 0,65,66
 123 543 123 543 111.5 528.5 c 128,-1,67
 100 514 100 514 84 512 c 1,68,69
 98 509 98 509 109 496 c 0,70,71
 121 483 121 483 123 466 c 1,72,73
 125 485 125 485 136 498.5 c 128,-1,74
 147 512 147 512 165 512 c 128,-1,75
 183 512 183 512 195 497 c 0,76,77
 205 484 205 484 207 465 c 1,78,79
 208 483 208 483 219 497 c 0,80,81
 231 512 231 512 250 512 c 256,82,83
 268 512 268 512 280.5 497 c 128,-1,84
 293 482 293 482 293 461 c 1,85,86
 293 483 293 483 305 497.5 c 128,-1,87
 317 512 317 512 336 512 c 256,88,89
 354 512 354 512 366 497 c 128,-1,90
 378 482 378 482 378 461 c 0,91,92
 378 439 378 439 365.5 424.5 c 128,-1,93
 353 410 353 410 336 410 c 128,-1,94
 319 410 319 410 307 423 c 0,95,96
 295 435 295 435 293 456 c 1,97,98
 291 436 291 436 279 423 c 128,-1,99
 267 410 267 410 250 410 c 128,-1,100
 233 410 233 410 221 423 c 0,101,102
 209 435 209 435 207 456 c 1,103,104
 205 436 205 436 194 423 c 0,105,106
 182 410 182 410 165 410 c 128,-1,107
 148 410 148 410 136 423 c 0,108,109
 125 435 125 435 123 456 c 1,110,111
 121 436 121 436 109 423 c 128,-1,112
 97 410 97 410 79 410 c 128,-1,113
 61 410 61 410 49 424.5 c 128,-1,114
 37 439 37 439 37 461 c 0,115,116
 37 481 37 481 48 496 c 0,117,118
 58 509 58 509 75 512 c 1,119,120
 58 514 58 514 48 528 c 0,121,122
 37 542 37 542 37 563 c 0,123,124
 37 583 37 583 48 598 c 0,125,126
 58 611 58 611 75 614 c 1,127,128
 58 616 58 616 48 631 c 0,129,130
 37 646 37 646 37 666 c 0,0,1
123 51 m 256,131,132
 123 73 123 73 135 87.5 c 128,-1,133
 147 102 147 102 165 102 c 0,134,135
 182 102 182 102 194 89 c 0,136,137
 205 76 205 76 207 56 c 1,138,139
 209 75 209 75 221 88.5 c 128,-1,140
 233 102 233 102 250 102 c 256,141,142
 267 102 267 102 279 89 c 128,-1,143
 291 76 291 76 293 55 c 1,144,145
 295 75 295 75 306.5 88.5 c 128,-1,146
 318 102 318 102 336 102 c 128,-1,147
 354 102 354 102 366 87.5 c 128,-1,148
 378 73 378 73 378 51 c 256,149,150
 378 29 378 29 365.5 14.5 c 128,-1,151
 353 0 353 0 336 0 c 128,-1,152
 319 0 319 0 307 13 c 0,153,154
 295 25 295 25 293 46 c 1,155,156
 291 26 291 26 279 13 c 128,-1,157
 267 0 267 0 250 0 c 128,-1,158
 233 0 233 0 221 13 c 0,159,160
 209 25 209 25 207 46 c 1,161,162
 205 26 205 26 194 13 c 0,163,164
 182 0 182 0 165 0 c 0,165,166
 147 0 147 0 135 14.5 c 128,-1,167
 123 29 123 29 123 51 c 256,131,132
378 256 m 256,168,169
 378 276 378 276 389 291 c 0,170,171
 399 304 399 304 417 307 c 1,172,173
 400 309 400 309 389 324 c 0,174,175
 378 338 378 338 378 358 c 0,176,177
 378 380 378 380 390.5 395 c 128,-1,178
 403 410 403 410 421 410 c 256,179,180
 439 410 439 410 451 395 c 128,-1,181
 463 380 463 380 463 358 c 0,182,183
 463 338 463 338 452.5 323.5 c 128,-1,184
 442 309 442 309 425 307 c 1,185,186
 441 304 441 304 453 291 c 0,187,188
 463 278 463 278 463 259 c 0,189,190
 463 236 463 236 452.5 221.5 c 128,-1,191
 442 207 442 207 425 205 c 1,192,193
 441 202 441 202 453 188 c 0,194,195
 463 175 463 175 463 157 c 0,196,197
 463 132 463 132 451 117 c 128,-1,198
 439 102 439 102 421 102 c 256,199,200
 403 102 403 102 390.5 117 c 128,-1,201
 378 132 378 132 378 154 c 0,202,203
 378 174 378 174 389 188 c 0,204,205
 399 201 399 201 417 205 c 1,206,207
 400 207 400 207 389 221 c 0,208,209
 378 236 378 236 378 256 c 256,168,169
37 154 m 256,210,211
 37 176 37 176 49.5 190.5 c 128,-1,212
 62 205 62 205 79 205 c 0,213,214
 97 205 97 205 110 190 c 128,-1,215
 123 175 123 175 123 154 c 0,216,217
 123 132 123 132 110 117 c 128,-1,218
 97 102 97 102 79 102 c 256,219,220
 61 102 61 102 49 117 c 128,-1,221
 37 132 37 132 37 154 c 256,210,211
EndSplineSet
EndChar

StartChar: six
Encoding: 54 54 3
Width: 500
Flags: W
LayerCount: 2
Fore
SplineSet
37 461 m 0,0,1
 37 483 37 483 49.5 497.5 c 128,-1,2
 62 512 62 512 79 512 c 0,3,4
 97 512 97 512 110 497 c 128,-1,5
 123 482 123 482 123 461 c 0,6,7
 123 441 123 441 111.5 426.5 c 128,-1,8
 100 412 100 412 84 410 c 1,9,10
 100 407 100 407 111 393 c 0,11,12
 123 379 123 379 123 358 c 1,13,14
 123 380 123 380 135 395 c 128,-1,15
 147 410 147 410 165 410 c 0,16,17
 182 410 182 410 194 396 c 0,18,19
 205 383 205 383 207 364 c 1,20,21
 209 383 209 383 221 396.5 c 128,-1,22
 233 410 233 410 250 410 c 0,23,24
 268 410 268 410 280 394 c 0,25,26
 291 381 291 381 293 362 c 1,27,28
 294 380 294 380 305 394 c 0,29,30
 317 409 317 409 336 410 c 0,31,32
 354 410 354 410 366 395 c 128,-1,33
 378 380 378 380 378 358 c 256,34,35
 378 336 378 336 365.5 321.5 c 128,-1,36
 353 307 353 307 336 307 c 128,-1,37
 319 307 319 307 307 321 c 0,38,39
 295 333 295 333 293 353 c 1,40,41
 291 333 291 333 279 321 c 0,42,43
 267 308 267 308 250 307 c 0,44,45
 233 307 233 307 221 321 c 0,46,47
 209 333 209 333 207 353 c 1,48,49
 205 333 205 333 194 321 c 0,50,51
 182 308 182 308 165 307 c 0,52,53
 148 307 148 307 136 321 c 0,54,55
 125 333 125 333 123 353 c 1,56,57
 121 334 121 334 109.5 321.5 c 128,-1,58
 98 309 98 309 84 307 c 1,59,60
 100 304 100 304 111 291 c 0,61,62
 123 277 123 277 123 256 c 0,63,64
 123 236 123 236 111.5 221.5 c 128,-1,65
 100 207 100 207 84 205 c 1,66,67
 100 202 100 202 111 188 c 0,68,69
 123 174 123 174 123 154 c 0,70,71
 123 132 123 132 110 117 c 128,-1,72
 97 102 97 102 79 102 c 256,73,74
 61 102 61 102 49 117 c 128,-1,75
 37 132 37 132 37 154 c 0,76,77
 37 174 37 174 48 188 c 0,78,79
 58 201 58 201 75 205 c 1,80,81
 58 207 58 207 48 221 c 0,82,83
 37 235 37 235 37 256 c 0,84,85
 37 276 37 276 48 291 c 0,86,87
 58 304 58 304 75 307 c 1,88,89
 58 309 58 309 48 324 c 0,90,91
 37 338 37 338 37 358 c 128,-1,92
 37 378 37 378 48 393 c 0,93,94
 58 406 58 406 75 410 c 1,95,96
 58 412 58 412 48 426 c 0,97,98
 37 441 37 441 37 461 c 0,0,1
123 51 m 256,99,100
 123 73 123 73 135 87.5 c 128,-1,101
 147 102 147 102 165 102 c 0,102,103
 182 102 182 102 194 89 c 0,104,105
 205 76 205 76 207 56 c 1,106,107
 209 75 209 75 221 88.5 c 128,-1,108
 233 102 233 102 250 102 c 256,109,110
 267 102 267 102 279 89 c 128,-1,111
 291 76 291 76 293 56 c 1,112,113
 295 75 295 75 306.5 88.5 c 128,-1,114
 318 102 318 102 336 102 c 128,-1,115
 354 102 354 102 366 87.5 c 128,-1,116
 378 73 378 73 378 51 c 256,117,118
 378 29 378 29 365.5 14.5 c 128,-1,119
 353 0 353 0 336 0 c 128,-1,120
 319 0 319 0 307 13 c 0,121,122
 295 25 295 25 293 46 c 1,123,124
 291 26 291 26 279 13 c 128,-1,125
 267 0 267 0 250 0 c 128,-1,126
 233 0 233 0 221 13 c 0,127,128
 209 25 209 25 207 46 c 1,129,130
 205 26 205 26 194 13 c 0,131,132
 182 0 182 0 165 0 c 0,133,134
 147 0 147 0 135 14.5 c 128,-1,135
 123 29 123 29 123 51 c 256,99,100
207 666 m 256,136,137
 207 688 207 688 220 702.5 c 128,-1,138
 233 717 233 717 250 717 c 128,-1,139
 267 717 267 717 279 703 c 0,140,141
 291 690 291 690 293 671 c 1,142,143
 295 690 295 690 306.5 703.5 c 128,-1,144
 318 717 318 717 336 717 c 128,-1,145
 354 717 354 717 366 702 c 128,-1,146
 378 687 378 687 378 666 c 0,147,148
 378 644 378 644 365.5 629 c 128,-1,149
 353 614 353 614 336 614 c 128,-1,150
 319 614 319 614 307 628 c 0,151,152
 295 640 295 640 293 660 c 1,153,154
 291 640 291 640 279 628 c 0,155,156
 267 615 267 615 250 614 c 0,157,158
 232 614 232 614 219.5 629 c 128,-1,159
 207 644 207 644 207 666 c 256,136,137
378 154 m 0,160,161
 378 174 378 174 389 188 c 0,162,163
 399 201 399 201 417 205 c 1,164,165
 400 207 400 207 389 221 c 128,-1,166
 378 235 378 235 378 256 c 0,167,168
 378 278 378 278 390.5 292.5 c 128,-1,169
 403 307 403 307 421 307 c 256,170,171
 439 307 439 307 451 292.5 c 128,-1,172
 463 278 463 278 463 256 c 0,173,174
 463 236 463 236 452.5 221.5 c 128,-1,175
 442 207 442 207 425 205 c 1,176,177
 441 202 441 202 453 188 c 0,178,179
 463 175 463 175 463 157 c 0,180,181
 463 132 463 132 451 117 c 128,-1,182
 439 102 439 102 421 102 c 256,183,184
 403 102 403 102 390.5 117 c 128,-1,185
 378 132 378 132 378 154 c 0,160,161
123 563 m 256,186,187
 123 585 123 585 135 599.5 c 128,-1,188
 147 614 147 614 165 614 c 256,189,190
 183 614 183 614 195 599.5 c 128,-1,191
 207 585 207 585 207 563 c 256,192,193
 207 541 207 541 195 526.5 c 128,-1,194
 183 512 183 512 165 512 c 128,-1,195
 147 512 147 512 135 526.5 c 128,-1,196
 123 541 123 541 123 563 c 256,186,187
EndSplineSet
EndChar

StartChar: seven
Encoding: 55 55 4
Width: 500
Flags: W
LayerCount: 2
Fore
SplineSet
378 563 m 0,0,1
 378 583 378 583 389 598 c 0,2,3
 399 611 399 611 417 614 c 1,4,5
 401 616 401 616 390.5 628.5 c 128,-1,6
 380 641 380 641 378 660 c 1,7,8
 376 640 376 640 364 628 c 0,9,10
 352 615 352 615 336 614 c 0,11,12
 319 614 319 614 307 628 c 0,13,14
 295 640 295 640 293 660 c 1,15,16
 291 640 291 640 279 628 c 0,17,18
 267 615 267 615 250 614 c 0,19,20
 233 614 233 614 221 628 c 0,21,22
 209 640 209 640 207 660 c 1,23,24
 205 640 205 640 194 628 c 0,25,26
 182 615 182 615 165 614 c 0,27,28
 148 614 148 614 136 628 c 0,29,30
 125 640 125 640 123 660 c 1,31,32
 121 640 121 640 108 628 c 0,33,34
 96 615 96 615 79 614 c 0,35,36
 61 614 61 614 49 629 c 128,-1,37
 37 644 37 644 37 666 c 256,38,39
 37 688 37 688 49.5 702.5 c 128,-1,40
 62 717 62 717 79 717 c 128,-1,41
 96 717 96 717 108.5 703.5 c 128,-1,42
 121 690 121 690 123 670 c 1,43,44
 125 690 125 690 136 703.5 c 128,-1,45
 147 717 147 717 165 717 c 0,46,47
 182 717 182 717 194 703 c 0,48,49
 205 690 205 690 207 671 c 1,50,51
 209 690 209 690 221 703.5 c 128,-1,52
 233 717 233 717 250 717 c 256,53,54
 267 717 267 717 279 703.5 c 128,-1,55
 291 690 291 690 293 670 c 1,56,57
 295 690 295 690 306.5 703.5 c 128,-1,58
 318 717 318 717 336 717 c 128,-1,59
 354 717 354 717 366 702 c 128,-1,60
 378 687 378 687 378 666 c 1,61,62
 378 688 378 688 390.5 702.5 c 128,-1,63
 403 717 403 717 421 717 c 256,64,65
 439 717 439 717 451 702 c 128,-1,66
 463 687 463 687 463 666 c 0,67,68
 463 646 463 646 452.5 631 c 128,-1,69
 442 616 442 616 425 614 c 1,70,71
 441 611 441 611 453 598 c 0,72,73
 463 585 463 585 463 566 c 0,74,75
 463 541 463 541 451 526.5 c 128,-1,76
 439 512 439 512 421 512 c 256,77,78
 403 512 403 512 390.5 526.5 c 128,-1,79
 378 541 378 541 378 563 c 0,0,1
207 256 m 256,80,81
 207 276 207 276 218 291 c 0,82,83
 228 304 228 304 246 307 c 1,84,85
 229 309 229 309 218 324 c 0,86,87
 207 338 207 338 207 358 c 0,88,89
 207 380 207 380 220 395 c 128,-1,90
 233 410 233 410 250 410 c 0,91,92
 268 410 268 410 280.5 395 c 128,-1,93
 293 380 293 380 293 358 c 0,94,95
 293 338 293 338 282 323.5 c 128,-1,96
 271 309 271 309 254 307 c 1,97,98
 270 304 270 304 282 291 c 0,99,100
 293 277 293 277 293 256 c 0,101,102
 293 236 293 236 282 221.5 c 128,-1,103
 271 207 271 207 254 205 c 1,104,105
 270 202 270 202 282 188 c 0,106,107
 293 174 293 174 293 154 c 256,108,109
 293 134 293 134 282 119 c 128,-1,110
 271 104 271 104 254 102 c 1,111,112
 270 99 270 99 282 86 c 0,113,114
 293 72 293 72 293 51 c 0,115,116
 293 29 293 29 280.5 14.5 c 128,-1,117
 268 0 268 0 250 0 c 256,118,119
 232 0 232 0 219.5 15 c 128,-1,120
 207 30 207 30 207 51 c 0,121,122
 207 71 207 71 218 86 c 0,123,124
 228 99 228 99 246 102 c 1,125,126
 229 104 229 104 218 119 c 0,127,128
 207 133 207 133 207 154 c 0,129,130
 207 174 207 174 218 188 c 0,131,132
 228 201 228 201 246 205 c 1,133,134
 229 207 229 207 218 221 c 0,135,136
 207 236 207 236 207 256 c 256,80,81
293 461 m 256,137,138
 293 483 293 483 305 497.5 c 128,-1,139
 317 512 317 512 336 512 c 256,140,141
 354 512 354 512 366 497 c 128,-1,142
 378 482 378 482 378 461 c 0,143,144
 378 439 378 439 365.5 424.5 c 128,-1,145
 353 410 353 410 336 410 c 0,146,147
 318 410 318 410 305.5 424.5 c 128,-1,148
 293 439 293 439 293 461 c 256,137,138
EndSplineSet
EndChar

StartChar: eight
Encoding: 56 56 5
Width: 500
Flags: W
LayerCount: 2
Fore
SplineSet
123 666 m 256,0,1
 123 688 123 688 135 702.5 c 128,-1,2
 147 717 147 717 165 717 c 256,3,4
 183 717 183 717 195 701 c 0,5,6
 205 688 205 688 207 670 c 1,7,8
 208 688 208 688 219 701 c 0,9,10
 231 716 231 716 250 717 c 0,11,12
 268 717 268 717 280.5 702 c 128,-1,13
 293 687 293 687 293 666 c 1,14,15
 293 688 293 688 305 702.5 c 128,-1,16
 317 717 317 717 336 717 c 256,17,18
 354 717 354 717 366 702 c 128,-1,19
 378 687 378 687 378 666 c 0,20,21
 378 644 378 644 365.5 629 c 128,-1,22
 353 614 353 614 336 614 c 128,-1,23
 319 614 319 614 307 628 c 0,24,25
 295 640 295 640 293 660 c 1,26,27
 291 640 291 640 279 628 c 0,28,29
 267 615 267 615 250 614 c 0,30,31
 233 614 233 614 221 628 c 0,32,33
 209 640 209 640 207 660 c 1,34,35
 205 640 205 640 194 628 c 0,36,37
 182 615 182 615 165 614 c 0,38,39
 147 614 147 614 135 629 c 128,-1,40
 123 644 123 644 123 666 c 256,0,1
123 358 m 256,41,42
 123 380 123 380 135 395 c 128,-1,43
 147 410 147 410 165 410 c 256,44,45
 183 410 183 410 195 395 c 128,-1,46
 207 380 207 380 207 358 c 1,47,48
 207 380 207 380 220 395 c 128,-1,49
 233 410 233 410 250 410 c 0,50,51
 268 410 268 410 280 394 c 0,52,53
 291 381 291 381 293 362 c 1,54,55
 294 380 294 380 305 394 c 0,56,57
 317 409 317 409 336 410 c 0,58,59
 354 410 354 410 366 395 c 128,-1,60
 378 380 378 380 378 358 c 256,61,62
 378 336 378 336 365.5 321.5 c 128,-1,63
 353 307 353 307 336 307 c 128,-1,64
 319 307 319 307 307 321 c 0,65,66
 295 333 295 333 293 353 c 1,67,68
 291 333 291 333 279 321 c 0,69,70
 267 308 267 308 250 307 c 0,71,72
 233 307 233 307 221 321 c 0,73,74
 209 333 209 333 207 353 c 1,75,76
 205 333 205 333 194 321 c 0,77,78
 182 308 182 308 165 307 c 0,79,80
 147 307 147 307 135 321.5 c 128,-1,81
 123 336 123 336 123 358 c 256,41,42
123 51 m 256,82,83
 123 73 123 73 135 87.5 c 128,-1,84
 147 102 147 102 165 102 c 0,85,86
 182 102 182 102 194 89 c 0,87,88
 205 76 205 76 207 55 c 1,89,90
 209 75 209 75 221 88.5 c 128,-1,91
 233 102 233 102 250 102 c 0,92,93
 268 102 268 102 280.5 87.5 c 128,-1,94
 293 73 293 73 293 51 c 1,95,96
 293 73 293 73 305 87.5 c 128,-1,97
 317 102 317 102 336 102 c 256,98,99
 354 102 354 102 366 87.5 c 128,-1,100
 378 73 378 73 378 51 c 256,101,102
 378 29 378 29 365.5 14.5 c 128,-1,103
 353 0 353 0 336 0 c 128,-1,104
 319 0 319 0 307 13 c 0,105,106
 295 25 295 25 293 46 c 1,107,108
 291 26 291 26 279 13 c 128,-1,109
 267 0 267 0 250 0 c 128,-1,110
 233 0 233 0 221 13 c 0,111,112
 209 25 209 25 207 46 c 1,113,114
 205 26 205 26 194 13 c 0,115,116
 182 0 182 0 165 0 c 0,117,118
 147 0 147 0 135 14.5 c 128,-1,119
 123 29 123 29 123 51 c 256,82,83
37 563 m 0,120,121
 37 585 37 585 49.5 599.5 c 128,-1,122
 62 614 62 614 79 614 c 0,123,124
 97 614 97 614 110 599.5 c 128,-1,125
 123 585 123 585 123 563 c 0,126,127
 123 543 123 543 111.5 528.5 c 128,-1,128
 100 514 100 514 84 512 c 1,129,130
 100 509 100 509 111 496 c 0,131,132
 123 482 123 482 123 461 c 0,133,134
 123 439 123 439 110 424.5 c 128,-1,135
 97 410 97 410 79 410 c 256,136,137
 61 410 61 410 49 424.5 c 128,-1,138
 37 439 37 439 37 461 c 0,139,140
 37 481 37 481 48 496 c 0,141,142
 58 509 58 509 75 512 c 1,143,144
 58 514 58 514 48 528 c 0,145,146
 37 543 37 543 37 563 c 0,120,121
37 154 m 0,147,148
 37 174 37 174 48 188 c 0,149,150
 58 201 58 201 75 205 c 1,151,152
 58 207 58 207 48 221 c 0,153,154
 37 235 37 235 37 256 c 0,155,156
 37 278 37 278 49.5 292.5 c 128,-1,157
 62 307 62 307 79 307 c 0,158,159
 97 307 97 307 110 292.5 c 128,-1,160
 123 278 123 278 123 256 c 0,161,162
 123 236 123 236 111.5 221.5 c 128,-1,163
 100 207 100 207 84 205 c 1,164,165
 100 202 100 202 111 188 c 0,166,167
 123 174 123 174 123 154 c 0,168,169
 123 132 123 132 110 117 c 128,-1,170
 97 102 97 102 79 102 c 256,171,172
 61 102 61 102 49 117 c 128,-1,173
 37 132 37 132 37 154 c 0,147,148
378 563 m 0,174,175
 378 585 378 585 390.5 599.5 c 128,-1,176
 403 614 403 614 421 614 c 256,177,178
 439 614 439 614 451 599.5 c 128,-1,179
 463 585 463 585 463 563 c 0,180,181
 463 543 463 543 452.5 528.5 c 128,-1,182
 442 514 442 514 425 512 c 1,183,184
 441 509 441 509 453 496 c 0,185,186
 463 483 463 483 463 464 c 0,187,188
 463 439 463 439 451 424.5 c 128,-1,189
 439 410 439 410 421 410 c 256,190,191
 403 410 403 410 390.5 424.5 c 128,-1,192
 378 439 378 439 378 461 c 0,193,194
 378 481 378 481 389 496 c 0,195,196
 399 509 399 509 417 512 c 1,197,198
 400 514 400 514 389 528 c 0,199,200
 378 543 378 543 378 563 c 0,174,175
378 154 m 0,201,202
 378 174 378 174 389 188 c 0,203,204
 399 201 399 201 417 205 c 1,205,206
 400 207 400 207 389 221 c 128,-1,207
 378 235 378 235 378 256 c 0,208,209
 378 278 378 278 390.5 292.5 c 128,-1,210
 403 307 403 307 421 307 c 256,211,212
 439 307 439 307 451 292.5 c 128,-1,213
 463 278 463 278 463 256 c 0,214,215
 463 236 463 236 452.5 221.5 c 128,-1,216
 442 207 442 207 425 205 c 1,217,218
 441 202 441 202 453 188 c 0,219,220
 463 175 463 175 463 157 c 0,221,222
 463 132 463 132 451 117 c 128,-1,223
 439 102 439 102 421 102 c 256,224,225
 403 102 403 102 390.5 117 c 128,-1,226
 378 132 378 132 378 154 c 0,201,202
EndSplineSet
EndChar

StartChar: nine
Encoding: 57 57 6
Width: 500
Flags: W
LayerCount: 2
Fore
SplineSet
378 256 m 0,0,1
 378 276 378 276 389 291 c 0,2,3
 399 304 399 304 417 307 c 1,4,5
 401 309 401 309 390.5 321.5 c 128,-1,6
 380 334 380 334 378 353 c 1,7,8
 376 333 376 333 364 321 c 0,9,10
 352 308 352 308 336 307 c 0,11,12
 319 307 319 307 307 321 c 0,13,14
 295 333 295 333 293 353 c 1,15,16
 291 333 291 333 279 321 c 0,17,18
 267 308 267 308 250 307 c 0,19,20
 233 307 233 307 221 321 c 0,21,22
 209 333 209 333 207 353 c 1,23,24
 205 333 205 333 194 321 c 0,25,26
 182 308 182 308 165 307 c 0,27,28
 147 307 147 307 135 322 c 128,-1,29
 123 337 123 337 123 358 c 0,30,31
 123 380 123 380 135 395 c 128,-1,32
 147 410 147 410 165 410 c 256,33,34
 183 410 183 410 195 394 c 0,35,36
 205 381 205 381 207 362 c 1,37,38
 208 380 208 380 219 394 c 0,39,40
 231 409 231 409 250 410 c 0,41,42
 268 410 268 410 280.5 395 c 128,-1,43
 293 380 293 380 293 358 c 1,44,45
 293 380 293 380 305 395 c 128,-1,46
 317 410 317 410 336 410 c 256,47,48
 354 410 354 410 365 394 c 0,49,50
 376 381 376 381 378 362 c 1,51,52
 379 379 379 379 389 393 c 0,53,54
 399 406 399 406 417 410 c 1,55,56
 400 412 400 412 389 426 c 128,-1,57
 378 440 378 440 378 461 c 0,58,59
 378 481 378 481 389 496 c 0,60,61
 399 509 399 509 417 512 c 1,62,63
 400 514 400 514 389 528 c 128,-1,64
 378 542 378 542 378 563 c 0,65,66
 378 585 378 585 390.5 599.5 c 128,-1,67
 403 614 403 614 421 614 c 256,68,69
 439 614 439 614 451 599.5 c 128,-1,70
 463 585 463 585 463 563 c 0,71,72
 463 543 463 543 452.5 528.5 c 128,-1,73
 442 514 442 514 425 512 c 1,74,75
 441 509 441 509 453 496 c 0,76,77
 463 483 463 483 463 464 c 0,78,79
 463 441 463 441 452.5 426.5 c 128,-1,80
 442 412 442 412 425 410 c 1,81,82
 441 407 441 407 453 393 c 0,83,84
 463 380 463 380 463 361 c 0,85,86
 463 338 463 338 452.5 323.5 c 128,-1,87
 442 309 442 309 425 307 c 1,88,89
 441 304 441 304 453 291 c 0,90,91
 463 278 463 278 463 259 c 0,92,93
 463 234 463 234 451 219.5 c 128,-1,94
 439 205 439 205 421 205 c 256,95,96
 403 205 403 205 390.5 219.5 c 128,-1,97
 378 234 378 234 378 256 c 0,0,1
123 666 m 256,98,99
 123 688 123 688 135 702.5 c 128,-1,100
 147 717 147 717 165 717 c 0,101,102
 182 717 182 717 194 703 c 0,103,104
 205 690 205 690 207 671 c 1,105,106
 209 690 209 690 221 703.5 c 128,-1,107
 233 717 233 717 250 717 c 0,108,109
 268 717 268 717 280.5 702 c 128,-1,110
 293 687 293 687 293 666 c 1,111,112
 293 688 293 688 305 702.5 c 128,-1,113
 317 717 317 717 336 717 c 256,114,115
 354 717 354 717 366 702 c 128,-1,116
 378 687 378 687 378 666 c 0,117,118
 378 644 378 644 365.5 629 c 128,-1,119
 353 614 353 614 336 614 c 128,-1,120
 319 614 319 614 307 628 c 0,121,122
 295 640 295 640 293 660 c 1,123,124
 291 640 291 640 279 628 c 0,125,126
 267 615 267 615 250 614 c 0,127,128
 233 614 233 614 221 628 c 0,129,130
 209 640 209 640 207 660 c 1,131,132
 205 640 205 640 194 628 c 0,133,134
 182 615 182 615 165 614 c 0,135,136
 147 614 147 614 135 629 c 128,-1,137
 123 644 123 644 123 666 c 256,98,99
123 51 m 256,138,139
 123 73 123 73 135 87.5 c 128,-1,140
 147 102 147 102 165 102 c 0,141,142
 182 102 182 102 194 89 c 0,143,144
 205 76 205 76 207 56 c 1,145,146
 209 75 209 75 221 88.5 c 128,-1,147
 233 102 233 102 250 102 c 0,148,149
 268 102 268 102 280.5 87.5 c 128,-1,150
 293 73 293 73 293 51 c 256,151,152
 293 29 293 29 280.5 14.5 c 128,-1,153
 268 0 268 0 250 0 c 0,154,155
 233 0 233 0 221 13 c 0,156,157
 209 25 209 25 207 46 c 1,158,159
 205 26 205 26 194 13 c 0,160,161
 182 0 182 0 165 0 c 0,162,163
 147 0 147 0 135 14.5 c 128,-1,164
 123 29 123 29 123 51 c 256,138,139
37 563 m 0,165,166
 37 585 37 585 49.5 599.5 c 128,-1,167
 62 614 62 614 79 614 c 0,168,169
 97 614 97 614 110 599.5 c 128,-1,170
 123 585 123 585 123 563 c 0,171,172
 123 543 123 543 111.5 528.5 c 128,-1,173
 100 514 100 514 84 512 c 1,174,175
 100 509 100 509 111 496 c 0,176,177
 123 482 123 482 123 461 c 0,178,179
 123 439 123 439 110 424.5 c 128,-1,180
 97 410 97 410 79 410 c 256,181,182
 61 410 61 410 49 424.5 c 128,-1,183
 37 439 37 439 37 461 c 0,184,185
 37 481 37 481 48 496 c 0,186,187
 58 509 58 509 75 512 c 1,188,189
 58 514 58 514 48 528 c 0,190,191
 37 543 37 543 37 563 c 0,165,166
293 154 m 256,192,193
 293 176 293 176 305 190.5 c 128,-1,194
 317 205 317 205 336 205 c 256,195,196
 354 205 354 205 366 190 c 128,-1,197
 378 175 378 175 378 154 c 0,198,199
 378 132 378 132 365.5 117 c 128,-1,200
 353 102 353 102 336 102 c 0,201,202
 318 102 318 102 305.5 117 c 128,-1,203
 293 132 293 132 293 154 c 256,192,193
EndSplineSet
EndChar

StartChar: colon
Encoding: 58 58 7
Width: 500
Flags: W
LayerCount: 2
Fore
SplineSet
164 563 m 0,0,1
 164 585 164 585 176 599.5 c 128,-1,2
 188 614 188 614 208 614 c 0,3,4
 224 614 224 614 236 601 c 0,5,6
 248 588 248 588 250 568 c 1,7,8
 252 587 252 587 264 600.5 c 128,-1,9
 276 614 276 614 292 614 c 0,10,11
 310 614 310 614 323 599.5 c 128,-1,12
 336 585 336 585 336 563 c 0,13,14
 336 543 336 543 324 528.5 c 128,-1,15
 312 514 312 514 298 512 c 1,16,17
 314 509 314 509 324 496 c 0,18,19
 336 482 336 482 336 461 c 0,20,21
 336 439 336 439 323 424.5 c 128,-1,22
 310 410 310 410 292 410 c 0,23,24
 276 410 276 410 264 423 c 0,25,26
 252 435 252 435 250 456 c 1,27,28
 248 436 248 436 236 423 c 0,29,30
 224 410 224 410 208 410 c 0,31,32
 190 410 190 410 177 424.5 c 128,-1,33
 164 439 164 439 164 461 c 0,34,35
 164 481 164 481 176 496 c 0,36,37
 186 509 186 509 202 512 c 1,38,39
 186 514 186 514 176 528 c 0,40,41
 164 543 164 543 164 563 c 0,0,1
164 256 m 0,42,43
 164 278 164 278 176 292.5 c 128,-1,44
 188 307 188 307 208 307 c 0,45,46
 225 307 225 307 236.5 294 c 128,-1,47
 248 281 248 281 250 260 c 1,48,49
 252 280 252 280 264 293.5 c 128,-1,50
 276 307 276 307 292 307 c 0,51,52
 310 307 310 307 323 292.5 c 128,-1,53
 336 278 336 278 336 256 c 0,54,55
 336 236 336 236 324 221.5 c 128,-1,56
 312 207 312 207 298 205 c 1,57,58
 314 202 314 202 324 188 c 128,-1,59
 334 174 334 174 336 154 c 0,60,61
 336 132 336 132 323 117 c 128,-1,62
 310 102 310 102 292 102 c 0,63,64
 276 102 276 102 264 116 c 0,65,66
 252 128 252 128 250 148 c 1,67,68
 248 128 248 128 236 116 c 0,69,70
 224 103 224 103 208 102 c 0,71,72
 190 102 190 102 177 117 c 128,-1,73
 164 132 164 132 164 154 c 0,74,75
 164 174 164 174 176 188 c 0,76,77
 186 201 186 201 202 205 c 1,78,79
 186 207 186 207 176 221 c 0,80,81
 164 236 164 236 164 256 c 0,42,43
262 188 m 256,82,83
 272 201 272 201 288 205 c 1,84,85
 272 207 272 207 262 219 c 128,-1,86
 252 231 252 231 250 251 c 1,87,88
 248 232 248 232 237 219.5 c 128,-1,89
 226 207 226 207 212 205 c 1,90,91
 228 202 228 202 238 188 c 0,92,93
 248 175 248 175 250 158 c 1,94,95
 252 175 252 175 262 188 c 256,82,83
262 496 m 256,96,97
 272 509 272 509 288 512 c 1,98,99
 272 514 272 514 262 526.5 c 128,-1,100
 252 539 252 539 250 558 c 1,101,102
 248 539 248 539 237 526.5 c 128,-1,103
 226 514 226 514 212 512 c 1,104,105
 228 509 228 509 238 496 c 0,106,107
 248 483 248 483 250 465 c 1,108,109
 252 483 252 483 262 496 c 256,96,97
EndSplineSet
EndChar

StartChar: semicolon
Encoding: 59 59 8
Width: 500
Flags: W
LayerCount: 2
Fore
SplineSet
164 256 m 0,0,1
 164 278 164 278 176 292.5 c 128,-1,2
 188 307 188 307 208 307 c 256,3,4
 226 307 226 307 238 292.5 c 128,-1,5
 250 278 250 278 250 256 c 1,6,7
 250 278 250 278 262 292.5 c 128,-1,8
 274 307 274 307 292 307 c 0,9,10
 310 307 310 307 323 292.5 c 128,-1,11
 336 278 336 278 336 256 c 0,12,13
 336 236 336 236 324 221.5 c 128,-1,14
 312 207 312 207 298 205 c 1,15,16
 314 202 314 202 324 188 c 128,-1,17
 334 174 334 174 336 154 c 0,18,19
 336 132 336 132 323 117 c 128,-1,20
 310 102 310 102 292 102 c 0,21,22
 276 102 276 102 264 116 c 0,23,24
 252 128 252 128 250 148 c 1,25,26
 248 129 248 129 237 116.5 c 128,-1,27
 226 104 226 104 212 102 c 1,28,29
 228 99 228 99 238 86 c 0,30,31
 250 72 250 72 250 51 c 0,32,33
 250 29 250 29 238 14.5 c 128,-1,34
 226 0 226 0 208 0 c 256,35,36
 190 0 190 0 177 15 c 128,-1,37
 164 30 164 30 164 51 c 0,38,39
 164 71 164 71 176 86 c 0,40,41
 186 99 186 99 202 102 c 1,42,43
 186 104 186 104 176 119 c 0,44,45
 164 133 164 133 164 154 c 0,46,47
 164 174 164 174 176 188 c 0,48,49
 186 201 186 201 202 205 c 1,50,51
 186 207 186 207 176 221 c 0,52,53
 164 236 164 236 164 256 c 0,0,1
164 563 m 0,54,55
 164 585 164 585 176 599.5 c 128,-1,56
 188 614 188 614 208 614 c 256,57,58
 226 614 226 614 238 599.5 c 128,-1,59
 250 585 250 585 250 563 c 1,60,61
 250 585 250 585 262 599.5 c 128,-1,62
 274 614 274 614 292 614 c 0,63,64
 310 614 310 614 323 599.5 c 128,-1,65
 336 585 336 585 336 563 c 0,66,67
 336 543 336 543 324 528.5 c 128,-1,68
 312 514 312 514 298 512 c 1,69,70
 314 509 314 509 324 496 c 0,71,72
 336 482 336 482 336 461 c 0,73,74
 336 439 336 439 323 424.5 c 128,-1,75
 310 410 310 410 292 410 c 0,76,77
 276 410 276 410 264 423 c 0,78,79
 252 435 252 435 250 456 c 1,80,81
 248 436 248 436 236 423 c 0,82,83
 224 410 224 410 208 410 c 0,84,85
 190 410 190 410 177 424.5 c 128,-1,86
 164 439 164 439 164 461 c 0,87,88
 164 481 164 481 176 496 c 0,89,90
 186 509 186 509 202 512 c 1,91,92
 186 514 186 514 176 528 c 0,93,94
 164 543 164 543 164 563 c 0,54,55
262 497 m 0,95,96
 272 509 272 509 288 512 c 1,97,98
 272 514 272 514 262 526.5 c 128,-1,99
 252 539 252 539 250 558 c 1,100,101
 248 539 248 539 237 526.5 c 128,-1,102
 226 514 226 514 212 512 c 1,103,104
 226 509 226 509 237 496 c 128,-1,105
 248 483 248 483 250 466 c 1,106,107
 252 484 252 484 262 497 c 0,95,96
262 188 m 256,108,109
 272 201 272 201 288 205 c 1,110,111
 272 207 272 207 262 219 c 128,-1,112
 252 231 252 231 250 251 c 1,113,114
 248 232 248 232 237 219.5 c 128,-1,115
 226 207 226 207 212 205 c 1,116,117
 228 202 228 202 238 188 c 0,118,119
 248 175 248 175 250 158 c 1,120,121
 252 175 252 175 262 188 c 256,108,109
EndSplineSet
EndChar

StartChar: less
Encoding: 60 60 9
Width: 500
Flags: W
LayerCount: 2
Fore
SplineSet
208 358 m 256,0,1
 208 380 208 380 220 395 c 128,-1,2
 232 410 232 410 250 410 c 0,3,4
 268 410 268 410 280 395 c 128,-1,5
 292 380 292 380 292 358 c 256,6,7
 292 336 292 336 280 321.5 c 128,-1,8
 268 307 268 307 250 307 c 256,9,10
 232 307 232 307 220 321.5 c 128,-1,11
 208 336 208 336 208 358 c 256,0,1
208 154 m 256,12,13
 208 176 208 176 220 190.5 c 128,-1,14
 232 205 232 205 250 205 c 0,15,16
 268 205 268 205 280 190 c 128,-1,17
 292 175 292 175 292 154 c 0,18,19
 292 132 292 132 280 117 c 128,-1,20
 268 102 268 102 250 102 c 256,21,22
 232 102 232 102 220 117 c 128,-1,23
 208 132 208 132 208 154 c 256,12,13
292 461 m 256,24,25
 292 483 292 483 305 497.5 c 128,-1,26
 318 512 318 512 336 512 c 256,27,28
 354 512 354 512 366 497 c 128,-1,29
 378 482 378 482 378 461 c 0,30,31
 378 439 378 439 365 424.5 c 128,-1,32
 352 410 352 410 336 410 c 0,33,34
 318 410 318 410 305 424.5 c 128,-1,35
 292 439 292 439 292 461 c 256,24,25
292 51 m 256,36,37
 292 73 292 73 305 87.5 c 128,-1,38
 318 102 318 102 336 102 c 256,39,40
 354 102 354 102 366 87.5 c 128,-1,41
 378 73 378 73 378 51 c 256,42,43
 378 29 378 29 365 14.5 c 128,-1,44
 352 0 352 0 336 0 c 0,45,46
 318 0 318 0 305 14.5 c 128,-1,47
 292 29 292 29 292 51 c 256,36,37
122 256 m 256,48,49
 122 278 122 278 134 292.5 c 128,-1,50
 146 307 146 307 164 307 c 256,51,52
 182 307 182 307 195 292.5 c 128,-1,53
 208 278 208 278 208 256 c 256,54,55
 208 234 208 234 195 219.5 c 128,-1,56
 182 205 182 205 164 205 c 0,57,58
 146 205 146 205 134 219.5 c 128,-1,59
 122 234 122 234 122 256 c 256,48,49
EndSplineSet
EndChar

StartChar: equal
Encoding: 61 61 10
Width: 500
Flags: W
LayerCount: 2
Fore
SplineSet
37 461 m 256,0,1
 37 483 37 483 49.5 497.5 c 128,-1,2
 62 512 62 512 79 512 c 0,3,4
 96 512 96 512 108 499 c 0,5,6
 119 486 119 486 123 466 c 1,7,8
 125 485 125 485 136 498.5 c 128,-1,9
 147 512 147 512 165 512 c 0,10,11
 183 512 183 512 195 497 c 128,-1,12
 207 482 207 482 207 461 c 1,13,14
 207 483 207 483 220 497.5 c 128,-1,15
 233 512 233 512 250 512 c 0,16,17
 268 512 268 512 280 497 c 0,18,19
 291 484 291 484 293 465 c 1,20,21
 294 483 294 483 305 497 c 0,22,23
 317 512 317 512 336 512 c 0,24,25
 353 512 353 512 364 499 c 0,26,27
 375 486 375 486 378 466 c 1,28,29
 380 485 380 485 392 498.5 c 128,-1,30
 404 512 404 512 421 512 c 0,31,32
 439 512 439 512 451 497 c 128,-1,33
 463 482 463 482 463 461 c 0,34,35
 463 439 463 439 451 424.5 c 128,-1,36
 439 410 439 410 421 410 c 0,37,38
 404 410 404 410 392 423 c 0,39,40
 380 435 380 435 378 456 c 1,41,42
 376 436 376 436 364.5 423 c 128,-1,43
 353 410 353 410 336 410 c 256,44,45
 319 410 319 410 307 423 c 0,46,47
 295 435 295 435 293 456 c 1,48,49
 291 436 291 436 279 423 c 0,50,51
 267 410 267 410 250 410 c 0,52,53
 233 410 233 410 221 423 c 0,54,55
 209 435 209 435 207 456 c 1,56,57
 205 436 205 436 194 423 c 0,58,59
 182 410 182 410 165 410 c 0,60,61
 148 410 148 410 136 423 c 0,62,63
 125 435 125 435 123 456 c 1,64,65
 121 436 121 436 109 423 c 128,-1,66
 97 410 97 410 79 410 c 0,67,68
 61 410 61 410 49 424.5 c 128,-1,69
 37 439 37 439 37 461 c 256,0,1
37 256 m 256,70,71
 37 278 37 278 49.5 292.5 c 128,-1,72
 62 307 62 307 79 307 c 0,73,74
 96 307 96 307 108.5 294 c 128,-1,75
 121 281 121 281 123 260 c 1,76,77
 125 280 125 280 136 293.5 c 128,-1,78
 147 307 147 307 165 307 c 0,79,80
 183 307 183 307 195 292 c 0,81,82
 205 279 205 279 207 260 c 1,83,84
 208 278 208 278 219 292 c 0,85,86
 231 307 231 307 250 307 c 256,87,88
 268 307 268 307 280 292 c 0,89,90
 291 279 291 279 293 260 c 1,91,92
 294 278 294 278 305 292 c 0,93,94
 317 307 317 307 336 307 c 0,95,96
 353 307 353 307 364 294 c 0,97,98
 375 281 375 281 378 261 c 1,99,100
 380 280 380 280 392 293.5 c 128,-1,101
 404 307 404 307 421 307 c 0,102,103
 439 307 439 307 451 292.5 c 128,-1,104
 463 278 463 278 463 256 c 256,105,106
 463 234 463 234 451 219.5 c 128,-1,107
 439 205 439 205 421 205 c 0,108,109
 404 205 404 205 392 218 c 0,110,111
 380 230 380 230 378 251 c 1,112,113
 376 231 376 231 364.5 218 c 128,-1,114
 353 205 353 205 336 205 c 256,115,116
 319 205 319 205 307 218 c 0,117,118
 295 230 295 230 293 251 c 1,119,120
 291 231 291 231 279 218 c 0,121,122
 267 205 267 205 250 205 c 0,123,124
 233 205 233 205 221 218 c 0,125,126
 209 230 209 230 207 251 c 1,127,128
 205 231 205 231 194 218 c 0,129,130
 182 205 182 205 165 205 c 0,131,132
 148 205 148 205 136 218 c 0,133,134
 125 230 125 230 123 251 c 1,135,136
 121 231 121 231 109 218 c 128,-1,137
 97 205 97 205 79 205 c 0,138,139
 61 205 61 205 49 219.5 c 128,-1,140
 37 234 37 234 37 256 c 256,70,71
EndSplineSet
EndChar

StartChar: greater
Encoding: 62 62 11
Width: 500
Flags: W
LayerCount: 2
Fore
SplineSet
208 357 m 256,0,1
 208 379 208 379 220 394 c 128,-1,2
 232 409 232 409 250 409 c 0,3,4
 268 409 268 409 280 394 c 128,-1,5
 292 379 292 379 292 357 c 256,6,7
 292 335 292 335 280 320.5 c 128,-1,8
 268 306 268 306 250 306 c 256,9,10
 232 306 232 306 220 320.5 c 128,-1,11
 208 335 208 335 208 357 c 256,0,1
208 153 m 0,12,13
 208 175 208 175 220 189.5 c 128,-1,14
 232 204 232 204 250 204 c 0,15,16
 268 204 268 204 280 189 c 128,-1,17
 292 174 292 174 292 153 c 0,18,19
 292 128 292 128 279 115 c 128,-1,20
 266 102 266 102 250 102 c 128,-1,21
 234 102 234 102 221 115 c 128,-1,22
 208 128 208 128 208 153 c 0,12,13
292 255 m 256,23,24
 292 277 292 277 305 291.5 c 128,-1,25
 318 306 318 306 336 306 c 256,26,27
 354 306 354 306 366 291 c 128,-1,28
 378 276 378 276 378 255 c 0,29,30
 378 233 378 233 365 218.5 c 128,-1,31
 352 204 352 204 336 204 c 0,32,33
 318 204 318 204 305 218.5 c 128,-1,34
 292 233 292 233 292 255 c 256,23,24
122 50 m 256,35,36
 122 72 122 72 134 86.5 c 128,-1,37
 146 101 146 101 164 101 c 256,38,39
 182 101 182 101 195 86.5 c 128,-1,40
 208 72 208 72 208 50 c 256,41,42
 208 28 208 28 195 13.5 c 128,-1,43
 182 -1 182 -1 164 -1 c 0,44,45
 146 -1 146 -1 134 13.5 c 128,-1,46
 122 28 122 28 122 50 c 256,35,36
122 460 m 256,47,48
 122 482 122 482 134 496.5 c 128,-1,49
 146 511 146 511 164 511 c 256,50,51
 182 511 182 511 195 496 c 128,-1,52
 208 481 208 481 208 460 c 0,53,54
 208 438 208 438 195 423.5 c 128,-1,55
 182 409 182 409 164 409 c 0,56,57
 146 409 146 409 134 423.5 c 128,-1,58
 122 438 122 438 122 460 c 256,47,48
EndSplineSet
EndChar

StartChar: question
Encoding: 63 63 12
Width: 500
Flags: W
LayerCount: 2
Fore
SplineSet
123 666 m 256,0,1
 123 688 123 688 135 702.5 c 128,-1,2
 147 717 147 717 165 717 c 256,3,4
 183 717 183 717 195 702 c 128,-1,5
 207 687 207 687 207 666 c 1,6,7
 207 688 207 688 220 702.5 c 128,-1,8
 233 717 233 717 250 717 c 128,-1,9
 267 717 267 717 279 703 c 0,10,11
 291 690 291 690 293 671 c 1,12,13
 295 690 295 690 306.5 703.5 c 128,-1,14
 318 717 318 717 336 717 c 128,-1,15
 354 717 354 717 366 702 c 128,-1,16
 378 687 378 687 378 666 c 0,17,18
 378 644 378 644 365.5 629 c 128,-1,19
 353 614 353 614 336 614 c 128,-1,20
 319 614 319 614 307 628 c 0,21,22
 295 640 295 640 293 660 c 1,23,24
 291 640 291 640 279 628 c 0,25,26
 267 615 267 615 250 614 c 0,27,28
 233 614 233 614 221 628 c 0,29,30
 209 640 209 640 207 660 c 1,31,32
 205 640 205 640 194 628 c 0,33,34
 182 615 182 615 165 614 c 0,35,36
 147 614 147 614 135 629 c 128,-1,37
 123 644 123 644 123 666 c 256,0,1
378 461 m 0,38,39
 378 481 378 481 389 496 c 0,40,41
 399 509 399 509 417 512 c 1,42,43
 400 514 400 514 389 528 c 128,-1,44
 378 542 378 542 378 563 c 0,45,46
 378 585 378 585 390.5 599.5 c 128,-1,47
 403 614 403 614 421 614 c 256,48,49
 439 614 439 614 451 599.5 c 128,-1,50
 463 585 463 585 463 563 c 0,51,52
 463 543 463 543 452.5 528.5 c 128,-1,53
 442 514 442 514 425 512 c 1,54,55
 441 509 441 509 453 496 c 0,56,57
 463 483 463 483 463 464 c 0,58,59
 463 439 463 439 451 424.5 c 128,-1,60
 439 410 439 410 421 410 c 256,61,62
 403 410 403 410 390.5 424.5 c 128,-1,63
 378 439 378 439 378 461 c 0,38,39
207 51 m 256,64,65
 207 73 207 73 220 87.5 c 128,-1,66
 233 102 233 102 250 102 c 0,67,68
 268 102 268 102 280.5 87.5 c 128,-1,69
 293 73 293 73 293 51 c 256,70,71
 293 29 293 29 280.5 14.5 c 128,-1,72
 268 0 268 0 250 0 c 256,73,74
 232 0 232 0 219.5 14.5 c 128,-1,75
 207 29 207 29 207 51 c 256,64,65
37 563 m 256,76,77
 37 585 37 585 49.5 599.5 c 128,-1,78
 62 614 62 614 79 614 c 0,79,80
 97 614 97 614 110 599.5 c 128,-1,81
 123 585 123 585 123 563 c 256,82,83
 123 541 123 541 110 526.5 c 128,-1,84
 97 512 97 512 79 512 c 256,85,86
 61 512 61 512 49 526.5 c 128,-1,87
 37 541 37 541 37 563 c 256,76,77
207 256 m 256,88,89
 207 278 207 278 220 292.5 c 128,-1,90
 233 307 233 307 250 307 c 0,91,92
 268 307 268 307 280.5 292.5 c 128,-1,93
 293 278 293 278 293 256 c 256,94,95
 293 234 293 234 280.5 219.5 c 128,-1,96
 268 205 268 205 250 205 c 256,97,98
 232 205 232 205 219.5 219.5 c 128,-1,99
 207 234 207 234 207 256 c 256,88,89
293 358 m 256,100,101
 293 380 293 380 305 395 c 128,-1,102
 317 410 317 410 336 410 c 256,103,104
 354 410 354 410 366 395 c 128,-1,105
 378 380 378 380 378 358 c 256,106,107
 378 336 378 336 365.5 321.5 c 128,-1,108
 353 307 353 307 336 307 c 0,109,110
 318 307 318 307 305.5 321.5 c 128,-1,111
 293 336 293 336 293 358 c 256,100,101
EndSplineSet
EndChar

StartChar: at
Encoding: 64 64 13
Width: 500
Flags: W
LayerCount: 2
Fore
SplineSet
207 256 m 0,0,1
 207 276 207 276 218 291 c 0,2,3
 228 304 228 304 246 307 c 1,4,5
 229 309 229 309 218 324 c 0,6,7
 207 338 207 338 207 358 c 256,8,9
 207 378 207 378 218 393 c 0,10,11
 228 406 228 406 246 410 c 1,12,13
 229 412 229 412 218 426 c 128,-1,14
 207 440 207 440 207 461 c 0,15,16
 207 483 207 483 220 497.5 c 128,-1,17
 233 512 233 512 250 512 c 128,-1,18
 267 512 267 512 279 499 c 128,-1,19
 291 486 291 486 293 466 c 1,20,21
 295 485 295 485 306.5 498.5 c 128,-1,22
 318 512 318 512 336 512 c 0,23,24
 353 512 353 512 365 498.5 c 128,-1,25
 377 485 377 485 378 465 c 1,26,27
 380 483 380 483 390 497 c 0,28,29
 400 509 400 509 417 512 c 1,30,31
 400 514 400 514 389 528 c 128,-1,32
 378 542 378 542 378 563 c 0,33,34
 378 585 378 585 390.5 599.5 c 128,-1,35
 403 614 403 614 421 614 c 256,36,37
 439 614 439 614 451 599.5 c 128,-1,38
 463 585 463 585 463 563 c 0,39,40
 463 543 463 543 452.5 528.5 c 128,-1,41
 442 514 442 514 425 512 c 1,42,43
 441 509 441 509 453 496 c 0,44,45
 463 483 463 483 463 464 c 0,46,47
 463 441 463 441 452.5 426.5 c 128,-1,48
 442 412 442 412 425 410 c 1,49,50
 441 407 441 407 453 393 c 0,51,52
 463 380 463 380 463 361 c 0,53,54
 463 338 463 338 452.5 323.5 c 128,-1,55
 442 309 442 309 425 307 c 1,56,57
 441 304 441 304 453 291 c 0,58,59
 463 278 463 278 463 259 c 0,60,61
 463 234 463 234 451 219.5 c 128,-1,62
 439 205 439 205 421 205 c 0,63,64
 404 205 404 205 392 218 c 0,65,66
 380 230 380 230 378 251 c 1,67,68
 376 231 376 231 364.5 218 c 128,-1,69
 353 205 353 205 336 205 c 256,70,71
 319 205 319 205 307 218 c 0,72,73
 295 230 295 230 293 251 c 1,74,75
 291 231 291 231 279 218 c 128,-1,76
 267 205 267 205 250 205 c 0,77,78
 232 205 232 205 219.5 219.5 c 128,-1,79
 207 234 207 234 207 256 c 0,0,1
37 256 m 256,80,81
 37 276 37 276 48 291 c 0,82,83
 58 304 58 304 75 307 c 1,84,85
 58 309 58 309 48 324 c 0,86,87
 37 338 37 338 37 358 c 128,-1,88
 37 378 37 378 48 393 c 0,89,90
 58 406 58 406 75 410 c 1,91,92
 58 412 58 412 48 426 c 0,93,94
 37 440 37 440 37 461 c 0,95,96
 37 481 37 481 48 496 c 0,97,98
 58 509 58 509 75 512 c 1,99,100
 58 514 58 514 48 528 c 0,101,102
 37 542 37 542 37 563 c 0,103,104
 37 585 37 585 49.5 599.5 c 128,-1,105
 62 614 62 614 79 614 c 0,106,107
 97 614 97 614 110 599.5 c 128,-1,108
 123 585 123 585 123 563 c 0,109,110
 123 543 123 543 111.5 528.5 c 128,-1,111
 100 514 100 514 84 512 c 1,112,113
 100 509 100 509 111 496 c 0,114,115
 123 482 123 482 123 461 c 0,116,117
 123 441 123 441 111.5 426.5 c 128,-1,118
 100 412 100 412 84 410 c 1,119,120
 100 407 100 407 111 393 c 0,121,122
 123 379 123 379 123 358 c 0,123,124
 123 338 123 338 111.5 323.5 c 128,-1,125
 100 309 100 309 84 307 c 1,126,127
 100 304 100 304 111 291 c 0,128,129
 123 277 123 277 123 256 c 0,130,131
 123 236 123 236 111.5 221.5 c 128,-1,132
 100 207 100 207 84 205 c 1,133,134
 100 202 100 202 111 188 c 0,135,136
 123 174 123 174 123 154 c 0,137,138
 123 132 123 132 110 117 c 128,-1,139
 97 102 97 102 79 102 c 256,140,141
 61 102 61 102 49 117 c 128,-1,142
 37 132 37 132 37 154 c 0,143,144
 37 174 37 174 48 188 c 0,145,146
 58 201 58 201 75 205 c 1,147,148
 58 207 58 207 48 221 c 0,149,150
 37 236 37 236 37 256 c 256,80,81
123 51 m 256,151,152
 123 73 123 73 135 87.5 c 128,-1,153
 147 102 147 102 165 102 c 256,154,155
 183 102 183 102 195 87 c 0,156,157
 205 74 205 74 207 55 c 1,158,159
 208 73 208 73 219 87 c 0,160,161
 231 102 231 102 250 102 c 256,162,163
 268 102 268 102 280 87 c 0,164,165
 291 74 291 74 293 55 c 1,166,167
 294 73 294 73 305 87 c 0,168,169
 317 102 317 102 336 102 c 256,170,171
 354 102 354 102 365 87 c 0,172,173
 376 74 376 74 378 55 c 1,174,175
 379 73 379 73 390 87 c 0,176,177
 402 102 402 102 421 102 c 256,178,179
 439 102 439 102 451 87.5 c 128,-1,180
 463 73 463 73 463 51 c 256,181,182
 463 29 463 29 451 14.5 c 128,-1,183
 439 0 439 0 421 0 c 0,184,185
 404 0 404 0 392 13 c 0,186,187
 380 25 380 25 378 46 c 1,188,189
 376 26 376 26 364.5 13 c 128,-1,190
 353 0 353 0 336 0 c 256,191,192
 319 0 319 0 307 13 c 0,193,194
 295 25 295 25 293 46 c 1,195,196
 291 26 291 26 279 13 c 128,-1,197
 267 0 267 0 250 0 c 128,-1,198
 233 0 233 0 221 13 c 0,199,200
 209 25 209 25 207 46 c 1,201,202
 205 26 205 26 194 13 c 0,203,204
 182 0 182 0 165 0 c 0,205,206
 147 0 147 0 135 14.5 c 128,-1,207
 123 29 123 29 123 51 c 256,151,152
123 666 m 256,208,209
 123 688 123 688 135 702.5 c 128,-1,210
 147 717 147 717 165 717 c 0,211,212
 166 717 166 717 167 717 c 0,213,214
 183 717 183 717 194 704 c 0,215,216
 205 690 205 690 207 670 c 1,217,218
 209 690 209 690 221 703.5 c 128,-1,219
 233 717 233 717 250 717 c 0,220,221
 268 717 268 717 280 701 c 0,222,223
 291 688 291 688 293 670 c 1,224,225
 294 688 294 688 305 701 c 0,226,227
 317 716 317 716 336 717 c 0,228,229
 354 717 354 717 366 702 c 128,-1,230
 378 687 378 687 378 666 c 0,231,232
 378 644 378 644 365.5 629 c 128,-1,233
 353 614 353 614 336 614 c 128,-1,234
 319 614 319 614 307 628 c 0,235,236
 295 640 295 640 293 660 c 1,237,238
 291 640 291 640 279 628 c 0,239,240
 267 615 267 615 250 614 c 0,241,242
 233 614 233 614 221 628 c 0,243,244
 209 640 209 640 207 660 c 1,245,246
 205 640 205 640 194 628 c 0,247,248
 182 615 182 615 165 614 c 0,249,250
 147 614 147 614 135 629 c 128,-1,251
 123 644 123 644 123 666 c 256,208,209
378 358 m 256,252,253
 378 378 378 378 389 393 c 0,254,255
 399 406 399 406 417 410 c 1,256,257
 401 412 401 412 390.5 424 c 128,-1,258
 380 436 380 436 378 456 c 1,259,260
 376 436 376 436 364.5 423 c 128,-1,261
 353 410 353 410 336 410 c 256,262,263
 319 410 319 410 307 423 c 0,264,265
 295 435 295 435 293 456 c 1,266,267
 291 437 291 437 280 424.5 c 128,-1,268
 269 412 269 412 254 410 c 1,269,270
 270 407 270 407 282 393 c 0,271,272
 293 379 293 379 293 358 c 0,273,274
 293 338 293 338 282 323.5 c 128,-1,275
 271 309 271 309 254 307 c 1,276,277
 270 304 270 304 282 291 c 0,278,279
 291 278 291 278 293 260 c 1,280,281
 294 278 294 278 305 292 c 0,282,283
 317 307 317 307 336 307 c 256,284,285
 354 307 354 307 366 292.5 c 128,-1,286
 378 278 378 278 378 256 c 1,287,288
 378 276 378 276 389 291 c 0,289,290
 399 304 399 304 417 307 c 1,291,292
 400 309 400 309 389 324 c 0,293,294
 378 338 378 338 378 358 c 256,252,253
EndSplineSet
EndChar

StartChar: A
Encoding: 65 65 14
Width: 500
Flags: W
LayerCount: 2
Fore
SplineSet
378 154 m 256,0,1
 378 174 378 174 389 188 c 0,2,3
 399 201 399 201 417 205 c 1,4,5
 401 207 401 207 390.5 219 c 128,-1,6
 380 231 380 231 378 251 c 1,7,8
 376 231 376 231 364.5 218 c 128,-1,9
 353 205 353 205 336 205 c 256,10,11
 319 205 319 205 307 218 c 0,12,13
 295 230 295 230 293 251 c 1,14,15
 291 231 291 231 279 218 c 128,-1,16
 267 205 267 205 250 205 c 128,-1,17
 233 205 233 205 221 218 c 0,18,19
 209 230 209 230 207 251 c 1,20,21
 205 231 205 231 194 218 c 0,22,23
 182 205 182 205 165 205 c 128,-1,24
 148 205 148 205 136 218 c 0,25,26
 125 230 125 230 123 251 c 1,27,28
 121 232 121 232 109.5 219.5 c 128,-1,29
 98 207 98 207 84 205 c 1,30,31
 100 202 100 202 111 188 c 0,32,33
 123 174 123 174 123 154 c 128,-1,34
 123 134 123 134 111.5 119 c 128,-1,35
 100 104 100 104 84 102 c 1,36,37
 100 99 100 99 111 86 c 0,38,39
 123 72 123 72 123 51 c 0,40,41
 123 29 123 29 110 14.5 c 128,-1,42
 97 0 97 0 79 0 c 256,43,44
 61 0 61 0 49 15 c 128,-1,45
 37 30 37 30 37 51 c 0,46,47
 37 71 37 71 48 86 c 0,48,49
 58 99 58 99 75 102 c 1,50,51
 58 104 58 104 48 119 c 0,52,53
 37 133 37 133 37 154 c 0,54,55
 37 174 37 174 48 188 c 0,56,57
 58 201 58 201 75 205 c 1,58,59
 58 207 58 207 48 221 c 0,60,61
 37 235 37 235 37 256 c 0,62,63
 37 276 37 276 48 291 c 0,64,65
 58 304 58 304 75 307 c 1,66,67
 58 309 58 309 48 324 c 0,68,69
 37 338 37 338 37 358 c 128,-1,70
 37 378 37 378 48 393 c 0,71,72
 58 406 58 406 75 410 c 1,73,74
 58 412 58 412 48 426 c 0,75,76
 37 440 37 440 37 461 c 0,77,78
 37 481 37 481 48 496 c 0,79,80
 58 509 58 509 75 512 c 1,81,82
 58 514 58 514 48 528 c 0,83,84
 37 542 37 542 37 563 c 0,85,86
 37 585 37 585 49.5 599.5 c 128,-1,87
 62 614 62 614 79 614 c 0,88,89
 97 614 97 614 110 599.5 c 128,-1,90
 123 585 123 585 123 563 c 0,91,92
 123 543 123 543 111.5 528.5 c 128,-1,93
 100 514 100 514 84 512 c 1,94,95
 100 509 100 509 111 496 c 0,96,97
 123 482 123 482 123 461 c 0,98,99
 123 441 123 441 111.5 426.5 c 128,-1,100
 100 412 100 412 84 410 c 1,101,102
 100 407 100 407 111 393 c 0,103,104
 123 379 123 379 123 358 c 0,105,106
 123 338 123 338 111.5 323.5 c 128,-1,107
 100 309 100 309 84 307 c 1,108,109
 98 304 98 304 109 292 c 0,110,111
 121 279 121 279 123 260 c 1,112,113
 125 280 125 280 136 293.5 c 128,-1,114
 147 307 147 307 165 307 c 128,-1,115
 183 307 183 307 195 292 c 0,116,117
 205 279 205 279 207 260 c 1,118,119
 208 278 208 278 219 292 c 0,120,121
 231 307 231 307 250 307 c 256,122,123
 268 307 268 307 280.5 292.5 c 128,-1,124
 293 278 293 278 293 256 c 1,125,126
 293 278 293 278 305 292.5 c 128,-1,127
 317 307 317 307 336 307 c 256,128,129
 354 307 354 307 366 292.5 c 128,-1,130
 378 278 378 278 378 256 c 1,131,132
 378 276 378 276 389 291 c 0,133,134
 399 304 399 304 417 307 c 1,135,136
 400 309 400 309 389 324 c 0,137,138
 378 338 378 338 378 358 c 256,139,140
 378 378 378 378 389 393 c 0,141,142
 399 406 399 406 417 410 c 1,143,144
 400 412 400 412 389 426 c 128,-1,145
 378 440 378 440 378 461 c 0,146,147
 378 481 378 481 389 496 c 0,148,149
 399 509 399 509 417 512 c 1,150,151
 400 514 400 514 389 528 c 128,-1,152
 378 542 378 542 378 563 c 0,153,154
 378 585 378 585 390.5 599.5 c 128,-1,155
 403 614 403 614 421 614 c 256,156,157
 439 614 439 614 451 599.5 c 128,-1,158
 463 585 463 585 463 563 c 0,159,160
 463 543 463 543 452.5 528.5 c 128,-1,161
 442 514 442 514 425 512 c 1,162,163
 441 509 441 509 453 496 c 0,164,165
 463 483 463 483 463 464 c 0,166,167
 463 441 463 441 452.5 426.5 c 128,-1,168
 442 412 442 412 425 410 c 1,169,170
 441 407 441 407 453 393 c 0,171,172
 463 380 463 380 463 361 c 0,173,174
 463 338 463 338 452.5 323.5 c 128,-1,175
 442 309 442 309 425 307 c 1,176,177
 441 304 441 304 453 291 c 0,178,179
 463 278 463 278 463 259 c 0,180,181
 463 236 463 236 452.5 221.5 c 128,-1,182
 442 207 442 207 425 205 c 1,183,184
 441 202 441 202 453 188 c 0,185,186
 463 175 463 175 463 157 c 0,187,188
 463 134 463 134 452.5 119 c 128,-1,189
 442 104 442 104 425 102 c 1,190,191
 441 99 441 99 453 86 c 0,192,193
 463 73 463 73 463 54 c 0,194,195
 463 29 463 29 451 14.5 c 128,-1,196
 439 0 439 0 421 0 c 256,197,198
 403 0 403 0 390.5 15 c 128,-1,199
 378 30 378 30 378 51 c 0,200,201
 378 71 378 71 389 86 c 0,202,203
 399 99 399 99 417 102 c 1,204,205
 400 104 400 104 389 119 c 128,-1,206
 378 134 378 134 378 154 c 256,0,1
123 666 m 256,207,208
 123 688 123 688 135 702.5 c 128,-1,209
 147 717 147 717 165 717 c 0,210,211
 182 717 182 717 194 703 c 0,212,213
 205 690 205 690 207 671 c 1,214,215
 209 690 209 690 221 703.5 c 128,-1,216
 233 717 233 717 250 717 c 0,217,218
 268 717 268 717 280 701 c 0,219,220
 291 688 291 688 293 670 c 1,221,222
 294 688 294 688 305 701 c 0,223,224
 317 716 317 716 336 717 c 0,225,226
 354 717 354 717 366 702 c 128,-1,227
 378 687 378 687 378 666 c 0,228,229
 378 644 378 644 365.5 629 c 128,-1,230
 353 614 353 614 336 614 c 128,-1,231
 319 614 319 614 307 628 c 0,232,233
 295 640 295 640 293 660 c 1,234,235
 291 640 291 640 279 628 c 0,236,237
 267 615 267 615 250 614 c 0,238,239
 233 614 233 614 221 628 c 0,240,241
 209 640 209 640 207 660 c 1,242,243
 205 640 205 640 194 628 c 0,244,245
 182 615 182 615 165 614 c 0,246,247
 147 614 147 614 135 629 c 128,-1,248
 123 644 123 644 123 666 c 256,207,208
EndSplineSet
EndChar

StartChar: B
Encoding: 66 66 15
Width: 500
Flags: W
LayerCount: 2
Fore
SplineSet
37 666 m 0,0,1
 37 688 37 688 49.5 702.5 c 128,-1,2
 62 717 62 717 79 717 c 128,-1,3
 96 717 96 717 108.5 703.5 c 128,-1,4
 121 690 121 690 123 670 c 1,5,6
 125 690 125 690 136 703.5 c 128,-1,7
 147 717 147 717 165 717 c 128,-1,8
 183 717 183 717 195 702 c 128,-1,9
 207 687 207 687 207 666 c 1,10,11
 207 688 207 688 220 702.5 c 128,-1,12
 233 717 233 717 250 717 c 128,-1,13
 267 717 267 717 279 703.5 c 128,-1,14
 291 690 291 690 293 670 c 1,15,16
 295 690 295 690 306.5 703.5 c 128,-1,17
 318 717 318 717 336 717 c 128,-1,18
 354 717 354 717 366 702 c 128,-1,19
 378 687 378 687 378 666 c 0,20,21
 378 644 378 644 365.5 629 c 128,-1,22
 353 614 353 614 336 614 c 128,-1,23
 319 614 319 614 307 628 c 0,24,25
 295 640 295 640 293 660 c 1,26,27
 291 640 291 640 279 628 c 0,28,29
 267 615 267 615 250 614 c 0,30,31
 233 614 233 614 221 628 c 0,32,33
 209 640 209 640 207 660 c 1,34,35
 205 640 205 640 194 628 c 0,36,37
 182 615 182 615 165 614 c 0,38,39
 148 614 148 614 136 628 c 0,40,41
 125 640 125 640 123 660 c 1,42,43
 121 641 121 641 109.5 628.5 c 128,-1,44
 98 616 98 616 84 614 c 1,45,46
 100 611 100 611 111 598 c 0,47,48
 123 584 123 584 123 563 c 0,49,50
 123 543 123 543 111.5 528.5 c 128,-1,51
 100 514 100 514 84 512 c 1,52,53
 100 509 100 509 111 496 c 0,54,55
 123 482 123 482 123 461 c 0,56,57
 123 441 123 441 111.5 426.5 c 128,-1,58
 100 412 100 412 84 410 c 1,59,60
 98 407 98 407 109 394 c 0,61,62
 121 381 121 381 123 362 c 1,63,64
 125 382 125 382 136 396 c 128,-1,65
 147 410 147 410 165 410 c 128,-1,66
 183 410 183 410 195 395 c 128,-1,67
 207 380 207 380 207 358 c 1,68,69
 207 380 207 380 220 395 c 128,-1,70
 233 410 233 410 250 410 c 128,-1,71
 267 410 267 410 279 396 c 0,72,73
 291 383 291 383 293 364 c 1,74,75
 295 383 295 383 306.5 396.5 c 128,-1,76
 318 410 318 410 336 410 c 128,-1,77
 354 410 354 410 366 395 c 128,-1,78
 378 380 378 380 378 358 c 256,79,80
 378 336 378 336 365.5 321.5 c 128,-1,81
 353 307 353 307 336 307 c 128,-1,82
 319 307 319 307 307 321 c 0,83,84
 295 333 295 333 293 353 c 1,85,86
 291 333 291 333 279 321 c 0,87,88
 267 308 267 308 250 307 c 0,89,90
 233 307 233 307 221 321 c 0,91,92
 209 333 209 333 207 353 c 1,93,94
 205 333 205 333 194 321 c 0,95,96
 182 308 182 308 165 307 c 0,97,98
 148 307 148 307 136 321 c 0,99,100
 125 333 125 333 123 353 c 1,101,102
 121 334 121 334 109.5 321.5 c 128,-1,103
 98 309 98 309 84 307 c 1,104,105
 100 304 100 304 111 291 c 0,106,107
 123 277 123 277 123 256 c 0,108,109
 123 236 123 236 111.5 221.5 c 128,-1,110
 100 207 100 207 84 205 c 1,111,112
 100 202 100 202 111 188 c 0,113,114
 123 174 123 174 123 154 c 128,-1,115
 123 134 123 134 111.5 119 c 128,-1,116
 100 104 100 104 84 102 c 1,117,118
 100 99 100 99 111 86 c 0,119,120
 121 73 121 73 123 55 c 1,121,122
 124 73 124 73 134 87 c 0,123,124
 146 102 146 102 165 102 c 0,125,126
 182 102 182 102 194 89 c 0,127,128
 205 76 205 76 207 55 c 1,129,130
 209 75 209 75 221 88.5 c 128,-1,131
 233 102 233 102 250 102 c 256,132,133
 267 102 267 102 279 89 c 128,-1,134
 291 76 291 76 293 55 c 1,135,136
 295 75 295 75 306.5 88.5 c 128,-1,137
 318 102 318 102 336 102 c 128,-1,138
 354 102 354 102 366 87.5 c 128,-1,139
 378 73 378 73 378 51 c 256,140,141
 378 29 378 29 365.5 14.5 c 128,-1,142
 353 0 353 0 336 0 c 128,-1,143
 319 0 319 0 307 13 c 0,144,145
 295 25 295 25 293 46 c 1,146,147
 291 26 291 26 279 13 c 128,-1,148
 267 0 267 0 250 0 c 128,-1,149
 233 0 233 0 221 13 c 0,150,151
 209 25 209 25 207 46 c 1,152,153
 205 26 205 26 194 13 c 0,154,155
 182 0 182 0 165 0 c 128,-1,156
 148 0 148 0 136 13 c 0,157,158
 125 25 125 25 123 46 c 1,159,160
 121 26 121 26 109 13 c 128,-1,161
 97 0 97 0 79 0 c 128,-1,162
 61 0 61 0 49 15 c 128,-1,163
 37 30 37 30 37 51 c 0,164,165
 37 71 37 71 48 86 c 0,166,167
 58 99 58 99 75 102 c 1,168,169
 58 104 58 104 48 119 c 0,170,171
 37 133 37 133 37 154 c 0,172,173
 37 174 37 174 48 188 c 0,174,175
 58 201 58 201 75 205 c 1,176,177
 58 207 58 207 48 221 c 0,178,179
 37 235 37 235 37 256 c 0,180,181
 37 276 37 276 48 291 c 0,182,183
 58 304 58 304 75 307 c 1,184,185
 58 309 58 309 48 324 c 0,186,187
 37 338 37 338 37 358 c 128,-1,188
 37 378 37 378 48 393 c 0,189,190
 58 406 58 406 75 410 c 1,191,192
 58 412 58 412 48 426 c 0,193,194
 37 440 37 440 37 461 c 0,195,196
 37 481 37 481 48 496 c 0,197,198
 58 509 58 509 75 512 c 1,199,200
 58 514 58 514 48 528 c 0,201,202
 37 542 37 542 37 563 c 0,203,204
 37 583 37 583 48 598 c 0,205,206
 58 611 58 611 75 614 c 1,207,208
 58 616 58 616 48 631 c 0,209,210
 37 646 37 646 37 666 c 0,0,1
378 563 m 0,211,212
 378 585 378 585 390.5 599.5 c 128,-1,213
 403 614 403 614 421 614 c 256,214,215
 439 614 439 614 451 599.5 c 128,-1,216
 463 585 463 585 463 563 c 0,217,218
 463 543 463 543 452.5 528.5 c 128,-1,219
 442 514 442 514 425 512 c 1,220,221
 441 509 441 509 453 496 c 0,222,223
 463 483 463 483 463 464 c 0,224,225
 463 439 463 439 451 424.5 c 128,-1,226
 439 410 439 410 421 410 c 256,227,228
 403 410 403 410 390.5 424.5 c 128,-1,229
 378 439 378 439 378 461 c 0,230,231
 378 481 378 481 389 496 c 0,232,233
 399 509 399 509 417 512 c 1,234,235
 400 514 400 514 389 528 c 0,236,237
 378 543 378 543 378 563 c 0,211,212
378 154 m 0,238,239
 378 174 378 174 389 188 c 0,240,241
 399 201 399 201 417 205 c 1,242,243
 400 207 400 207 389 221 c 128,-1,244
 378 235 378 235 378 256 c 0,245,246
 378 278 378 278 390.5 292.5 c 128,-1,247
 403 307 403 307 421 307 c 256,248,249
 439 307 439 307 451 292.5 c 128,-1,250
 463 278 463 278 463 256 c 0,251,252
 463 236 463 236 452.5 221.5 c 128,-1,253
 442 207 442 207 425 205 c 1,254,255
 441 202 441 202 453 188 c 0,256,257
 463 175 463 175 463 157 c 0,258,259
 463 132 463 132 451 117 c 128,-1,260
 439 102 439 102 421 102 c 256,261,262
 403 102 403 102 390.5 117 c 128,-1,263
 378 132 378 132 378 154 c 0,238,239
EndSplineSet
EndChar

StartChar: C
Encoding: 67 67 16
Width: 500
Flags: W
LayerCount: 2
Fore
SplineSet
37 256 m 256,0,1
 37 276 37 276 48 291 c 0,2,3
 58 304 58 304 75 307 c 1,4,5
 58 309 58 309 48 324 c 0,6,7
 37 338 37 338 37 358 c 128,-1,8
 37 378 37 378 48 393 c 0,9,10
 58 406 58 406 75 410 c 1,11,12
 58 412 58 412 48 426 c 0,13,14
 37 440 37 440 37 461 c 0,15,16
 37 481 37 481 48 496 c 0,17,18
 58 509 58 509 75 512 c 1,19,20
 58 514 58 514 48 528 c 0,21,22
 37 542 37 542 37 563 c 0,23,24
 37 585 37 585 49.5 599.5 c 128,-1,25
 62 614 62 614 79 614 c 0,26,27
 97 614 97 614 110 599.5 c 128,-1,28
 123 585 123 585 123 563 c 0,29,30
 123 543 123 543 111.5 528.5 c 128,-1,31
 100 514 100 514 84 512 c 1,32,33
 100 509 100 509 111 496 c 0,34,35
 123 482 123 482 123 461 c 0,36,37
 123 441 123 441 111.5 426.5 c 128,-1,38
 100 412 100 412 84 410 c 1,39,40
 100 407 100 407 111 393 c 0,41,42
 123 379 123 379 123 358 c 0,43,44
 123 338 123 338 111.5 323.5 c 128,-1,45
 100 309 100 309 84 307 c 1,46,47
 100 304 100 304 111 291 c 0,48,49
 123 277 123 277 123 256 c 0,50,51
 123 236 123 236 111.5 221.5 c 128,-1,52
 100 207 100 207 84 205 c 1,53,54
 100 202 100 202 111 188 c 0,55,56
 123 174 123 174 123 154 c 0,57,58
 123 132 123 132 110 117 c 128,-1,59
 97 102 97 102 79 102 c 256,60,61
 61 102 61 102 49 117 c 128,-1,62
 37 132 37 132 37 154 c 0,63,64
 37 174 37 174 48 188 c 0,65,66
 58 201 58 201 75 205 c 1,67,68
 58 207 58 207 48 221 c 0,69,70
 37 236 37 236 37 256 c 256,0,1
123 51 m 256,71,72
 123 73 123 73 135 87.5 c 128,-1,73
 147 102 147 102 165 102 c 0,74,75
 182 102 182 102 194 89 c 0,76,77
 205 76 205 76 207 55 c 1,78,79
 209 75 209 75 221 88.5 c 128,-1,80
 233 102 233 102 250 102 c 256,81,82
 267 102 267 102 279 89 c 128,-1,83
 291 76 291 76 293 55 c 1,84,85
 295 75 295 75 306.5 88.5 c 128,-1,86
 318 102 318 102 336 102 c 128,-1,87
 354 102 354 102 366 87.5 c 128,-1,88
 378 73 378 73 378 51 c 256,89,90
 378 29 378 29 365.5 14.5 c 128,-1,91
 353 0 353 0 336 0 c 128,-1,92
 319 0 319 0 307 13 c 0,93,94
 295 25 295 25 293 46 c 1,95,96
 291 26 291 26 279 13 c 128,-1,97
 267 0 267 0 250 0 c 128,-1,98
 233 0 233 0 221 13 c 0,99,100
 209 25 209 25 207 46 c 1,101,102
 205 26 205 26 194 13 c 0,103,104
 182 0 182 0 165 0 c 0,105,106
 147 0 147 0 135 14.5 c 128,-1,107
 123 29 123 29 123 51 c 256,71,72
123 666 m 256,108,109
 123 688 123 688 135 702.5 c 128,-1,110
 147 717 147 717 165 717 c 0,111,112
 182 717 182 717 194 703 c 0,113,114
 205 690 205 690 207 671 c 1,115,116
 209 690 209 690 221 703.5 c 128,-1,117
 233 717 233 717 250 717 c 256,118,119
 267 717 267 717 279 703 c 0,120,121
 291 690 291 690 293 671 c 1,122,123
 295 690 295 690 306.5 703.5 c 128,-1,124
 318 717 318 717 336 717 c 128,-1,125
 354 717 354 717 366 702 c 128,-1,126
 378 687 378 687 378 666 c 0,127,128
 378 644 378 644 365.5 629 c 128,-1,129
 353 614 353 614 336 614 c 128,-1,130
 319 614 319 614 307 628 c 0,131,132
 295 640 295 640 293 660 c 1,133,134
 291 640 291 640 279 628 c 0,135,136
 267 615 267 615 250 614 c 0,137,138
 233 614 233 614 221 628 c 0,139,140
 209 640 209 640 207 660 c 1,141,142
 205 640 205 640 194 628 c 0,143,144
 182 615 182 615 165 614 c 0,145,146
 147 614 147 614 135 629 c 128,-1,147
 123 644 123 644 123 666 c 256,108,109
378 154 m 256,148,149
 378 176 378 176 390.5 190.5 c 128,-1,150
 403 205 403 205 421 205 c 256,151,152
 439 205 439 205 451 190 c 128,-1,153
 463 175 463 175 463 154 c 0,154,155
 463 132 463 132 451 117 c 128,-1,156
 439 102 439 102 421 102 c 256,157,158
 403 102 403 102 390.5 117 c 128,-1,159
 378 132 378 132 378 154 c 256,148,149
378 563 m 256,160,161
 378 585 378 585 390.5 599.5 c 128,-1,162
 403 614 403 614 421 614 c 256,163,164
 439 614 439 614 451 599.5 c 128,-1,165
 463 585 463 585 463 563 c 256,166,167
 463 541 463 541 451 526.5 c 128,-1,168
 439 512 439 512 421 512 c 256,169,170
 403 512 403 512 390.5 526.5 c 128,-1,171
 378 541 378 541 378 563 c 256,160,161
EndSplineSet
EndChar

StartChar: D
Encoding: 68 68 17
Width: 500
Flags: W
LayerCount: 2
Fore
SplineSet
37 666 m 0,0,1
 37 688 37 688 49.5 702.5 c 128,-1,2
 62 717 62 717 79 717 c 128,-1,3
 96 717 96 717 108.5 703.5 c 128,-1,4
 121 690 121 690 123 670 c 1,5,6
 125 690 125 690 136 703.5 c 128,-1,7
 147 717 147 717 165 717 c 128,-1,8
 183 717 183 717 195 702 c 128,-1,9
 207 687 207 687 207 666 c 1,10,11
 207 688 207 688 220 702.5 c 128,-1,12
 233 717 233 717 250 717 c 0,13,14
 268 717 268 717 280 701 c 0,15,16
 291 688 291 688 293 670 c 1,17,18
 294 688 294 688 305 701 c 0,19,20
 317 716 317 716 336 717 c 0,21,22
 354 717 354 717 366 702 c 128,-1,23
 378 687 378 687 378 666 c 0,24,25
 378 644 378 644 365.5 629 c 128,-1,26
 353 614 353 614 336 614 c 128,-1,27
 319 614 319 614 307 628 c 0,28,29
 295 640 295 640 293 660 c 1,30,31
 291 640 291 640 279 628 c 0,32,33
 267 615 267 615 250 614 c 0,34,35
 233 614 233 614 221 628 c 0,36,37
 209 640 209 640 207 660 c 1,38,39
 205 640 205 640 194 628 c 0,40,41
 182 615 182 615 165 614 c 0,42,43
 148 614 148 614 136 628 c 0,44,45
 125 640 125 640 123 660 c 1,46,47
 121 641 121 641 109.5 628.5 c 128,-1,48
 98 616 98 616 84 614 c 1,49,50
 100 611 100 611 111 598 c 0,51,52
 123 584 123 584 123 563 c 0,53,54
 123 543 123 543 111.5 528.5 c 128,-1,55
 100 514 100 514 84 512 c 1,56,57
 100 509 100 509 111 496 c 0,58,59
 123 482 123 482 123 461 c 0,60,61
 123 441 123 441 111.5 426.5 c 128,-1,62
 100 412 100 412 84 410 c 1,63,64
 100 407 100 407 111 393 c 0,65,66
 123 379 123 379 123 358 c 0,67,68
 123 338 123 338 111.5 323.5 c 128,-1,69
 100 309 100 309 84 307 c 1,70,71
 100 304 100 304 111 291 c 0,72,73
 123 277 123 277 123 256 c 0,74,75
 123 236 123 236 111.5 221.5 c 128,-1,76
 100 207 100 207 84 205 c 1,77,78
 100 202 100 202 111 188 c 0,79,80
 123 174 123 174 123 154 c 128,-1,81
 123 134 123 134 111.5 119 c 128,-1,82
 100 104 100 104 84 102 c 1,83,84
 100 99 100 99 111 86 c 0,85,86
 121 73 121 73 123 55 c 1,87,88
 124 73 124 73 134 87 c 0,89,90
 146 102 146 102 165 102 c 256,91,92
 183 102 183 102 195 87.5 c 128,-1,93
 207 73 207 73 207 51 c 1,94,95
 207 73 207 73 220 87.5 c 128,-1,96
 233 102 233 102 250 102 c 0,97,98
 268 102 268 102 280 87 c 0,99,100
 291 74 291 74 293 55 c 1,101,102
 294 73 294 73 305 87 c 0,103,104
 317 102 317 102 336 102 c 256,105,106
 354 102 354 102 366 87.5 c 128,-1,107
 378 73 378 73 378 51 c 256,108,109
 378 29 378 29 365.5 14.5 c 128,-1,110
 353 0 353 0 336 0 c 128,-1,111
 319 0 319 0 307 13 c 0,112,113
 295 25 295 25 293 46 c 1,114,115
 291 26 291 26 279 13 c 128,-1,116
 267 0 267 0 250 0 c 128,-1,117
 233 0 233 0 221 13 c 0,118,119
 209 25 209 25 207 46 c 1,120,121
 205 26 205 26 194 13 c 0,122,123
 182 0 182 0 165 0 c 128,-1,124
 148 0 148 0 136 13 c 0,125,126
 125 25 125 25 123 46 c 1,127,128
 121 26 121 26 109 13 c 128,-1,129
 97 0 97 0 79 0 c 128,-1,130
 61 0 61 0 49 15 c 128,-1,131
 37 30 37 30 37 51 c 0,132,133
 37 71 37 71 48 86 c 0,134,135
 58 99 58 99 75 102 c 1,136,137
 58 104 58 104 48 119 c 0,138,139
 37 133 37 133 37 154 c 0,140,141
 37 174 37 174 48 188 c 0,142,143
 58 201 58 201 75 205 c 1,144,145
 58 207 58 207 48 221 c 0,146,147
 37 235 37 235 37 256 c 0,148,149
 37 276 37 276 48 291 c 0,150,151
 58 304 58 304 75 307 c 1,152,153
 58 309 58 309 48 324 c 0,154,155
 37 338 37 338 37 358 c 128,-1,156
 37 378 37 378 48 393 c 0,157,158
 58 406 58 406 75 410 c 1,159,160
 58 412 58 412 48 426 c 0,161,162
 37 440 37 440 37 461 c 0,163,164
 37 481 37 481 48 496 c 0,165,166
 58 509 58 509 75 512 c 1,167,168
 58 514 58 514 48 528 c 0,169,170
 37 542 37 542 37 563 c 0,171,172
 37 583 37 583 48 598 c 0,173,174
 58 611 58 611 75 614 c 1,175,176
 58 616 58 616 48 631 c 0,177,178
 37 646 37 646 37 666 c 0,0,1
378 256 m 256,179,180
 378 276 378 276 389 291 c 0,181,182
 399 304 399 304 417 307 c 1,183,184
 400 309 400 309 389 324 c 0,185,186
 378 338 378 338 378 358 c 256,187,188
 378 378 378 378 389 393 c 0,189,190
 399 406 399 406 417 410 c 1,191,192
 400 412 400 412 389 426 c 128,-1,193
 378 440 378 440 378 461 c 0,194,195
 378 481 378 481 389 496 c 0,196,197
 399 509 399 509 417 512 c 1,198,199
 400 514 400 514 389 528 c 128,-1,200
 378 542 378 542 378 563 c 0,201,202
 378 585 378 585 390.5 599.5 c 128,-1,203
 403 614 403 614 421 614 c 256,204,205
 439 614 439 614 451 599.5 c 128,-1,206
 463 585 463 585 463 563 c 0,207,208
 463 543 463 543 452.5 528.5 c 128,-1,209
 442 514 442 514 425 512 c 1,210,211
 441 509 441 509 453 496 c 0,212,213
 463 483 463 483 463 464 c 0,214,215
 463 441 463 441 452.5 426.5 c 128,-1,216
 442 412 442 412 425 410 c 1,217,218
 441 407 441 407 453 393 c 0,219,220
 463 380 463 380 463 361 c 0,221,222
 463 338 463 338 452.5 323.5 c 128,-1,223
 442 309 442 309 425 307 c 1,224,225
 441 304 441 304 453 291 c 0,226,227
 463 278 463 278 463 259 c 0,228,229
 463 236 463 236 452.5 221.5 c 128,-1,230
 442 207 442 207 425 205 c 1,231,232
 441 202 441 202 453 188 c 0,233,234
 463 175 463 175 463 157 c 0,235,236
 463 132 463 132 451 117 c 128,-1,237
 439 102 439 102 421 102 c 256,238,239
 403 102 403 102 390.5 117 c 128,-1,240
 378 132 378 132 378 154 c 0,241,242
 378 174 378 174 389 188 c 0,243,244
 399 201 399 201 417 205 c 1,245,246
 400 207 400 207 389 221 c 0,247,248
 378 236 378 236 378 256 c 256,179,180
EndSplineSet
EndChar

StartChar: E
Encoding: 69 69 18
Width: 500
Flags: W
LayerCount: 2
Fore
SplineSet
37 666 m 0,0,1
 37 688 37 688 49.5 702.5 c 128,-1,2
 62 717 62 717 79 717 c 128,-1,3
 96 717 96 717 108.5 703.5 c 128,-1,4
 121 690 121 690 123 670 c 1,5,6
 125 690 125 690 136 703.5 c 128,-1,7
 147 717 147 717 165 717 c 128,-1,8
 183 717 183 717 195 702 c 128,-1,9
 207 687 207 687 207 666 c 1,10,11
 207 688 207 688 220 702.5 c 128,-1,12
 233 717 233 717 250 717 c 0,13,14
 268 717 268 717 280 701 c 0,15,16
 291 688 291 688 293 670 c 1,17,18
 294 688 294 688 305 701 c 0,19,20
 317 716 317 716 336 717 c 0,21,22
 353 717 353 717 365 703.5 c 128,-1,23
 377 690 377 690 378 670 c 1,24,25
 380 690 380 690 392 703.5 c 128,-1,26
 404 717 404 717 421 717 c 0,27,28
 439 717 439 717 451 702 c 128,-1,29
 463 687 463 687 463 666 c 0,30,31
 463 644 463 644 451 629 c 128,-1,32
 439 614 439 614 421 614 c 0,33,34
 404 614 404 614 392 628 c 0,35,36
 380 640 380 640 378 660 c 1,37,38
 376 640 376 640 364 628 c 0,39,40
 352 615 352 615 336 614 c 0,41,42
 319 614 319 614 307 628 c 0,43,44
 295 640 295 640 293 660 c 1,45,46
 291 640 291 640 279 628 c 0,47,48
 267 615 267 615 250 614 c 0,49,50
 233 614 233 614 221 628 c 0,51,52
 209 640 209 640 207 660 c 1,53,54
 205 640 205 640 194 628 c 0,55,56
 182 615 182 615 165 614 c 0,57,58
 148 614 148 614 136 628 c 0,59,60
 125 640 125 640 123 660 c 1,61,62
 121 641 121 641 109.5 628.5 c 128,-1,63
 98 616 98 616 84 614 c 1,64,65
 100 611 100 611 111 598 c 0,66,67
 123 584 123 584 123 563 c 0,68,69
 123 543 123 543 111.5 528.5 c 128,-1,70
 100 514 100 514 84 512 c 1,71,72
 100 509 100 509 111 496 c 0,73,74
 123 482 123 482 123 461 c 0,75,76
 123 441 123 441 111.5 426.5 c 128,-1,77
 100 412 100 412 84 410 c 1,78,79
 100 407 100 407 111 393 c 0,80,81
 121 380 121 380 123 362 c 1,82,83
 124 380 124 380 134 394 c 0,84,85
 146 409 146 409 165 410 c 0,86,87
 182 410 182 410 194 396 c 0,88,89
 205 382 205 382 207 362 c 1,90,91
 209 382 209 382 221 396 c 128,-1,92
 233 410 233 410 250 410 c 0,93,94
 268 410 268 410 280.5 395 c 128,-1,95
 293 380 293 380 293 358 c 1,96,97
 293 380 293 380 305 395 c 128,-1,98
 317 410 317 410 336 410 c 256,99,100
 354 410 354 410 366 395 c 128,-1,101
 378 380 378 380 378 358 c 256,102,103
 378 336 378 336 365.5 321.5 c 128,-1,104
 353 307 353 307 336 307 c 128,-1,105
 319 307 319 307 307 321 c 0,106,107
 295 333 295 333 293 353 c 1,108,109
 291 333 291 333 279 321 c 0,110,111
 267 308 267 308 250 307 c 0,112,113
 233 307 233 307 221 321 c 0,114,115
 209 333 209 333 207 353 c 1,116,117
 205 333 205 333 194 321 c 0,118,119
 182 308 182 308 165 307 c 0,120,121
 148 307 148 307 136 321 c 0,122,123
 125 333 125 333 123 353 c 1,124,125
 121 334 121 334 109.5 321.5 c 128,-1,126
 98 309 98 309 84 307 c 1,127,128
 100 304 100 304 111 291 c 0,129,130
 123 277 123 277 123 256 c 0,131,132
 123 236 123 236 111.5 221.5 c 128,-1,133
 100 207 100 207 84 205 c 1,134,135
 100 202 100 202 111 188 c 0,136,137
 123 174 123 174 123 154 c 128,-1,138
 123 134 123 134 111.5 119 c 128,-1,139
 100 104 100 104 84 102 c 1,140,141
 98 98 98 98 109 86 c 0,142,143
 121 74 121 74 123 56 c 1,144,145
 125 75 125 75 136 88.5 c 128,-1,146
 147 102 147 102 165 102 c 0,147,148
 182 102 182 102 194 89 c 0,149,150
 205 76 205 76 207 56 c 1,151,152
 209 75 209 75 221 88.5 c 128,-1,153
 233 102 233 102 250 102 c 256,154,155
 267 102 267 102 279 89 c 128,-1,156
 291 76 291 76 293 55 c 1,157,158
 295 75 295 75 306.5 88.5 c 128,-1,159
 318 102 318 102 336 102 c 0,160,161
 353 102 353 102 365 89 c 128,-1,162
 377 76 377 76 378 55 c 1,163,164
 380 75 380 75 392 88.5 c 128,-1,165
 404 102 404 102 421 102 c 0,166,167
 439 102 439 102 451 87.5 c 128,-1,168
 463 73 463 73 463 51 c 256,169,170
 463 29 463 29 451 14.5 c 128,-1,171
 439 0 439 0 421 0 c 0,172,173
 404 0 404 0 392 13 c 0,174,175
 380 25 380 25 378 46 c 1,176,177
 376 26 376 26 364.5 13 c 128,-1,178
 353 0 353 0 336 0 c 256,179,180
 319 0 319 0 307 13 c 0,181,182
 295 25 295 25 293 46 c 1,183,184
 291 26 291 26 279 13 c 128,-1,185
 267 0 267 0 250 0 c 128,-1,186
 233 0 233 0 221 13 c 0,187,188
 209 25 209 25 207 46 c 1,189,190
 205 26 205 26 194 13 c 0,191,192
 182 0 182 0 165 0 c 128,-1,193
 148 0 148 0 136 13 c 0,194,195
 125 25 125 25 123 46 c 1,196,197
 121 26 121 26 109 13 c 128,-1,198
 97 0 97 0 79 0 c 128,-1,199
 61 0 61 0 49 15 c 128,-1,200
 37 30 37 30 37 51 c 0,201,202
 37 71 37 71 48 86 c 0,203,204
 58 99 58 99 75 102 c 1,205,206
 58 104 58 104 48 119 c 0,207,208
 37 133 37 133 37 154 c 0,209,210
 37 174 37 174 48 188 c 0,211,212
 58 201 58 201 75 205 c 1,213,214
 58 207 58 207 48 221 c 0,215,216
 37 235 37 235 37 256 c 0,217,218
 37 276 37 276 48 291 c 0,219,220
 58 304 58 304 75 307 c 1,221,222
 58 309 58 309 48 324 c 0,223,224
 37 338 37 338 37 358 c 128,-1,225
 37 378 37 378 48 393 c 0,226,227
 58 406 58 406 75 410 c 1,228,229
 58 412 58 412 48 426 c 0,230,231
 37 440 37 440 37 461 c 0,232,233
 37 481 37 481 48 496 c 0,234,235
 58 509 58 509 75 512 c 1,236,237
 58 514 58 514 48 528 c 0,238,239
 37 542 37 542 37 563 c 0,240,241
 37 583 37 583 48 598 c 0,242,243
 58 611 58 611 75 614 c 1,244,245
 58 616 58 616 48 631 c 0,246,247
 37 646 37 646 37 666 c 0,0,1
EndSplineSet
EndChar

StartChar: F
Encoding: 70 70 19
Width: 500
Flags: W
LayerCount: 2
Fore
SplineSet
37 666 m 0,0,1
 37 688 37 688 49.5 702.5 c 128,-1,2
 62 717 62 717 79 717 c 0,3,4
 97 717 97 717 110 702 c 128,-1,5
 123 687 123 687 123 666 c 1,6,7
 123 688 123 688 135 702.5 c 128,-1,8
 147 717 147 717 165 717 c 0,9,10
 166 717 166 717 167 717 c 0,11,12
 183 717 183 717 194 704 c 0,13,14
 205 690 205 690 207 670 c 1,15,16
 209 690 209 690 221 703.5 c 128,-1,17
 233 717 233 717 250 717 c 256,18,19
 267 717 267 717 279 703.5 c 128,-1,20
 291 690 291 690 293 670 c 1,21,22
 295 690 295 690 306.5 703.5 c 128,-1,23
 318 717 318 717 336 717 c 0,24,25
 353 717 353 717 364 703 c 0,26,27
 375 690 375 690 378 671 c 1,28,29
 380 690 380 690 392 703.5 c 128,-1,30
 404 717 404 717 421 717 c 0,31,32
 439 717 439 717 451 702 c 128,-1,33
 463 687 463 687 463 666 c 0,34,35
 463 644 463 644 451 629 c 128,-1,36
 439 614 439 614 421 614 c 0,37,38
 404 614 404 614 392 628 c 0,39,40
 380 640 380 640 378 660 c 1,41,42
 376 640 376 640 364 628 c 0,43,44
 352 615 352 615 336 614 c 0,45,46
 319 614 319 614 307 628 c 0,47,48
 295 640 295 640 293 660 c 1,49,50
 291 640 291 640 279 628 c 0,51,52
 267 615 267 615 250 614 c 0,53,54
 233 614 233 614 221 628 c 0,55,56
 209 640 209 640 207 660 c 1,57,58
 205 640 205 640 194 628 c 0,59,60
 182 615 182 615 165 614 c 0,61,62
 148 614 148 614 136 628 c 0,63,64
 125 640 125 640 123 660 c 1,65,66
 121 641 121 641 109.5 628.5 c 128,-1,67
 98 616 98 616 84 614 c 1,68,69
 100 611 100 611 111 598 c 0,70,71
 123 584 123 584 123 563 c 0,72,73
 123 543 123 543 111.5 528.5 c 128,-1,74
 100 514 100 514 84 512 c 1,75,76
 100 509 100 509 111 496 c 0,77,78
 123 482 123 482 123 461 c 0,79,80
 123 441 123 441 111.5 426.5 c 128,-1,81
 100 412 100 412 84 410 c 1,82,83
 100 407 100 407 111 393 c 0,84,85
 123 379 123 379 123 358 c 1,86,87
 123 380 123 380 135 395 c 128,-1,88
 147 410 147 410 165 410 c 0,89,90
 182 410 182 410 194 396 c 0,91,92
 205 383 205 383 207 364 c 1,93,94
 209 383 209 383 221 396.5 c 128,-1,95
 233 410 233 410 250 410 c 256,96,97
 267 410 267 410 279 396 c 0,98,99
 291 383 291 383 293 364 c 1,100,101
 295 383 295 383 306.5 396.5 c 128,-1,102
 318 410 318 410 336 410 c 128,-1,103
 354 410 354 410 366 395 c 128,-1,104
 378 380 378 380 378 358 c 256,105,106
 378 336 378 336 365.5 321.5 c 128,-1,107
 353 307 353 307 336 307 c 128,-1,108
 319 307 319 307 307 321 c 0,109,110
 295 333 295 333 293 353 c 1,111,112
 291 333 291 333 279 321 c 0,113,114
 267 308 267 308 250 307 c 0,115,116
 233 307 233 307 221 321 c 0,117,118
 209 333 209 333 207 353 c 1,119,120
 205 333 205 333 194 321 c 0,121,122
 182 308 182 308 165 307 c 0,123,124
 148 307 148 307 136 321 c 0,125,126
 125 333 125 333 123 353 c 1,127,128
 121 334 121 334 109.5 321.5 c 128,-1,129
 98 309 98 309 84 307 c 1,130,131
 100 304 100 304 111 291 c 0,132,133
 123 277 123 277 123 256 c 0,134,135
 123 236 123 236 111.5 221.5 c 128,-1,136
 100 207 100 207 84 205 c 1,137,138
 100 202 100 202 111 188 c 0,139,140
 123 174 123 174 123 154 c 128,-1,141
 123 134 123 134 111.5 119 c 128,-1,142
 100 104 100 104 84 102 c 1,143,144
 100 99 100 99 111 86 c 0,145,146
 123 72 123 72 123 51 c 0,147,148
 123 29 123 29 110 14.5 c 128,-1,149
 97 0 97 0 79 0 c 256,150,151
 61 0 61 0 49 15 c 128,-1,152
 37 30 37 30 37 51 c 0,153,154
 37 71 37 71 48 86 c 0,155,156
 58 99 58 99 75 102 c 1,157,158
 58 104 58 104 48 119 c 0,159,160
 37 133 37 133 37 154 c 0,161,162
 37 174 37 174 48 188 c 0,163,164
 58 201 58 201 75 205 c 1,165,166
 58 207 58 207 48 221 c 0,167,168
 37 235 37 235 37 256 c 0,169,170
 37 276 37 276 48 291 c 0,171,172
 58 304 58 304 75 307 c 1,173,174
 58 309 58 309 48 324 c 0,175,176
 37 338 37 338 37 358 c 128,-1,177
 37 378 37 378 48 393 c 0,178,179
 58 406 58 406 75 410 c 1,180,181
 58 412 58 412 48 426 c 0,182,183
 37 440 37 440 37 461 c 0,184,185
 37 481 37 481 48 496 c 0,186,187
 58 509 58 509 75 512 c 1,188,189
 58 514 58 514 48 528 c 0,190,191
 37 542 37 542 37 563 c 0,192,193
 37 583 37 583 48 598 c 0,194,195
 58 611 58 611 75 614 c 1,196,197
 58 616 58 616 48 631 c 0,198,199
 37 646 37 646 37 666 c 0,0,1
EndSplineSet
EndChar

StartChar: G
Encoding: 71 71 20
Width: 500
Flags: W
LayerCount: 2
Fore
SplineSet
378 256 m 256,0,1
 378 276 378 276 389 291 c 0,2,3
 399 304 399 304 417 307 c 1,4,5
 401 309 401 309 390.5 321.5 c 128,-1,6
 380 334 380 334 378 353 c 1,7,8
 376 333 376 333 364 321 c 0,9,10
 352 308 352 308 336 307 c 0,11,12
 319 307 319 307 307 321 c 0,13,14
 295 333 295 333 293 353 c 1,15,16
 291 333 291 333 279 321 c 0,17,18
 267 308 267 308 250 307 c 0,19,20
 232 307 232 307 219.5 322 c 128,-1,21
 207 337 207 337 207 358 c 0,22,23
 207 380 207 380 220 395 c 128,-1,24
 233 410 233 410 250 410 c 0,25,26
 268 410 268 410 280 394 c 0,27,28
 291 381 291 381 293 362 c 1,29,30
 294 380 294 380 305 394 c 0,31,32
 317 409 317 409 336 410 c 0,33,34
 354 410 354 410 366 395 c 128,-1,35
 378 380 378 380 378 358 c 1,36,37
 378 380 378 380 390.5 395 c 128,-1,38
 403 410 403 410 421 410 c 256,39,40
 439 410 439 410 451 395 c 128,-1,41
 463 380 463 380 463 358 c 0,42,43
 463 338 463 338 452.5 323.5 c 128,-1,44
 442 309 442 309 425 307 c 1,45,46
 441 304 441 304 453 291 c 0,47,48
 463 278 463 278 463 259 c 0,49,50
 463 236 463 236 452.5 221.5 c 128,-1,51
 442 207 442 207 425 205 c 1,52,53
 441 202 441 202 453 188 c 0,54,55
 463 175 463 175 463 157 c 0,56,57
 463 134 463 134 452.5 119 c 128,-1,58
 442 104 442 104 425 102 c 1,59,60
 441 99 441 99 453 86 c 0,61,62
 463 73 463 73 463 54 c 0,63,64
 463 29 463 29 451 14.5 c 128,-1,65
 439 0 439 0 421 0 c 0,66,67
 404 0 404 0 392 13 c 0,68,69
 380 25 380 25 378 46 c 1,70,71
 376 26 376 26 364.5 13 c 128,-1,72
 353 0 353 0 336 0 c 256,73,74
 319 0 319 0 307 13 c 0,75,76
 295 25 295 25 293 46 c 1,77,78
 291 26 291 26 279 13 c 128,-1,79
 267 0 267 0 250 0 c 128,-1,80
 233 0 233 0 221 13 c 0,81,82
 209 25 209 25 207 46 c 1,83,84
 205 26 205 26 194 13 c 0,85,86
 182 0 182 0 165 0 c 0,87,88
 147 0 147 0 135 15 c 128,-1,89
 123 30 123 30 123 51 c 0,90,91
 123 73 123 73 135 87.5 c 128,-1,92
 147 102 147 102 165 102 c 256,93,94
 183 102 183 102 195 87 c 0,95,96
 205 74 205 74 207 55 c 1,97,98
 208 73 208 73 219 87 c 0,99,100
 231 102 231 102 250 102 c 0,101,102
 267 102 267 102 279 89 c 128,-1,103
 291 76 291 76 293 56 c 1,104,105
 295 75 295 75 306.5 88.5 c 128,-1,106
 318 102 318 102 336 102 c 128,-1,107
 354 102 354 102 366 87.5 c 128,-1,108
 378 73 378 73 378 51 c 1,109,110
 378 71 378 71 389 86 c 0,111,112
 399 99 399 99 417 102 c 1,113,114
 400 104 400 104 389 119 c 0,115,116
 378 133 378 133 378 154 c 0,117,118
 378 174 378 174 389 188 c 0,119,120
 399 201 399 201 417 205 c 1,121,122
 400 207 400 207 389 221 c 0,123,124
 378 236 378 236 378 256 c 256,0,1
37 256 m 256,125,126
 37 276 37 276 48 291 c 0,127,128
 58 304 58 304 75 307 c 1,129,130
 58 309 58 309 48 324 c 0,131,132
 37 338 37 338 37 358 c 128,-1,133
 37 378 37 378 48 393 c 0,134,135
 58 406 58 406 75 410 c 1,136,137
 58 412 58 412 48 426 c 0,138,139
 37 440 37 440 37 461 c 0,140,141
 37 481 37 481 48 496 c 0,142,143
 58 509 58 509 75 512 c 1,144,145
 58 514 58 514 48 528 c 0,146,147
 37 542 37 542 37 563 c 0,148,149
 37 585 37 585 49.5 599.5 c 128,-1,150
 62 614 62 614 79 614 c 0,151,152
 97 614 97 614 110 599.5 c 128,-1,153
 123 585 123 585 123 563 c 0,154,155
 123 543 123 543 111.5 528.5 c 128,-1,156
 100 514 100 514 84 512 c 1,157,158
 100 509 100 509 111 496 c 0,159,160
 123 482 123 482 123 461 c 0,161,162
 123 441 123 441 111.5 426.5 c 128,-1,163
 100 412 100 412 84 410 c 1,164,165
 100 407 100 407 111 393 c 0,166,167
 123 379 123 379 123 358 c 0,168,169
 123 338 123 338 111.5 323.5 c 128,-1,170
 100 309 100 309 84 307 c 1,171,172
 100 304 100 304 111 291 c 0,173,174
 123 277 123 277 123 256 c 0,175,176
 123 236 123 236 111.5 221.5 c 128,-1,177
 100 207 100 207 84 205 c 1,178,179
 100 202 100 202 111 188 c 0,180,181
 123 174 123 174 123 154 c 0,182,183
 123 132 123 132 110 117 c 128,-1,184
 97 102 97 102 79 102 c 256,185,186
 61 102 61 102 49 117 c 128,-1,187
 37 132 37 132 37 154 c 0,188,189
 37 174 37 174 48 188 c 0,190,191
 58 201 58 201 75 205 c 1,192,193
 58 207 58 207 48 221 c 0,194,195
 37 236 37 236 37 256 c 256,125,126
123 666 m 256,196,197
 123 688 123 688 135 702.5 c 128,-1,198
 147 717 147 717 165 717 c 0,199,200
 166 717 166 717 167 717 c 0,201,202
 183 717 183 717 194 704 c 0,203,204
 205 690 205 690 207 670 c 1,205,206
 209 690 209 690 221 703.5 c 128,-1,207
 233 717 233 717 250 717 c 256,208,209
 267 717 267 717 279 703 c 0,210,211
 291 690 291 690 293 671 c 1,212,213
 295 690 295 690 306.5 703.5 c 128,-1,214
 318 717 318 717 336 717 c 128,-1,215
 354 717 354 717 366 702 c 128,-1,216
 378 687 378 687 378 666 c 0,217,218
 378 644 378 644 365.5 629 c 128,-1,219
 353 614 353 614 336 614 c 128,-1,220
 319 614 319 614 307 628 c 0,221,222
 295 640 295 640 293 660 c 1,223,224
 291 640 291 640 279 628 c 0,225,226
 267 615 267 615 250 614 c 0,227,228
 233 614 233 614 221 628 c 0,229,230
 209 640 209 640 207 660 c 1,231,232
 205 640 205 640 194 628 c 0,233,234
 182 615 182 615 165 614 c 0,235,236
 147 614 147 614 135 629 c 128,-1,237
 123 644 123 644 123 666 c 256,196,197
378 563 m 256,238,239
 378 585 378 585 390.5 599.5 c 128,-1,240
 403 614 403 614 421 614 c 256,241,242
 439 614 439 614 451 599.5 c 128,-1,243
 463 585 463 585 463 563 c 256,244,245
 463 541 463 541 451 526.5 c 128,-1,246
 439 512 439 512 421 512 c 256,247,248
 403 512 403 512 390.5 526.5 c 128,-1,249
 378 541 378 541 378 563 c 256,238,239
EndSplineSet
EndChar

StartChar: H
Encoding: 72 72 21
Width: 500
Flags: W
LayerCount: 2
Fore
SplineSet
378 256 m 256,0,1
 378 276 378 276 389 291 c 0,2,3
 399 304 399 304 417 307 c 1,4,5
 401 309 401 309 390.5 321.5 c 128,-1,6
 380 334 380 334 378 353 c 1,7,8
 376 333 376 333 364 321 c 0,9,10
 352 308 352 308 336 307 c 0,11,12
 319 307 319 307 307 321 c 0,13,14
 295 333 295 333 293 353 c 1,15,16
 291 333 291 333 279 321 c 0,17,18
 267 308 267 308 250 307 c 0,19,20
 233 307 233 307 221 321 c 0,21,22
 209 333 209 333 207 353 c 1,23,24
 205 333 205 333 194 321 c 0,25,26
 182 308 182 308 165 307 c 0,27,28
 148 307 148 307 136 321 c 0,29,30
 125 333 125 333 123 353 c 1,31,32
 121 334 121 334 109.5 321.5 c 128,-1,33
 98 309 98 309 84 307 c 1,34,35
 100 304 100 304 111 291 c 0,36,37
 123 277 123 277 123 256 c 0,38,39
 123 236 123 236 111.5 221.5 c 128,-1,40
 100 207 100 207 84 205 c 1,41,42
 100 202 100 202 111 188 c 0,43,44
 123 174 123 174 123 154 c 128,-1,45
 123 134 123 134 111.5 119 c 128,-1,46
 100 104 100 104 84 102 c 1,47,48
 100 99 100 99 111 86 c 0,49,50
 123 72 123 72 123 51 c 0,51,52
 123 29 123 29 110 14.5 c 128,-1,53
 97 0 97 0 79 0 c 256,54,55
 61 0 61 0 49 15 c 128,-1,56
 37 30 37 30 37 51 c 0,57,58
 37 71 37 71 48 86 c 0,59,60
 58 99 58 99 75 102 c 1,61,62
 58 104 58 104 48 119 c 0,63,64
 37 133 37 133 37 154 c 0,65,66
 37 174 37 174 48 188 c 0,67,68
 58 201 58 201 75 205 c 1,69,70
 58 207 58 207 48 221 c 0,71,72
 37 235 37 235 37 256 c 0,73,74
 37 276 37 276 48 291 c 0,75,76
 58 304 58 304 75 307 c 1,77,78
 58 309 58 309 48 324 c 0,79,80
 37 338 37 338 37 358 c 128,-1,81
 37 378 37 378 48 393 c 0,82,83
 58 406 58 406 75 410 c 1,84,85
 58 412 58 412 48 426 c 0,86,87
 37 440 37 440 37 461 c 0,88,89
 37 481 37 481 48 496 c 0,90,91
 58 509 58 509 75 512 c 1,92,93
 58 514 58 514 48 528 c 0,94,95
 37 542 37 542 37 563 c 0,96,97
 37 583 37 583 48 598 c 0,98,99
 58 611 58 611 75 614 c 1,100,101
 58 616 58 616 48 631 c 0,102,103
 37 645 37 645 37 666 c 0,104,105
 37 688 37 688 49.5 702.5 c 128,-1,106
 62 717 62 717 79 717 c 0,107,108
 97 717 97 717 110 702 c 128,-1,109
 123 687 123 687 123 666 c 0,110,111
 123 646 123 646 111.5 631 c 128,-1,112
 100 616 100 616 84 614 c 1,113,114
 100 611 100 611 111 598 c 0,115,116
 123 584 123 584 123 563 c 0,117,118
 123 543 123 543 111.5 528.5 c 128,-1,119
 100 514 100 514 84 512 c 1,120,121
 100 509 100 509 111 496 c 0,122,123
 123 482 123 482 123 461 c 0,124,125
 123 441 123 441 111.5 426.5 c 128,-1,126
 100 412 100 412 84 410 c 1,127,128
 100 407 100 407 111 393 c 0,129,130
 123 379 123 379 123 358 c 1,131,132
 123 380 123 380 135 395 c 128,-1,133
 147 410 147 410 165 410 c 0,134,135
 182 410 182 410 194 396 c 0,136,137
 205 382 205 382 207 362 c 1,138,139
 209 382 209 382 221 396 c 128,-1,140
 233 410 233 410 250 410 c 0,141,142
 268 410 268 410 280.5 395 c 128,-1,143
 293 380 293 380 293 358 c 1,144,145
 293 380 293 380 305 395 c 128,-1,146
 317 410 317 410 336 410 c 256,147,148
 354 410 354 410 366 395 c 128,-1,149
 378 380 378 380 378 358 c 1,150,151
 378 378 378 378 389 393 c 0,152,153
 399 406 399 406 417 410 c 1,154,155
 400 412 400 412 389 426 c 128,-1,156
 378 440 378 440 378 461 c 0,157,158
 378 481 378 481 389 496 c 0,159,160
 399 509 399 509 417 512 c 1,161,162
 400 514 400 514 389 528 c 128,-1,163
 378 542 378 542 378 563 c 0,164,165
 378 583 378 583 389 598 c 0,166,167
 399 611 399 611 417 614 c 1,168,169
 400 616 400 616 389 631 c 0,170,171
 378 645 378 645 378 666 c 0,172,173
 378 688 378 688 390.5 702.5 c 128,-1,174
 403 717 403 717 421 717 c 256,175,176
 439 717 439 717 451 702 c 128,-1,177
 463 687 463 687 463 666 c 0,178,179
 463 646 463 646 452.5 631 c 128,-1,180
 442 616 442 616 425 614 c 1,181,182
 441 611 441 611 453 598 c 0,183,184
 463 585 463 585 463 566 c 0,185,186
 463 543 463 543 452.5 528.5 c 128,-1,187
 442 514 442 514 425 512 c 1,188,189
 441 509 441 509 453 496 c 0,190,191
 463 483 463 483 463 464 c 0,192,193
 463 441 463 441 452.5 426.5 c 128,-1,194
 442 412 442 412 425 410 c 1,195,196
 441 407 441 407 453 393 c 0,197,198
 463 380 463 380 463 361 c 0,199,200
 463 338 463 338 452.5 323.5 c 128,-1,201
 442 309 442 309 425 307 c 1,202,203
 441 304 441 304 453 291 c 0,204,205
 463 278 463 278 463 259 c 0,206,207
 463 236 463 236 452.5 221.5 c 128,-1,208
 442 207 442 207 425 205 c 1,209,210
 441 202 441 202 453 188 c 0,211,212
 463 175 463 175 463 157 c 0,213,214
 463 134 463 134 452.5 119 c 128,-1,215
 442 104 442 104 425 102 c 1,216,217
 441 99 441 99 453 86 c 0,218,219
 463 73 463 73 463 54 c 0,220,221
 463 29 463 29 451 14.5 c 128,-1,222
 439 0 439 0 421 0 c 256,223,224
 403 0 403 0 390.5 15 c 128,-1,225
 378 30 378 30 378 51 c 0,226,227
 378 71 378 71 389 86 c 0,228,229
 399 99 399 99 417 102 c 1,230,231
 400 104 400 104 389 119 c 0,232,233
 378 133 378 133 378 154 c 0,234,235
 378 174 378 174 389 188 c 0,236,237
 399 201 399 201 417 205 c 1,238,239
 400 207 400 207 389 221 c 0,240,241
 378 236 378 236 378 256 c 256,0,1
EndSplineSet
EndChar

StartChar: I
Encoding: 73 73 22
Width: 500
Flags: W
LayerCount: 2
Fore
SplineSet
208 563 m 256,0,1
 208 583 208 583 218 598 c 0,2,3
 228 611 228 611 246 614 c 1,4,5
 230 616 230 616 219 628.5 c 128,-1,6
 208 641 208 641 208 660 c 1,7,8
 206 640 206 640 194 628 c 0,9,10
 182 615 182 615 164 614 c 0,11,12
 146 614 146 614 134 629 c 128,-1,13
 122 644 122 644 122 666 c 256,14,15
 122 688 122 688 134 702.5 c 128,-1,16
 146 717 146 717 164 717 c 256,17,18
 182 717 182 717 195 702 c 128,-1,19
 208 687 208 687 208 666 c 1,20,21
 208 688 208 688 220 702.5 c 128,-1,22
 232 717 232 717 249 717 c 128,-1,23
 266 717 266 717 278 703 c 0,24,25
 288 690 288 690 292 671 c 1,26,27
 294 690 294 690 306 703.5 c 128,-1,28
 318 717 318 717 336 717 c 128,-1,29
 354 717 354 717 366 702 c 128,-1,30
 378 687 378 687 378 666 c 0,31,32
 378 644 378 644 365 629 c 128,-1,33
 352 614 352 614 335 614 c 128,-1,34
 318 614 318 614 306 628 c 0,35,36
 294 640 294 640 292 660 c 1,37,38
 290 641 290 641 279 628.5 c 128,-1,39
 268 616 268 616 254 614 c 1,40,41
 270 611 270 611 282 598 c 0,42,43
 292 584 292 584 292 563 c 0,44,45
 292 543 292 543 281 528.5 c 128,-1,46
 270 514 270 514 254 512 c 1,47,48
 270 509 270 509 282 496 c 0,49,50
 292 482 292 482 292 461 c 0,51,52
 292 441 292 441 281 426.5 c 128,-1,53
 270 412 270 412 254 410 c 1,54,55
 270 407 270 407 282 393 c 0,56,57
 292 379 292 379 292 358 c 0,58,59
 292 338 292 338 281 323.5 c 128,-1,60
 270 309 270 309 254 307 c 1,61,62
 270 304 270 304 282 291 c 0,63,64
 292 277 292 277 292 256 c 0,65,66
 292 236 292 236 281 221.5 c 128,-1,67
 270 207 270 207 254 205 c 1,68,69
 270 202 270 202 282 188 c 0,70,71
 292 174 292 174 292 154 c 256,72,73
 292 134 292 134 281 119 c 128,-1,74
 270 104 270 104 254 102 c 1,75,76
 268 99 268 99 280 87 c 0,77,78
 290 74 290 74 292 55 c 1,79,80
 294 75 294 75 306 88.5 c 128,-1,81
 318 102 318 102 336 102 c 128,-1,82
 354 102 354 102 366 87.5 c 128,-1,83
 378 73 378 73 378 51 c 256,84,85
 378 29 378 29 365 14.5 c 128,-1,86
 352 0 352 0 335 0 c 128,-1,87
 318 0 318 0 306 13 c 0,88,89
 294 25 294 25 292 46 c 1,90,91
 290 26 290 26 278 13 c 128,-1,92
 266 0 266 0 249 0 c 128,-1,93
 232 0 232 0 220 13 c 0,94,95
 208 25 208 25 208 46 c 1,96,97
 206 26 206 26 194 13 c 128,-1,98
 182 0 182 0 164 0 c 0,99,100
 146 0 146 0 134 15 c 128,-1,101
 122 30 122 30 122 51 c 0,102,103
 122 73 122 73 134 87.5 c 128,-1,104
 146 102 146 102 164 102 c 0,105,106
 181 102 181 102 193.5 89 c 128,-1,107
 206 76 206 76 208 55 c 1,108,109
 210 73 210 73 218 87 c 0,110,111
 228 99 228 99 246 102 c 1,112,113
 230 104 230 104 218 119 c 0,114,115
 208 133 208 133 208 154 c 0,116,117
 208 174 208 174 218 188 c 0,118,119
 228 201 228 201 246 205 c 1,120,121
 229 207 229 207 218.5 221 c 128,-1,122
 208 235 208 235 208 256 c 0,123,124
 208 276 208 276 218 291 c 0,125,126
 228 304 228 304 246 307 c 1,127,128
 230 309 230 309 218 324 c 0,129,130
 208 338 208 338 208 358 c 256,131,132
 208 378 208 378 218 393 c 0,133,134
 228 406 228 406 246 410 c 1,135,136
 229 412 229 412 218.5 426 c 128,-1,137
 208 440 208 440 208 461 c 0,138,139
 208 481 208 481 218 496 c 0,140,141
 228 509 228 509 246 512 c 1,142,143
 230 514 230 514 218 528 c 0,144,145
 208 543 208 543 208 563 c 256,0,1
EndSplineSet
EndChar

StartChar: J
Encoding: 74 74 23
Width: 500
Flags: W
LayerCount: 2
Fore
SplineSet
293 563 m 256,0,1
 293 583 293 583 304 598 c 0,2,3
 314 611 314 611 331 614 c 1,4,5
 314 616 314 616 304 628 c 0,6,7
 294 640 294 640 293 660 c 1,8,9
 291 640 291 640 279 628 c 0,10,11
 267 615 267 615 250 614 c 0,12,13
 232 614 232 614 219.5 629 c 128,-1,14
 207 644 207 644 207 666 c 256,15,16
 207 688 207 688 220 702.5 c 128,-1,17
 233 717 233 717 250 717 c 128,-1,18
 267 717 267 717 279 703 c 0,19,20
 291 690 291 690 293 671 c 1,21,22
 295 690 295 690 306.5 703.5 c 128,-1,23
 318 717 318 717 336 717 c 128,-1,24
 354 717 354 717 366 702 c 128,-1,25
 378 687 378 687 378 666 c 1,26,27
 378 688 378 688 390.5 702.5 c 128,-1,28
 403 717 403 717 421 717 c 256,29,30
 439 717 439 717 451 702 c 128,-1,31
 463 687 463 687 463 666 c 0,32,33
 463 644 463 644 451 629 c 128,-1,34
 439 614 439 614 421 614 c 0,35,36
 404 614 404 614 392 628 c 0,37,38
 380 640 380 640 378 660 c 1,39,40
 376 641 376 641 365 628.5 c 128,-1,41
 354 616 354 616 340 614 c 1,42,43
 356 611 356 611 367 598 c 0,44,45
 378 584 378 584 378 563 c 0,46,47
 378 543 378 543 367 528.5 c 128,-1,48
 356 514 356 514 340 512 c 1,49,50
 356 509 356 509 367 496 c 0,51,52
 378 482 378 482 378 461 c 0,53,54
 378 441 378 441 367 426.5 c 128,-1,55
 356 412 356 412 340 410 c 1,56,57
 356 407 356 407 366.5 393 c 128,-1,58
 377 379 377 379 378 358 c 0,59,60
 378 338 378 338 367 323.5 c 128,-1,61
 356 309 356 309 340 307 c 1,62,63
 356 304 356 304 367 291 c 0,64,65
 378 277 378 277 378 256 c 0,66,67
 378 236 378 236 367 221.5 c 128,-1,68
 356 207 356 207 340 205 c 1,69,70
 356 202 356 202 366.5 188 c 128,-1,71
 377 174 377 174 378 154 c 0,72,73
 378 132 378 132 365.5 117 c 128,-1,74
 353 102 353 102 336 102 c 0,75,76
 318 102 318 102 305.5 117 c 128,-1,77
 293 132 293 132 293 154 c 0,78,79
 293 174 293 174 304 188 c 0,80,81
 314 201 314 201 331 205 c 1,82,83
 314 207 314 207 304 221 c 0,84,85
 293 235 293 235 293 256 c 0,86,87
 293 276 293 276 304 291 c 0,88,89
 314 304 314 304 331 307 c 1,90,91
 314 309 314 309 304 324 c 0,92,93
 293 338 293 338 293 358 c 128,-1,94
 293 378 293 378 304 393 c 0,95,96
 314 406 314 406 331 410 c 1,97,98
 314 412 314 412 304 426 c 0,99,100
 293 440 293 440 293 461 c 0,101,102
 293 481 293 481 304 496 c 0,103,104
 314 509 314 509 331 512 c 1,105,106
 314 514 314 514 304 528 c 0,107,108
 293 543 293 543 293 563 c 256,0,1
123 51 m 256,109,110
 123 73 123 73 135 87.5 c 128,-1,111
 147 102 147 102 165 102 c 256,112,113
 183 102 183 102 195 87 c 0,114,115
 205 74 205 74 207 55 c 1,116,117
 208 73 208 73 219 87 c 0,118,119
 231 102 231 102 250 102 c 256,120,121
 268 102 268 102 280.5 87.5 c 128,-1,122
 293 73 293 73 293 51 c 256,123,124
 293 29 293 29 280.5 14.5 c 128,-1,125
 268 0 268 0 250 0 c 0,126,127
 233 0 233 0 221 13 c 0,128,129
 209 25 209 25 207 46 c 1,130,131
 205 26 205 26 194 13 c 0,132,133
 182 0 182 0 165 0 c 0,134,135
 147 0 147 0 135 14.5 c 128,-1,136
 123 29 123 29 123 51 c 256,109,110
37 154 m 256,137,138
 37 176 37 176 49.5 190.5 c 128,-1,139
 62 205 62 205 79 205 c 0,140,141
 97 205 97 205 110 190 c 128,-1,142
 123 175 123 175 123 154 c 0,143,144
 123 132 123 132 110 117 c 128,-1,145
 97 102 97 102 79 102 c 256,146,147
 61 102 61 102 49 117 c 128,-1,148
 37 132 37 132 37 154 c 256,137,138
EndSplineSet
EndChar

StartChar: K
Encoding: 75 75 24
Width: 500
Flags: W
LayerCount: 2
Fore
SplineSet
37 563 m 256,0,1
 37 583 37 583 48 598 c 0,2,3
 58 611 58 611 75 614 c 1,4,5
 58 616 58 616 48 631 c 0,6,7
 37 645 37 645 37 666 c 0,8,9
 37 688 37 688 49.5 702.5 c 128,-1,10
 62 717 62 717 79 717 c 0,11,12
 97 717 97 717 110 702 c 128,-1,13
 123 687 123 687 123 666 c 0,14,15
 123 646 123 646 111.5 631 c 128,-1,16
 100 616 100 616 84 614 c 1,17,18
 100 611 100 611 111 598 c 0,19,20
 123 584 123 584 123 563 c 0,21,22
 123 543 123 543 111.5 528.5 c 128,-1,23
 100 514 100 514 84 512 c 1,24,25
 100 509 100 509 111 496 c 0,26,27
 123 482 123 482 123 461 c 0,28,29
 123 441 123 441 111.5 426.5 c 128,-1,30
 100 412 100 412 84 410 c 1,31,32
 98 407 98 407 109 394 c 0,33,34
 121 381 121 381 123 364 c 1,35,36
 125 383 125 383 136 396.5 c 128,-1,37
 147 410 147 410 165 410 c 128,-1,38
 183 410 183 410 195 395 c 128,-1,39
 207 380 207 380 207 358 c 256,40,41
 207 336 207 336 195 321.5 c 128,-1,42
 183 307 183 307 165 307 c 0,43,44
 148 307 148 307 136 321 c 0,45,46
 125 333 125 333 123 353 c 1,47,48
 121 334 121 334 109.5 321.5 c 128,-1,49
 98 309 98 309 84 307 c 1,50,51
 100 304 100 304 111 291 c 0,52,53
 123 277 123 277 123 256 c 0,54,55
 123 236 123 236 111.5 221.5 c 128,-1,56
 100 207 100 207 84 205 c 1,57,58
 100 202 100 202 111 188 c 0,59,60
 123 174 123 174 123 154 c 128,-1,61
 123 134 123 134 111.5 119 c 128,-1,62
 100 104 100 104 84 102 c 1,63,64
 100 99 100 99 111 86 c 0,65,66
 123 72 123 72 123 51 c 0,67,68
 123 29 123 29 110 14.5 c 128,-1,69
 97 0 97 0 79 0 c 256,70,71
 61 0 61 0 49 15 c 128,-1,72
 37 30 37 30 37 51 c 0,73,74
 37 71 37 71 48 86 c 0,75,76
 58 99 58 99 75 102 c 1,77,78
 58 104 58 104 48 119 c 0,79,80
 37 133 37 133 37 154 c 0,81,82
 37 174 37 174 48 188 c 0,83,84
 58 201 58 201 75 205 c 1,85,86
 58 207 58 207 48 221 c 0,87,88
 37 235 37 235 37 256 c 0,89,90
 37 276 37 276 48 291 c 0,91,92
 58 304 58 304 75 307 c 1,93,94
 58 309 58 309 48 324 c 0,95,96
 37 338 37 338 37 358 c 128,-1,97
 37 378 37 378 48 393 c 0,98,99
 58 406 58 406 75 410 c 1,100,101
 58 412 58 412 48 426 c 0,102,103
 37 440 37 440 37 461 c 0,104,105
 37 481 37 481 48 496 c 0,106,107
 58 509 58 509 75 512 c 1,108,109
 58 514 58 514 48 528 c 0,110,111
 37 543 37 543 37 563 c 256,0,1
378 51 m 256,112,113
 378 73 378 73 390.5 87.5 c 128,-1,114
 403 102 403 102 421 102 c 256,115,116
 439 102 439 102 451 87.5 c 128,-1,117
 463 73 463 73 463 51 c 256,118,119
 463 29 463 29 451 14.5 c 128,-1,120
 439 0 439 0 421 0 c 256,121,122
 403 0 403 0 390.5 14.5 c 128,-1,123
 378 29 378 29 378 51 c 256,112,113
207 461 m 256,124,125
 207 483 207 483 220 497.5 c 128,-1,126
 233 512 233 512 250 512 c 0,127,128
 268 512 268 512 280.5 497 c 128,-1,129
 293 482 293 482 293 461 c 0,130,131
 293 439 293 439 280.5 424.5 c 128,-1,132
 268 410 268 410 250 410 c 256,133,134
 232 410 232 410 219.5 424.5 c 128,-1,135
 207 439 207 439 207 461 c 256,124,125
293 154 m 256,136,137
 293 176 293 176 305 190.5 c 128,-1,138
 317 205 317 205 336 205 c 256,139,140
 354 205 354 205 366 190 c 128,-1,141
 378 175 378 175 378 154 c 0,142,143
 378 132 378 132 365.5 117 c 128,-1,144
 353 102 353 102 336 102 c 0,145,146
 318 102 318 102 305.5 117 c 128,-1,147
 293 132 293 132 293 154 c 256,136,137
293 563 m 256,148,149
 293 585 293 585 305 599.5 c 128,-1,150
 317 614 317 614 336 614 c 256,151,152
 354 614 354 614 366 599.5 c 128,-1,153
 378 585 378 585 378 563 c 256,154,155
 378 541 378 541 365.5 526.5 c 128,-1,156
 353 512 353 512 336 512 c 0,157,158
 318 512 318 512 305.5 526.5 c 128,-1,159
 293 541 293 541 293 563 c 256,148,149
378 666 m 256,160,161
 378 688 378 688 390.5 702.5 c 128,-1,162
 403 717 403 717 421 717 c 256,163,164
 439 717 439 717 451 702 c 128,-1,165
 463 687 463 687 463 666 c 0,166,167
 463 644 463 644 451 629 c 128,-1,168
 439 614 439 614 421 614 c 256,169,170
 403 614 403 614 390.5 629 c 128,-1,171
 378 644 378 644 378 666 c 256,160,161
207 256 m 256,172,173
 207 278 207 278 220 292.5 c 128,-1,174
 233 307 233 307 250 307 c 0,175,176
 271 307 271 307 281.5 291 c 128,-1,177
 292 275 292 275 292 256 c 128,-1,178
 292 237 292 237 281.5 221 c 128,-1,179
 271 205 271 205 250 205 c 0,180,181
 232 205 232 205 219.5 219.5 c 128,-1,182
 207 234 207 234 207 256 c 256,172,173
EndSplineSet
EndChar

StartChar: L
Encoding: 76 76 25
Width: 500
Flags: W
LayerCount: 2
Fore
SplineSet
37 666 m 0,0,1
 37 688 37 688 49.5 702.5 c 128,-1,2
 62 717 62 717 79 717 c 0,3,4
 97 717 97 717 110 702 c 128,-1,5
 123 687 123 687 123 666 c 0,6,7
 123 646 123 646 111.5 631 c 128,-1,8
 100 616 100 616 84 614 c 1,9,10
 100 611 100 611 111 598 c 0,11,12
 123 584 123 584 123 563 c 0,13,14
 123 543 123 543 111.5 528.5 c 128,-1,15
 100 514 100 514 84 512 c 1,16,17
 100 509 100 509 111 496 c 0,18,19
 123 482 123 482 123 461 c 0,20,21
 123 441 123 441 111.5 426.5 c 128,-1,22
 100 412 100 412 84 410 c 1,23,24
 100 407 100 407 111 393 c 0,25,26
 123 379 123 379 123 358 c 0,27,28
 123 338 123 338 111.5 323.5 c 128,-1,29
 100 309 100 309 84 307 c 1,30,31
 100 304 100 304 111 291 c 0,32,33
 123 277 123 277 123 256 c 0,34,35
 123 236 123 236 111.5 221.5 c 128,-1,36
 100 207 100 207 84 205 c 1,37,38
 100 202 100 202 111 188 c 0,39,40
 123 174 123 174 123 154 c 128,-1,41
 123 134 123 134 111.5 119 c 128,-1,42
 100 104 100 104 84 102 c 1,43,44
 100 99 100 99 111 86 c 0,45,46
 123 72 123 72 123 51 c 1,47,48
 123 73 123 73 135 87.5 c 128,-1,49
 147 102 147 102 165 102 c 0,50,51
 182 102 182 102 194 89 c 0,52,53
 205 76 205 76 207 55 c 1,54,55
 209 75 209 75 221 88.5 c 128,-1,56
 233 102 233 102 250 102 c 0,57,58
 268 102 268 102 280.5 87.5 c 128,-1,59
 293 73 293 73 293 51 c 1,60,61
 293 73 293 73 305 87.5 c 128,-1,62
 317 102 317 102 336 102 c 256,63,64
 354 102 354 102 366 87.5 c 128,-1,65
 378 73 378 73 378 51 c 1,66,67
 378 73 378 73 390.5 87.5 c 128,-1,68
 403 102 403 102 421 102 c 256,69,70
 439 102 439 102 451 87.5 c 128,-1,71
 463 73 463 73 463 51 c 256,72,73
 463 29 463 29 451 14.5 c 128,-1,74
 439 0 439 0 421 0 c 0,75,76
 404 0 404 0 392 13 c 0,77,78
 380 25 380 25 378 46 c 1,79,80
 376 26 376 26 364.5 13 c 128,-1,81
 353 0 353 0 336 0 c 256,82,83
 319 0 319 0 307 13 c 0,84,85
 295 25 295 25 293 46 c 1,86,87
 291 26 291 26 279 13 c 128,-1,88
 267 0 267 0 250 0 c 128,-1,89
 233 0 233 0 221 13 c 0,90,91
 209 25 209 25 207 46 c 1,92,93
 205 26 205 26 194 13 c 0,94,95
 182 0 182 0 165 0 c 128,-1,96
 148 0 148 0 136 13 c 0,97,98
 125 25 125 25 123 46 c 1,99,100
 121 26 121 26 109 13 c 128,-1,101
 97 0 97 0 79 0 c 128,-1,102
 61 0 61 0 49 15 c 128,-1,103
 37 30 37 30 37 51 c 0,104,105
 37 71 37 71 48 86 c 0,106,107
 58 99 58 99 75 102 c 1,108,109
 58 104 58 104 48 119 c 0,110,111
 37 133 37 133 37 154 c 0,112,113
 37 174 37 174 48 188 c 0,114,115
 58 201 58 201 75 205 c 1,116,117
 58 207 58 207 48 221 c 0,118,119
 37 235 37 235 37 256 c 0,120,121
 37 276 37 276 48 291 c 0,122,123
 58 304 58 304 75 307 c 1,124,125
 58 309 58 309 48 324 c 0,126,127
 37 338 37 338 37 358 c 128,-1,128
 37 378 37 378 48 393 c 0,129,130
 58 406 58 406 75 410 c 1,131,132
 58 412 58 412 48 426 c 0,133,134
 37 440 37 440 37 461 c 0,135,136
 37 481 37 481 48 496 c 0,137,138
 58 509 58 509 75 512 c 1,139,140
 58 514 58 514 48 528 c 0,141,142
 37 542 37 542 37 563 c 0,143,144
 37 583 37 583 48 598 c 0,145,146
 58 611 58 611 75 614 c 1,147,148
 58 616 58 616 48 631 c 0,149,150
 37 646 37 646 37 666 c 0,0,1
EndSplineSet
EndChar

StartChar: M
Encoding: 77 77 26
Width: 500
Flags: W
LayerCount: 2
Fore
SplineSet
378 461 m 256,0,1
 378 481 378 481 389 496 c 0,2,3
 399 509 399 509 417 512 c 1,4,5
 401 514 401 514 390.5 526.5 c 128,-1,6
 380 539 380 539 378 558 c 1,7,8
 376 538 376 538 364.5 525 c 128,-1,9
 353 512 353 512 336 512 c 0,10,11
 318 512 318 512 305.5 527 c 128,-1,12
 293 542 293 542 293 563 c 0,13,14
 293 585 293 585 305 599.5 c 128,-1,15
 317 614 317 614 336 614 c 256,16,17
 354 614 354 614 365 599 c 0,18,19
 376 586 376 586 378 567 c 1,20,21
 379 584 379 584 389 598 c 0,22,23
 399 611 399 611 417 614 c 1,24,25
 400 616 400 616 389 631 c 0,26,27
 378 645 378 645 378 666 c 0,28,29
 378 688 378 688 390.5 702.5 c 128,-1,30
 403 717 403 717 421 717 c 256,31,32
 439 717 439 717 451 702 c 128,-1,33
 463 687 463 687 463 666 c 0,34,35
 463 646 463 646 452.5 631 c 128,-1,36
 442 616 442 616 425 614 c 1,37,38
 441 611 441 611 453 598 c 0,39,40
 463 585 463 585 463 566 c 0,41,42
 463 543 463 543 452.5 528.5 c 128,-1,43
 442 514 442 514 425 512 c 1,44,45
 441 509 441 509 453 496 c 0,46,47
 463 483 463 483 463 464 c 0,48,49
 463 441 463 441 452.5 426.5 c 128,-1,50
 442 412 442 412 425 410 c 1,51,52
 441 407 441 407 453 393 c 0,53,54
 463 380 463 380 463 361 c 0,55,56
 463 338 463 338 452.5 323.5 c 128,-1,57
 442 309 442 309 425 307 c 1,58,59
 441 304 441 304 453 291 c 0,60,61
 463 278 463 278 463 259 c 0,62,63
 463 236 463 236 452.5 221.5 c 128,-1,64
 442 207 442 207 425 205 c 1,65,66
 441 202 441 202 453 188 c 0,67,68
 463 175 463 175 463 157 c 0,69,70
 463 134 463 134 452.5 119 c 128,-1,71
 442 104 442 104 425 102 c 1,72,73
 441 99 441 99 453 86 c 0,74,75
 463 73 463 73 463 54 c 0,76,77
 463 29 463 29 451 14.5 c 128,-1,78
 439 0 439 0 421 0 c 256,79,80
 403 0 403 0 390.5 15 c 128,-1,81
 378 30 378 30 378 51 c 0,82,83
 378 71 378 71 389 86 c 0,84,85
 399 99 399 99 417 102 c 1,86,87
 400 104 400 104 389 119 c 0,88,89
 378 133 378 133 378 154 c 0,90,91
 378 174 378 174 389 188 c 0,92,93
 399 201 399 201 417 205 c 1,94,95
 400 207 400 207 389 221 c 128,-1,96
 378 235 378 235 378 256 c 0,97,98
 378 276 378 276 389 291 c 0,99,100
 399 304 399 304 417 307 c 1,101,102
 400 309 400 309 389 324 c 0,103,104
 378 338 378 338 378 358 c 256,105,106
 378 378 378 378 389 393 c 0,107,108
 399 406 399 406 417 410 c 1,109,110
 400 412 400 412 389 426 c 0,111,112
 378 441 378 441 378 461 c 256,0,1
37 563 m 256,113,114
 37 583 37 583 48 598 c 0,115,116
 58 611 58 611 75 614 c 1,117,118
 58 616 58 616 48 631 c 0,119,120
 37 645 37 645 37 666 c 0,121,122
 37 688 37 688 49.5 702.5 c 128,-1,123
 62 717 62 717 79 717 c 0,124,125
 97 717 97 717 110 702 c 128,-1,126
 123 687 123 687 123 666 c 0,127,128
 123 646 123 646 111.5 631 c 128,-1,129
 100 616 100 616 84 614 c 1,130,131
 100 611 100 611 111 598 c 0,132,133
 121 585 121 585 123 567 c 1,134,135
 124 585 124 585 134 599 c 0,136,137
 146 614 146 614 165 614 c 256,138,139
 183 614 183 614 195 599.5 c 128,-1,140
 207 585 207 585 207 563 c 256,141,142
 207 541 207 541 195 526.5 c 128,-1,143
 183 512 183 512 165 512 c 0,144,145
 148 512 148 512 136 525 c 0,146,147
 125 537 125 537 123 558 c 1,148,149
 121 539 121 539 109.5 526.5 c 128,-1,150
 98 514 98 514 84 512 c 1,151,152
 100 509 100 509 111 496 c 0,153,154
 123 482 123 482 123 461 c 0,155,156
 123 441 123 441 111.5 426.5 c 128,-1,157
 100 412 100 412 84 410 c 1,158,159
 100 407 100 407 111 393 c 0,160,161
 123 379 123 379 123 358 c 0,162,163
 123 338 123 338 111.5 323.5 c 128,-1,164
 100 309 100 309 84 307 c 1,165,166
 100 304 100 304 111 291 c 0,167,168
 123 277 123 277 123 256 c 0,169,170
 123 236 123 236 111.5 221.5 c 128,-1,171
 100 207 100 207 84 205 c 1,172,173
 100 202 100 202 111 188 c 0,174,175
 123 174 123 174 123 154 c 128,-1,176
 123 134 123 134 111.5 119 c 128,-1,177
 100 104 100 104 84 102 c 1,178,179
 100 99 100 99 111 86 c 0,180,181
 123 72 123 72 123 51 c 0,182,183
 123 29 123 29 110 14.5 c 128,-1,184
 97 0 97 0 79 0 c 256,185,186
 61 0 61 0 49 15 c 128,-1,187
 37 30 37 30 37 51 c 0,188,189
 37 71 37 71 48 86 c 0,190,191
 58 99 58 99 75 102 c 1,192,193
 58 104 58 104 48 119 c 0,194,195
 37 133 37 133 37 154 c 0,196,197
 37 174 37 174 48 188 c 0,198,199
 58 201 58 201 75 205 c 1,200,201
 58 207 58 207 48 221 c 0,202,203
 37 235 37 235 37 256 c 0,204,205
 37 276 37 276 48 291 c 0,206,207
 58 304 58 304 75 307 c 1,208,209
 58 309 58 309 48 324 c 0,210,211
 37 338 37 338 37 358 c 128,-1,212
 37 378 37 378 48 393 c 0,213,214
 58 406 58 406 75 410 c 1,215,216
 58 412 58 412 48 426 c 0,217,218
 37 440 37 440 37 461 c 0,219,220
 37 481 37 481 48 496 c 0,221,222
 58 509 58 509 75 512 c 1,223,224
 58 514 58 514 48 528 c 0,225,226
 37 543 37 543 37 563 c 256,113,114
207 461 m 256,227,228
 207 483 207 483 220 497.5 c 128,-1,229
 233 512 233 512 250 512 c 0,230,231
 268 512 268 512 280.5 497 c 128,-1,232
 293 482 293 482 293 461 c 0,233,234
 293 439 293 439 280.5 424.5 c 128,-1,235
 268 410 268 410 250 410 c 256,236,237
 232 410 232 410 219.5 424.5 c 128,-1,238
 207 439 207 439 207 461 c 256,227,228
EndSplineSet
EndChar

StartChar: N
Encoding: 78 78 27
Width: 500
Flags: W
LayerCount: 2
Fore
SplineSet
378 51 m 0,0,1
 378 71 378 71 389 86 c 0,2,3
 399 99 399 99 417 102 c 1,4,5
 401 104 401 104 390.5 116.5 c 128,-1,6
 380 129 380 129 378 148 c 1,7,8
 376 128 376 128 364 116 c 0,9,10
 352 103 352 103 336 102 c 0,11,12
 318 102 318 102 305.5 117 c 128,-1,13
 293 132 293 132 293 154 c 256,14,15
 293 176 293 176 305 190.5 c 128,-1,16
 317 205 317 205 336 205 c 256,17,18
 354 205 354 205 366 190 c 128,-1,19
 378 175 378 175 378 154 c 1,20,21
 378 174 378 174 389 188 c 0,22,23
 399 201 399 201 417 205 c 1,24,25
 400 207 400 207 389 221 c 128,-1,26
 378 235 378 235 378 256 c 0,27,28
 378 276 378 276 389 291 c 0,29,30
 399 304 399 304 417 307 c 1,31,32
 400 309 400 309 389 324 c 0,33,34
 378 338 378 338 378 358 c 256,35,36
 378 378 378 378 389 393 c 0,37,38
 399 406 399 406 417 410 c 1,39,40
 400 412 400 412 389 426 c 128,-1,41
 378 440 378 440 378 461 c 0,42,43
 378 481 378 481 389 496 c 0,44,45
 399 509 399 509 417 512 c 1,46,47
 400 514 400 514 389 528 c 128,-1,48
 378 542 378 542 378 563 c 0,49,50
 378 583 378 583 389 598 c 0,51,52
 399 611 399 611 417 614 c 1,53,54
 400 616 400 616 389 631 c 0,55,56
 378 645 378 645 378 666 c 0,57,58
 378 688 378 688 390.5 702.5 c 128,-1,59
 403 717 403 717 421 717 c 256,60,61
 439 717 439 717 451 702 c 128,-1,62
 463 687 463 687 463 666 c 0,63,64
 463 646 463 646 452.5 631 c 128,-1,65
 442 616 442 616 425 614 c 1,66,67
 441 611 441 611 453 598 c 0,68,69
 463 585 463 585 463 566 c 0,70,71
 463 543 463 543 452.5 528.5 c 128,-1,72
 442 514 442 514 425 512 c 1,73,74
 441 509 441 509 453 496 c 0,75,76
 463 483 463 483 463 464 c 0,77,78
 463 441 463 441 452.5 426.5 c 128,-1,79
 442 412 442 412 425 410 c 1,80,81
 441 407 441 407 453 393 c 0,82,83
 463 380 463 380 463 361 c 0,84,85
 463 338 463 338 452.5 323.5 c 128,-1,86
 442 309 442 309 425 307 c 1,87,88
 441 304 441 304 453 291 c 0,89,90
 463 278 463 278 463 259 c 0,91,92
 463 236 463 236 452.5 221.5 c 128,-1,93
 442 207 442 207 425 205 c 1,94,95
 441 202 441 202 453 188 c 0,96,97
 463 175 463 175 463 157 c 0,98,99
 463 134 463 134 452.5 119 c 128,-1,100
 442 104 442 104 425 102 c 1,101,102
 441 99 441 99 453 86 c 0,103,104
 463 73 463 73 463 54 c 0,105,106
 463 29 463 29 451 14.5 c 128,-1,107
 439 0 439 0 421 0 c 256,108,109
 403 0 403 0 390.5 14.5 c 128,-1,110
 378 29 378 29 378 51 c 0,0,1
37 563 m 256,111,112
 37 583 37 583 48 598 c 0,113,114
 58 611 58 611 75 614 c 1,115,116
 58 616 58 616 48 631 c 0,117,118
 37 645 37 645 37 666 c 0,119,120
 37 688 37 688 49.5 702.5 c 128,-1,121
 62 717 62 717 79 717 c 0,122,123
 97 717 97 717 110 702 c 128,-1,124
 123 687 123 687 123 666 c 0,125,126
 123 646 123 646 111.5 631 c 128,-1,127
 100 616 100 616 84 614 c 1,128,129
 98 610 98 610 109 598 c 0,130,131
 121 586 121 586 123 568 c 1,132,133
 125 587 125 587 136 600.5 c 128,-1,134
 147 614 147 614 165 614 c 128,-1,135
 183 614 183 614 195 599.5 c 128,-1,136
 207 585 207 585 207 563 c 256,137,138
 207 541 207 541 195 526.5 c 128,-1,139
 183 512 183 512 165 512 c 0,140,141
 148 512 148 512 136 525 c 0,142,143
 125 537 125 537 123 558 c 1,144,145
 121 539 121 539 109.5 526.5 c 128,-1,146
 98 514 98 514 84 512 c 1,147,148
 100 509 100 509 111 496 c 0,149,150
 123 482 123 482 123 461 c 0,151,152
 123 441 123 441 111.5 426.5 c 128,-1,153
 100 412 100 412 84 410 c 1,154,155
 100 407 100 407 111 393 c 0,156,157
 123 379 123 379 123 358 c 0,158,159
 123 338 123 338 111.5 323.5 c 128,-1,160
 100 309 100 309 84 307 c 1,161,162
 100 304 100 304 111 291 c 0,163,164
 123 277 123 277 123 256 c 0,165,166
 123 236 123 236 111.5 221.5 c 128,-1,167
 100 207 100 207 84 205 c 1,168,169
 100 202 100 202 111 188 c 0,170,171
 123 174 123 174 123 154 c 128,-1,172
 123 134 123 134 111.5 119 c 128,-1,173
 100 104 100 104 84 102 c 1,174,175
 100 99 100 99 111 86 c 0,176,177
 123 72 123 72 123 51 c 0,178,179
 123 29 123 29 110 14.5 c 128,-1,180
 97 0 97 0 79 0 c 256,181,182
 61 0 61 0 49 15 c 128,-1,183
 37 30 37 30 37 51 c 0,184,185
 37 71 37 71 48 86 c 0,186,187
 58 99 58 99 75 102 c 1,188,189
 58 104 58 104 48 119 c 0,190,191
 37 133 37 133 37 154 c 0,192,193
 37 174 37 174 48 188 c 0,194,195
 58 201 58 201 75 205 c 1,196,197
 58 207 58 207 48 221 c 0,198,199
 37 235 37 235 37 256 c 0,200,201
 37 276 37 276 48 291 c 0,202,203
 58 304 58 304 75 307 c 1,204,205
 58 309 58 309 48 324 c 0,206,207
 37 338 37 338 37 358 c 128,-1,208
 37 378 37 378 48 393 c 0,209,210
 58 406 58 406 75 410 c 1,211,212
 58 412 58 412 48 426 c 0,213,214
 37 440 37 440 37 461 c 0,215,216
 37 481 37 481 48 496 c 0,217,218
 58 509 58 509 75 512 c 1,219,220
 58 514 58 514 48 528 c 0,221,222
 37 543 37 543 37 563 c 256,111,112
207 256 m 0,223,224
 207 276 207 276 218 291 c 0,225,226
 228 304 228 304 246 307 c 1,227,228
 229 309 229 309 218 324 c 0,229,230
 207 338 207 338 207 358 c 256,231,232
 207 378 207 378 218 393 c 0,233,234
 228 406 228 406 246 410 c 1,235,236
 229 412 229 412 218 426 c 128,-1,237
 207 440 207 440 207 461 c 0,238,239
 207 483 207 483 220 497.5 c 128,-1,240
 233 512 233 512 250 512 c 0,241,242
 268 512 268 512 280.5 497 c 128,-1,243
 293 482 293 482 293 461 c 0,244,245
 293 441 293 441 282 426.5 c 128,-1,246
 271 412 271 412 254 410 c 1,247,248
 270 407 270 407 282 393 c 0,249,250
 293 379 293 379 293 358 c 0,251,252
 293 338 293 338 282 323.5 c 128,-1,253
 271 309 271 309 254 307 c 1,254,255
 270 304 270 304 282 291 c 0,256,257
 293 277 293 277 293 256 c 0,258,259
 293 234 293 234 280.5 219.5 c 128,-1,260
 268 205 268 205 250 205 c 256,261,262
 232 205 232 205 219.5 219.5 c 128,-1,263
 207 234 207 234 207 256 c 0,223,224
EndSplineSet
EndChar

StartChar: O
Encoding: 79 79 28
Width: 500
Flags: W
LayerCount: 2
Fore
SplineSet
37 256 m 256,0,1
 37 276 37 276 48 291 c 0,2,3
 58 304 58 304 75 307 c 1,4,5
 58 309 58 309 48 324 c 0,6,7
 37 338 37 338 37 358 c 128,-1,8
 37 378 37 378 48 393 c 0,9,10
 58 406 58 406 75 410 c 1,11,12
 58 412 58 412 48 426 c 0,13,14
 37 440 37 440 37 461 c 0,15,16
 37 481 37 481 48 496 c 0,17,18
 58 509 58 509 75 512 c 1,19,20
 58 514 58 514 48 528 c 0,21,22
 37 542 37 542 37 563 c 0,23,24
 37 585 37 585 49.5 599.5 c 128,-1,25
 62 614 62 614 79 614 c 0,26,27
 97 614 97 614 110 599.5 c 128,-1,28
 123 585 123 585 123 563 c 0,29,30
 123 543 123 543 111.5 528.5 c 128,-1,31
 100 514 100 514 84 512 c 1,32,33
 100 509 100 509 111 496 c 0,34,35
 123 482 123 482 123 461 c 0,36,37
 123 441 123 441 111.5 426.5 c 128,-1,38
 100 412 100 412 84 410 c 1,39,40
 100 407 100 407 111 393 c 0,41,42
 123 379 123 379 123 358 c 0,43,44
 123 338 123 338 111.5 323.5 c 128,-1,45
 100 309 100 309 84 307 c 1,46,47
 100 304 100 304 111 291 c 0,48,49
 123 277 123 277 123 256 c 0,50,51
 123 236 123 236 111.5 221.5 c 128,-1,52
 100 207 100 207 84 205 c 1,53,54
 100 202 100 202 111 188 c 0,55,56
 123 174 123 174 123 154 c 0,57,58
 123 132 123 132 110 117 c 128,-1,59
 97 102 97 102 79 102 c 256,60,61
 61 102 61 102 49 117 c 128,-1,62
 37 132 37 132 37 154 c 0,63,64
 37 174 37 174 48 188 c 0,65,66
 58 201 58 201 75 205 c 1,67,68
 58 207 58 207 48 221 c 0,69,70
 37 236 37 236 37 256 c 256,0,1
378 256 m 256,71,72
 378 276 378 276 389 291 c 0,73,74
 399 304 399 304 417 307 c 1,75,76
 400 309 400 309 389 324 c 0,77,78
 378 338 378 338 378 358 c 256,79,80
 378 378 378 378 389 393 c 0,81,82
 399 406 399 406 417 410 c 1,83,84
 400 412 400 412 389 426 c 128,-1,85
 378 440 378 440 378 461 c 0,86,87
 378 481 378 481 389 496 c 0,88,89
 399 509 399 509 417 512 c 1,90,91
 400 514 400 514 389 528 c 128,-1,92
 378 542 378 542 378 563 c 0,93,94
 378 585 378 585 390.5 599.5 c 128,-1,95
 403 614 403 614 421 614 c 256,96,97
 439 614 439 614 451 599.5 c 128,-1,98
 463 585 463 585 463 563 c 0,99,100
 463 543 463 543 452.5 528.5 c 128,-1,101
 442 514 442 514 425 512 c 1,102,103
 441 509 441 509 453 496 c 0,104,105
 463 483 463 483 463 464 c 0,106,107
 463 441 463 441 452.5 426.5 c 128,-1,108
 442 412 442 412 425 410 c 1,109,110
 441 407 441 407 453 393 c 0,111,112
 463 380 463 380 463 361 c 0,113,114
 463 338 463 338 452.5 323.5 c 128,-1,115
 442 309 442 309 425 307 c 1,116,117
 441 304 441 304 453 291 c 0,118,119
 463 278 463 278 463 259 c 0,120,121
 463 236 463 236 452.5 221.5 c 128,-1,122
 442 207 442 207 425 205 c 1,123,124
 441 202 441 202 453 188 c 0,125,126
 463 175 463 175 463 157 c 0,127,128
 463 132 463 132 451 117 c 128,-1,129
 439 102 439 102 421 102 c 256,130,131
 403 102 403 102 390.5 117 c 128,-1,132
 378 132 378 132 378 154 c 0,133,134
 378 174 378 174 389 188 c 0,135,136
 399 201 399 201 417 205 c 1,137,138
 400 207 400 207 389 221 c 0,139,140
 378 236 378 236 378 256 c 256,71,72
123 666 m 256,141,142
 123 688 123 688 135 702.5 c 128,-1,143
 147 717 147 717 165 717 c 0,144,145
 182 717 182 717 194 703 c 0,146,147
 205 690 205 690 207 671 c 1,148,149
 209 690 209 690 221 703.5 c 128,-1,150
 233 717 233 717 250 717 c 0,151,152
 268 717 268 717 280.5 702 c 128,-1,153
 293 687 293 687 293 666 c 1,154,155
 293 688 293 688 305 702.5 c 128,-1,156
 317 717 317 717 336 717 c 256,157,158
 354 717 354 717 366 702 c 128,-1,159
 378 687 378 687 378 666 c 0,160,161
 378 644 378 644 365.5 629 c 128,-1,162
 353 614 353 614 336 614 c 128,-1,163
 319 614 319 614 307 628 c 0,164,165
 295 640 295 640 293 660 c 1,166,167
 291 640 291 640 279 628 c 0,168,169
 267 615 267 615 250 614 c 0,170,171
 233 614 233 614 221 628 c 0,172,173
 209 640 209 640 207 660 c 1,174,175
 205 640 205 640 194 628 c 0,176,177
 182 615 182 615 165 614 c 0,178,179
 147 614 147 614 135 629 c 128,-1,180
 123 644 123 644 123 666 c 256,141,142
123 51 m 256,181,182
 123 73 123 73 135 87.5 c 128,-1,183
 147 102 147 102 165 102 c 0,184,185
 182 102 182 102 194 89 c 0,186,187
 205 76 205 76 207 55 c 1,188,189
 209 75 209 75 221 88.5 c 128,-1,190
 233 102 233 102 250 102 c 256,191,192
 267 102 267 102 279 89 c 128,-1,193
 291 76 291 76 293 56 c 1,194,195
 295 75 295 75 306.5 88.5 c 128,-1,196
 318 102 318 102 336 102 c 128,-1,197
 354 102 354 102 366 87.5 c 128,-1,198
 378 73 378 73 378 51 c 256,199,200
 378 29 378 29 365.5 14.5 c 128,-1,201
 353 0 353 0 336 0 c 128,-1,202
 319 0 319 0 307 13 c 0,203,204
 295 25 295 25 293 46 c 1,205,206
 291 26 291 26 279 13 c 128,-1,207
 267 0 267 0 250 0 c 128,-1,208
 233 0 233 0 221 13 c 0,209,210
 209 25 209 25 207 46 c 1,211,212
 205 26 205 26 194 13 c 0,213,214
 182 0 182 0 165 0 c 0,215,216
 147 0 147 0 135 14.5 c 128,-1,217
 123 29 123 29 123 51 c 256,181,182
EndSplineSet
EndChar

StartChar: P
Encoding: 80 80 29
Width: 500
Flags: W
LayerCount: 2
Fore
SplineSet
37 666 m 0,0,1
 37 688 37 688 49.5 702.5 c 128,-1,2
 62 717 62 717 79 717 c 0,3,4
 97 717 97 717 110 702 c 128,-1,5
 123 687 123 687 123 666 c 1,6,7
 123 688 123 688 135 702.5 c 128,-1,8
 147 717 147 717 165 717 c 256,9,10
 183 717 183 717 195 701 c 0,11,12
 205 688 205 688 207 670 c 1,13,14
 208 688 208 688 219 701 c 0,15,16
 231 716 231 716 250 717 c 0,17,18
 268 717 268 717 280 701 c 0,19,20
 291 688 291 688 293 670 c 1,21,22
 294 688 294 688 305 701 c 0,23,24
 317 716 317 716 336 717 c 0,25,26
 354 717 354 717 366 702 c 128,-1,27
 378 687 378 687 378 666 c 0,28,29
 378 644 378 644 365.5 629 c 128,-1,30
 353 614 353 614 336 614 c 128,-1,31
 319 614 319 614 307 628 c 0,32,33
 295 640 295 640 293 660 c 1,34,35
 291 640 291 640 279 628 c 0,36,37
 267 615 267 615 250 614 c 0,38,39
 233 614 233 614 221 628 c 0,40,41
 209 640 209 640 207 660 c 1,42,43
 205 640 205 640 194 628 c 0,44,45
 182 615 182 615 165 614 c 0,46,47
 148 614 148 614 136 628 c 0,48,49
 125 640 125 640 123 660 c 1,50,51
 121 641 121 641 109.5 628.5 c 128,-1,52
 98 616 98 616 84 614 c 1,53,54
 100 611 100 611 111 598 c 0,55,56
 123 584 123 584 123 563 c 0,57,58
 123 543 123 543 111.5 528.5 c 128,-1,59
 100 514 100 514 84 512 c 1,60,61
 100 509 100 509 111 496 c 0,62,63
 123 482 123 482 123 461 c 0,64,65
 123 441 123 441 111.5 426.5 c 128,-1,66
 100 412 100 412 84 410 c 1,67,68
 100 407 100 407 111 393 c 0,69,70
 123 379 123 379 123 358 c 0,71,72
 123 338 123 338 111.5 323.5 c 128,-1,73
 100 309 100 309 84 307 c 1,74,75
 98 304 98 304 109 292 c 0,76,77
 121 279 121 279 123 260 c 1,78,79
 125 280 125 280 136 293.5 c 128,-1,80
 147 307 147 307 165 307 c 0,81,82
 182 307 182 307 194 294 c 0,83,84
 205 281 205 281 207 260 c 1,85,86
 209 280 209 280 221 293.5 c 128,-1,87
 233 307 233 307 250 307 c 0,88,89
 268 307 268 307 280 292 c 0,90,91
 291 279 291 279 293 260 c 1,92,93
 294 278 294 278 305 292 c 0,94,95
 317 307 317 307 336 307 c 256,96,97
 354 307 354 307 366 292.5 c 128,-1,98
 378 278 378 278 378 256 c 256,99,100
 378 234 378 234 365.5 219.5 c 128,-1,101
 353 205 353 205 336 205 c 128,-1,102
 319 205 319 205 307 218 c 0,103,104
 295 230 295 230 293 251 c 1,105,106
 291 231 291 231 279 218 c 128,-1,107
 267 205 267 205 250 205 c 128,-1,108
 233 205 233 205 221 218 c 0,109,110
 209 230 209 230 207 251 c 1,111,112
 205 231 205 231 194 218 c 0,113,114
 182 205 182 205 165 205 c 128,-1,115
 148 205 148 205 136 218 c 0,116,117
 125 230 125 230 123 251 c 1,118,119
 121 232 121 232 109.5 219.5 c 128,-1,120
 98 207 98 207 84 205 c 1,121,122
 100 202 100 202 111 188 c 0,123,124
 123 174 123 174 123 154 c 128,-1,125
 123 134 123 134 111.5 119 c 128,-1,126
 100 104 100 104 84 102 c 1,127,128
 100 99 100 99 111 86 c 0,129,130
 123 72 123 72 123 51 c 0,131,132
 123 29 123 29 110 14.5 c 128,-1,133
 97 0 97 0 79 0 c 256,134,135
 61 0 61 0 49 15 c 128,-1,136
 37 30 37 30 37 51 c 0,137,138
 37 71 37 71 48 86 c 0,139,140
 58 99 58 99 75 102 c 1,141,142
 58 104 58 104 48 119 c 0,143,144
 37 133 37 133 37 154 c 0,145,146
 37 174 37 174 48 188 c 0,147,148
 58 201 58 201 75 205 c 1,149,150
 58 207 58 207 48 221 c 0,151,152
 37 235 37 235 37 256 c 0,153,154
 37 276 37 276 48 291 c 0,155,156
 58 304 58 304 75 307 c 1,157,158
 58 309 58 309 48 324 c 0,159,160
 37 338 37 338 37 358 c 128,-1,161
 37 378 37 378 48 393 c 0,162,163
 58 406 58 406 75 410 c 1,164,165
 58 412 58 412 48 426 c 0,166,167
 37 440 37 440 37 461 c 0,168,169
 37 481 37 481 48 496 c 0,170,171
 58 509 58 509 75 512 c 1,172,173
 58 514 58 514 48 528 c 0,174,175
 37 542 37 542 37 563 c 0,176,177
 37 583 37 583 48 598 c 0,178,179
 58 611 58 611 75 614 c 1,180,181
 58 616 58 616 48 631 c 0,182,183
 37 646 37 646 37 666 c 0,0,1
378 563 m 0,184,185
 378 585 378 585 390.5 599.5 c 128,-1,186
 403 614 403 614 421 614 c 256,187,188
 439 614 439 614 451 599.5 c 128,-1,189
 463 585 463 585 463 563 c 0,190,191
 463 543 463 543 452.5 528.5 c 128,-1,192
 442 514 442 514 425 512 c 1,193,194
 441 509 441 509 453 496 c 0,195,196
 463 483 463 483 463 464 c 0,197,198
 463 441 463 441 452.5 426.5 c 128,-1,199
 442 412 442 412 425 410 c 1,200,201
 441 407 441 407 453 393 c 0,202,203
 463 380 463 380 463 361 c 0,204,205
 463 336 463 336 451 321.5 c 128,-1,206
 439 307 439 307 421 307 c 256,207,208
 403 307 403 307 390.5 322 c 128,-1,209
 378 337 378 337 378 358 c 0,210,211
 378 378 378 378 389 393 c 0,212,213
 399 406 399 406 417 410 c 1,214,215
 400 412 400 412 389 426 c 128,-1,216
 378 440 378 440 378 461 c 0,217,218
 378 481 378 481 389 496 c 0,219,220
 399 509 399 509 417 512 c 1,221,222
 400 514 400 514 389 528 c 0,223,224
 378 543 378 543 378 563 c 0,184,185
EndSplineSet
EndChar

StartChar: Q
Encoding: 81 81 30
Width: 500
Flags: W
LayerCount: 2
Fore
SplineSet
378 563 m 0,0,1
 378 585 378 585 390.5 599.5 c 128,-1,2
 403 614 403 614 421 614 c 256,3,4
 439 614 439 614 451 599.5 c 128,-1,5
 463 585 463 585 463 563 c 0,6,7
 463 543 463 543 452.5 528.5 c 128,-1,8
 442 514 442 514 425 512 c 1,9,10
 441 509 441 509 453 496 c 0,11,12
 463 483 463 483 463 464 c 0,13,14
 463 441 463 441 452.5 426.5 c 128,-1,15
 442 412 442 412 425 410 c 1,16,17
 441 407 441 407 453 393 c 0,18,19
 463 380 463 380 463 361 c 0,20,21
 463 338 463 338 452.5 323.5 c 128,-1,22
 442 309 442 309 425 307 c 1,23,24
 441 304 441 304 453 291 c 0,25,26
 463 278 463 278 463 259 c 0,27,28
 463 236 463 236 452.5 221.5 c 128,-1,29
 442 207 442 207 425 205 c 1,30,31
 441 202 441 202 453 188 c 0,32,33
 463 175 463 175 463 157 c 0,34,35
 463 134 463 134 452.5 119 c 128,-1,36
 442 104 442 104 425 102 c 1,37,38
 441 99 441 99 453 86 c 0,39,40
 463 73 463 73 463 54 c 0,41,42
 463 29 463 29 451 14.5 c 128,-1,43
 439 0 439 0 421 0 c 0,44,45
 404 0 404 0 392 13 c 0,46,47
 380 25 380 25 378 46 c 1,48,49
 376 26 376 26 364.5 13 c 128,-1,50
 353 0 353 0 336 0 c 256,51,52
 319 0 319 0 307 13 c 0,53,54
 295 25 295 25 293 46 c 1,55,56
 291 26 291 26 279 13 c 128,-1,57
 267 0 267 0 250 0 c 128,-1,58
 233 0 233 0 221 13 c 0,59,60
 209 25 209 25 207 46 c 1,61,62
 205 26 205 26 194 13 c 0,63,64
 182 0 182 0 165 0 c 0,65,66
 147 0 147 0 135 15 c 128,-1,67
 123 30 123 30 123 51 c 0,68,69
 123 73 123 73 135 87.5 c 128,-1,70
 147 102 147 102 165 102 c 0,71,72
 182 102 182 102 194 89 c 0,73,74
 205 76 205 76 207 56 c 1,75,76
 209 75 209 75 221 88.5 c 128,-1,77
 233 102 233 102 250 102 c 256,78,79
 267 102 267 102 279 89 c 128,-1,80
 291 76 291 76 293 55 c 1,81,82
 295 73 295 73 305 87 c 0,83,84
 315 99 315 99 331 102 c 1,85,86
 314 104 314 104 304 119 c 0,87,88
 293 133 293 133 293 154 c 0,89,90
 293 176 293 176 305 190.5 c 128,-1,91
 317 205 317 205 336 205 c 256,92,93
 354 205 354 205 366 190 c 128,-1,94
 378 175 378 175 378 154 c 1,95,96
 378 174 378 174 389 188 c 0,97,98
 399 201 399 201 417 205 c 1,99,100
 400 207 400 207 389 221 c 128,-1,101
 378 235 378 235 378 256 c 0,102,103
 378 276 378 276 389 291 c 0,104,105
 399 304 399 304 417 307 c 1,106,107
 400 309 400 309 389 324 c 0,108,109
 378 338 378 338 378 358 c 256,110,111
 378 378 378 378 389 393 c 0,112,113
 399 406 399 406 417 410 c 1,114,115
 400 412 400 412 389 426 c 128,-1,116
 378 440 378 440 378 461 c 0,117,118
 378 481 378 481 389 496 c 0,119,120
 399 509 399 509 417 512 c 1,121,122
 400 514 400 514 389 528 c 0,123,124
 378 543 378 543 378 563 c 0,0,1
37 256 m 256,125,126
 37 276 37 276 48 291 c 0,127,128
 58 304 58 304 75 307 c 1,129,130
 58 309 58 309 48 324 c 0,131,132
 37 338 37 338 37 358 c 128,-1,133
 37 378 37 378 48 393 c 0,134,135
 58 406 58 406 75 410 c 1,136,137
 58 412 58 412 48 426 c 0,138,139
 37 440 37 440 37 461 c 0,140,141
 37 481 37 481 48 496 c 0,142,143
 58 509 58 509 75 512 c 1,144,145
 58 514 58 514 48 528 c 0,146,147
 37 542 37 542 37 563 c 0,148,149
 37 585 37 585 49.5 599.5 c 128,-1,150
 62 614 62 614 79 614 c 0,151,152
 97 614 97 614 110 599.5 c 128,-1,153
 123 585 123 585 123 563 c 0,154,155
 123 543 123 543 111.5 528.5 c 128,-1,156
 100 514 100 514 84 512 c 1,157,158
 100 509 100 509 111 496 c 0,159,160
 123 482 123 482 123 461 c 0,161,162
 123 441 123 441 111.5 426.5 c 128,-1,163
 100 412 100 412 84 410 c 1,164,165
 100 407 100 407 111 393 c 0,166,167
 123 379 123 379 123 358 c 0,168,169
 123 338 123 338 111.5 323.5 c 128,-1,170
 100 309 100 309 84 307 c 1,171,172
 100 304 100 304 111 291 c 0,173,174
 123 277 123 277 123 256 c 0,175,176
 123 236 123 236 111.5 221.5 c 128,-1,177
 100 207 100 207 84 205 c 1,178,179
 100 202 100 202 111 188 c 0,180,181
 123 174 123 174 123 154 c 0,182,183
 123 132 123 132 110 117 c 128,-1,184
 97 102 97 102 79 102 c 256,185,186
 61 102 61 102 49 117 c 128,-1,187
 37 132 37 132 37 154 c 0,188,189
 37 174 37 174 48 188 c 0,190,191
 58 201 58 201 75 205 c 1,192,193
 58 207 58 207 48 221 c 0,194,195
 37 236 37 236 37 256 c 256,125,126
123 666 m 256,196,197
 123 688 123 688 135 702.5 c 128,-1,198
 147 717 147 717 165 717 c 256,199,200
 183 717 183 717 195 701 c 0,201,202
 205 688 205 688 207 670 c 1,203,204
 208 688 208 688 219 701 c 0,205,206
 231 716 231 716 250 717 c 0,207,208
 267 717 267 717 279 703.5 c 128,-1,209
 291 690 291 690 293 670 c 1,210,211
 295 690 295 690 306.5 703.5 c 128,-1,212
 318 717 318 717 336 717 c 128,-1,213
 354 717 354 717 366 702 c 128,-1,214
 378 687 378 687 378 666 c 0,215,216
 378 644 378 644 365.5 629 c 128,-1,217
 353 614 353 614 336 614 c 128,-1,218
 319 614 319 614 307 628 c 0,219,220
 295 640 295 640 293 660 c 1,221,222
 291 640 291 640 279 628 c 0,223,224
 267 615 267 615 250 614 c 0,225,226
 233 614 233 614 221 628 c 0,227,228
 209 640 209 640 207 660 c 1,229,230
 205 640 205 640 194 628 c 0,231,232
 182 615 182 615 165 614 c 0,233,234
 147 614 147 614 135 629 c 128,-1,235
 123 644 123 644 123 666 c 256,196,197
207 256 m 256,236,237
 207 278 207 278 220 292.5 c 128,-1,238
 233 307 233 307 250 307 c 0,239,240
 268 307 268 307 280.5 292.5 c 128,-1,241
 293 278 293 278 293 256 c 256,242,243
 293 234 293 234 280.5 219.5 c 128,-1,244
 268 205 268 205 250 205 c 256,245,246
 232 205 232 205 219.5 219.5 c 128,-1,247
 207 234 207 234 207 256 c 256,236,237
378 51 m 1,248,249
 378 71 378 71 389 86 c 0,250,251
 399 99 399 99 417 102 c 1,252,253
 401 104 401 104 390.5 116.5 c 128,-1,254
 380 129 380 129 378 148 c 1,255,256
 376 129 376 129 365 116.5 c 128,-1,257
 354 104 354 104 340 102 c 1,258,259
 356 99 356 99 367 86 c 0,260,261
 378 71 378 71 378 51 c 1,248,249
EndSplineSet
EndChar

StartChar: R
Encoding: 82 82 31
Width: 500
Flags: W
LayerCount: 2
Fore
SplineSet
37 666 m 0,0,1
 37 688 37 688 49.5 702.5 c 128,-1,2
 62 717 62 717 79 717 c 0,3,4
 97 717 97 717 110 702 c 128,-1,5
 123 687 123 687 123 666 c 1,6,7
 123 688 123 688 135 702.5 c 128,-1,8
 147 717 147 717 165 717 c 256,9,10
 183 717 183 717 195 701 c 0,11,12
 205 688 205 688 207 670 c 1,13,14
 208 688 208 688 219 701 c 0,15,16
 231 716 231 716 250 717 c 0,17,18
 267 717 267 717 279 703 c 0,19,20
 291 690 291 690 293 671 c 1,21,22
 295 690 295 690 306.5 703.5 c 128,-1,23
 318 717 318 717 336 717 c 128,-1,24
 354 717 354 717 366 702 c 128,-1,25
 378 687 378 687 378 666 c 0,26,27
 378 644 378 644 365.5 629 c 128,-1,28
 353 614 353 614 336 614 c 128,-1,29
 319 614 319 614 307 628 c 0,30,31
 295 640 295 640 293 660 c 1,32,33
 291 640 291 640 279 628 c 0,34,35
 267 615 267 615 250 614 c 0,36,37
 233 614 233 614 221 628 c 0,38,39
 209 640 209 640 207 660 c 1,40,41
 205 640 205 640 194 628 c 0,42,43
 182 615 182 615 165 614 c 0,44,45
 148 614 148 614 136 628 c 0,46,47
 125 640 125 640 123 660 c 1,48,49
 121 641 121 641 109.5 628.5 c 128,-1,50
 98 616 98 616 84 614 c 1,51,52
 100 611 100 611 111 598 c 0,53,54
 123 584 123 584 123 563 c 0,55,56
 123 543 123 543 111.5 528.5 c 128,-1,57
 100 514 100 514 84 512 c 1,58,59
 100 509 100 509 111 496 c 0,60,61
 123 482 123 482 123 461 c 0,62,63
 123 441 123 441 111.5 426.5 c 128,-1,64
 100 412 100 412 84 410 c 1,65,66
 98 407 98 407 109 394 c 0,67,68
 121 381 121 381 123 364 c 1,69,70
 125 383 125 383 136 396.5 c 128,-1,71
 147 410 147 410 165 410 c 128,-1,72
 183 410 183 410 195 394 c 0,73,74
 205 381 205 381 207 362 c 1,75,76
 208 380 208 380 219 394 c 0,77,78
 231 409 231 409 250 410 c 0,79,80
 268 410 268 410 280.5 395 c 128,-1,81
 293 380 293 380 293 358 c 1,82,83
 293 380 293 380 305 395 c 128,-1,84
 317 410 317 410 336 410 c 256,85,86
 354 410 354 410 366 395 c 128,-1,87
 378 380 378 380 378 358 c 256,88,89
 378 336 378 336 365.5 321.5 c 128,-1,90
 353 307 353 307 336 307 c 128,-1,91
 319 307 319 307 307 321 c 0,92,93
 295 333 295 333 293 353 c 1,94,95
 291 334 291 334 280 321.5 c 128,-1,96
 269 309 269 309 254 307 c 1,97,98
 270 304 270 304 282 291 c 0,99,100
 293 277 293 277 293 256 c 0,101,102
 293 234 293 234 280.5 219.5 c 128,-1,103
 268 205 268 205 250 205 c 256,104,105
 232 205 232 205 219.5 219.5 c 128,-1,106
 207 234 207 234 207 256 c 0,107,108
 207 276 207 276 218 291 c 0,109,110
 228 304 228 304 246 307 c 1,111,112
 230 309 230 309 219.5 321.5 c 128,-1,113
 209 334 209 334 207 353 c 1,114,115
 205 333 205 333 194 321 c 0,116,117
 182 308 182 308 165 307 c 0,118,119
 148 307 148 307 136 321 c 0,120,121
 125 333 125 333 123 353 c 1,122,123
 121 334 121 334 109.5 321.5 c 128,-1,124
 98 309 98 309 84 307 c 1,125,126
 100 304 100 304 111 291 c 0,127,128
 123 277 123 277 123 256 c 0,129,130
 123 236 123 236 111.5 221.5 c 128,-1,131
 100 207 100 207 84 205 c 1,132,133
 100 202 100 202 111 188 c 0,134,135
 123 174 123 174 123 154 c 128,-1,136
 123 134 123 134 111.5 119 c 128,-1,137
 100 104 100 104 84 102 c 1,138,139
 100 99 100 99 111 86 c 0,140,141
 123 72 123 72 123 51 c 0,142,143
 123 29 123 29 110 14.5 c 128,-1,144
 97 0 97 0 79 0 c 256,145,146
 61 0 61 0 49 15 c 128,-1,147
 37 30 37 30 37 51 c 0,148,149
 37 71 37 71 48 86 c 0,150,151
 58 99 58 99 75 102 c 1,152,153
 58 104 58 104 48 119 c 0,154,155
 37 133 37 133 37 154 c 0,156,157
 37 174 37 174 48 188 c 0,158,159
 58 201 58 201 75 205 c 1,160,161
 58 207 58 207 48 221 c 0,162,163
 37 235 37 235 37 256 c 0,164,165
 37 276 37 276 48 291 c 0,166,167
 58 304 58 304 75 307 c 1,168,169
 58 309 58 309 48 324 c 0,170,171
 37 338 37 338 37 358 c 128,-1,172
 37 378 37 378 48 393 c 0,173,174
 58 406 58 406 75 410 c 1,175,176
 58 412 58 412 48 426 c 0,177,178
 37 440 37 440 37 461 c 0,179,180
 37 481 37 481 48 496 c 0,181,182
 58 509 58 509 75 512 c 1,183,184
 58 514 58 514 48 528 c 0,185,186
 37 542 37 542 37 563 c 0,187,188
 37 583 37 583 48 598 c 0,189,190
 58 611 58 611 75 614 c 1,191,192
 58 616 58 616 48 631 c 0,193,194
 37 646 37 646 37 666 c 0,0,1
378 563 m 0,195,196
 378 585 378 585 390.5 599.5 c 128,-1,197
 403 614 403 614 421 614 c 256,198,199
 439 614 439 614 451 599.5 c 128,-1,200
 463 585 463 585 463 563 c 0,201,202
 463 543 463 543 452.5 528.5 c 128,-1,203
 442 514 442 514 425 512 c 1,204,205
 441 509 441 509 453 496 c 0,206,207
 463 483 463 483 463 464 c 0,208,209
 463 439 463 439 451 424.5 c 128,-1,210
 439 410 439 410 421 410 c 256,211,212
 403 410 403 410 390.5 424.5 c 128,-1,213
 378 439 378 439 378 461 c 0,214,215
 378 481 378 481 389 496 c 0,216,217
 399 509 399 509 417 512 c 1,218,219
 400 514 400 514 389 528 c 0,220,221
 378 543 378 543 378 563 c 0,195,196
378 51 m 256,222,223
 378 73 378 73 390.5 87.5 c 128,-1,224
 403 102 403 102 421 102 c 256,225,226
 439 102 439 102 451 87.5 c 128,-1,227
 463 73 463 73 463 51 c 256,228,229
 463 29 463 29 451 14.5 c 128,-1,230
 439 0 439 0 421 0 c 256,231,232
 403 0 403 0 390.5 14.5 c 128,-1,233
 378 29 378 29 378 51 c 256,222,223
293 154 m 256,234,235
 293 176 293 176 305 190.5 c 128,-1,236
 317 205 317 205 336 205 c 256,237,238
 354 205 354 205 366 190 c 128,-1,239
 378 175 378 175 378 154 c 0,240,241
 378 132 378 132 365.5 117 c 128,-1,242
 353 102 353 102 336 102 c 0,243,244
 318 102 318 102 305.5 117 c 128,-1,245
 293 132 293 132 293 154 c 256,234,235
EndSplineSet
EndChar

StartChar: S
Encoding: 83 83 32
Width: 500
Flags: W
LayerCount: 2
Fore
SplineSet
123 666 m 256,0,1
 123 688 123 688 135 702.5 c 128,-1,2
 147 717 147 717 165 717 c 256,3,4
 183 717 183 717 195 702 c 128,-1,5
 207 687 207 687 207 666 c 1,6,7
 207 688 207 688 220 702.5 c 128,-1,8
 233 717 233 717 250 717 c 0,9,10
 268 717 268 717 280 701 c 0,11,12
 291 688 291 688 293 670 c 1,13,14
 294 688 294 688 305 701 c 0,15,16
 317 716 317 716 336 717 c 0,17,18
 354 717 354 717 366 702 c 128,-1,19
 378 687 378 687 378 666 c 0,20,21
 378 644 378 644 365.5 629 c 128,-1,22
 353 614 353 614 336 614 c 128,-1,23
 319 614 319 614 307 628 c 0,24,25
 295 640 295 640 293 660 c 1,26,27
 291 640 291 640 279 628 c 0,28,29
 267 615 267 615 250 614 c 0,30,31
 233 614 233 614 221 628 c 0,32,33
 209 640 209 640 207 660 c 1,34,35
 205 640 205 640 194 628 c 0,36,37
 182 615 182 615 165 614 c 0,38,39
 147 614 147 614 135 629 c 128,-1,40
 123 644 123 644 123 666 c 256,0,1
123 358 m 256,41,42
 123 380 123 380 135 395 c 128,-1,43
 147 410 147 410 165 410 c 256,44,45
 183 410 183 410 195 394 c 0,46,47
 205 381 205 381 207 362 c 1,48,49
 208 380 208 380 219 394 c 0,50,51
 231 409 231 409 250 410 c 0,52,53
 268 410 268 410 280 394 c 0,54,55
 291 381 291 381 293 362 c 1,56,57
 294 380 294 380 305 394 c 0,58,59
 317 409 317 409 336 410 c 0,60,61
 354 410 354 410 366 395 c 128,-1,62
 378 380 378 380 378 358 c 256,63,64
 378 336 378 336 365.5 321.5 c 128,-1,65
 353 307 353 307 336 307 c 128,-1,66
 319 307 319 307 307 321 c 0,67,68
 295 333 295 333 293 353 c 1,69,70
 291 333 291 333 279 321 c 0,71,72
 267 308 267 308 250 307 c 0,73,74
 233 307 233 307 221 321 c 0,75,76
 209 333 209 333 207 353 c 1,77,78
 205 333 205 333 194 321 c 0,79,80
 182 308 182 308 165 307 c 0,81,82
 147 307 147 307 135 321.5 c 128,-1,83
 123 336 123 336 123 358 c 256,41,42
123 51 m 256,84,85
 123 73 123 73 135 87.5 c 128,-1,86
 147 102 147 102 165 102 c 256,87,88
 183 102 183 102 195 87 c 0,89,90
 205 74 205 74 207 55 c 1,91,92
 208 73 208 73 219 87 c 0,93,94
 231 102 231 102 250 102 c 256,95,96
 268 102 268 102 280.5 87.5 c 128,-1,97
 293 73 293 73 293 51 c 1,98,99
 293 73 293 73 305 87.5 c 128,-1,100
 317 102 317 102 336 102 c 256,101,102
 354 102 354 102 366 87.5 c 128,-1,103
 378 73 378 73 378 51 c 256,104,105
 378 29 378 29 365.5 14.5 c 128,-1,106
 353 0 353 0 336 0 c 128,-1,107
 319 0 319 0 307 13 c 0,108,109
 295 25 295 25 293 46 c 1,110,111
 291 26 291 26 279 13 c 128,-1,112
 267 0 267 0 250 0 c 128,-1,113
 233 0 233 0 221 13 c 0,114,115
 209 25 209 25 207 46 c 1,116,117
 205 26 205 26 194 13 c 0,118,119
 182 0 182 0 165 0 c 0,120,121
 147 0 147 0 135 14.5 c 128,-1,122
 123 29 123 29 123 51 c 256,84,85
378 154 m 0,123,124
 378 174 378 174 389 188 c 0,125,126
 399 201 399 201 417 205 c 1,127,128
 400 207 400 207 389 221 c 128,-1,129
 378 235 378 235 378 256 c 0,130,131
 378 278 378 278 390.5 292.5 c 128,-1,132
 403 307 403 307 421 307 c 256,133,134
 439 307 439 307 451 292.5 c 128,-1,135
 463 278 463 278 463 256 c 0,136,137
 463 236 463 236 452.5 221.5 c 128,-1,138
 442 207 442 207 425 205 c 1,139,140
 441 202 441 202 453 188 c 0,141,142
 463 175 463 175 463 157 c 0,143,144
 463 132 463 132 451 117 c 128,-1,145
 439 102 439 102 421 102 c 256,146,147
 403 102 403 102 390.5 117 c 128,-1,148
 378 132 378 132 378 154 c 0,123,124
37 563 m 0,149,150
 37 585 37 585 49.5 599.5 c 128,-1,151
 62 614 62 614 79 614 c 0,152,153
 97 614 97 614 110 599.5 c 128,-1,154
 123 585 123 585 123 563 c 0,155,156
 123 543 123 543 111.5 528.5 c 128,-1,157
 100 514 100 514 84 512 c 1,158,159
 100 509 100 509 111 496 c 0,160,161
 123 482 123 482 123 461 c 0,162,163
 123 439 123 439 110 424.5 c 128,-1,164
 97 410 97 410 79 410 c 256,165,166
 61 410 61 410 49 424.5 c 128,-1,167
 37 439 37 439 37 461 c 0,168,169
 37 481 37 481 48 496 c 0,170,171
 58 509 58 509 75 512 c 1,172,173
 58 514 58 514 48 528 c 0,174,175
 37 543 37 543 37 563 c 0,149,150
378 563 m 256,176,177
 378 585 378 585 390.5 599.5 c 128,-1,178
 403 614 403 614 421 614 c 256,179,180
 439 614 439 614 451 599.5 c 128,-1,181
 463 585 463 585 463 563 c 256,182,183
 463 541 463 541 451 526.5 c 128,-1,184
 439 512 439 512 421 512 c 256,185,186
 403 512 403 512 390.5 526.5 c 128,-1,187
 378 541 378 541 378 563 c 256,176,177
37 154 m 256,188,189
 37 176 37 176 49.5 190.5 c 128,-1,190
 62 205 62 205 79 205 c 0,191,192
 97 205 97 205 110 190 c 128,-1,193
 123 175 123 175 123 154 c 0,194,195
 123 132 123 132 110 117 c 128,-1,196
 97 102 97 102 79 102 c 256,197,198
 61 102 61 102 49 117 c 128,-1,199
 37 132 37 132 37 154 c 256,188,189
EndSplineSet
EndChar

StartChar: T
Encoding: 84 84 33
Width: 500
Flags: W
LayerCount: 2
Fore
SplineSet
207 563 m 256,0,1
 207 583 207 583 218 598 c 0,2,3
 228 611 228 611 246 614 c 1,4,5
 230 616 230 616 219.5 628.5 c 128,-1,6
 209 641 209 641 207 660 c 1,7,8
 205 640 205 640 194 628 c 0,9,10
 182 615 182 615 165 614 c 0,11,12
 148 614 148 614 136 628 c 0,13,14
 125 640 125 640 123 660 c 1,15,16
 121 640 121 640 108 628 c 0,17,18
 96 615 96 615 79 614 c 0,19,20
 61 614 61 614 49 629 c 128,-1,21
 37 644 37 644 37 666 c 256,22,23
 37 688 37 688 49.5 702.5 c 128,-1,24
 62 717 62 717 79 717 c 0,25,26
 96 717 96 717 108.5 703.5 c 128,-1,27
 121 690 121 690 123 670 c 1,28,29
 125 690 125 690 136 703.5 c 128,-1,30
 147 717 147 717 165 717 c 0,31,32
 183 717 183 717 195 702 c 128,-1,33
 207 687 207 687 207 666 c 1,34,35
 207 688 207 688 220 702.5 c 128,-1,36
 233 717 233 717 250 717 c 0,37,38
 268 717 268 717 280 701 c 0,39,40
 291 688 291 688 293 670 c 1,41,42
 294 688 294 688 305 701 c 0,43,44
 317 716 317 716 336 717 c 0,45,46
 353 717 353 717 365 703.5 c 128,-1,47
 377 690 377 690 378 670 c 1,48,49
 380 690 380 690 392 703.5 c 128,-1,50
 404 717 404 717 421 717 c 0,51,52
 439 717 439 717 451 702 c 128,-1,53
 463 687 463 687 463 666 c 0,54,55
 463 644 463 644 451 629 c 128,-1,56
 439 614 439 614 421 614 c 0,57,58
 404 614 404 614 392 628 c 0,59,60
 380 640 380 640 378 660 c 1,61,62
 376 640 376 640 364 628 c 0,63,64
 352 615 352 615 336 614 c 0,65,66
 319 614 319 614 307 628 c 0,67,68
 295 640 295 640 293 660 c 1,69,70
 291 641 291 641 280 628.5 c 128,-1,71
 269 616 269 616 254 614 c 1,72,73
 270 611 270 611 282 598 c 0,74,75
 293 584 293 584 293 563 c 0,76,77
 293 543 293 543 282 528.5 c 128,-1,78
 271 514 271 514 254 512 c 1,79,80
 270 509 270 509 282 496 c 0,81,82
 293 482 293 482 293 461 c 0,83,84
 293 441 293 441 282 426.5 c 128,-1,85
 271 412 271 412 254 410 c 1,86,87
 270 407 270 407 282 393 c 0,88,89
 293 379 293 379 293 358 c 0,90,91
 293 338 293 338 282 323.5 c 128,-1,92
 271 309 271 309 254 307 c 1,93,94
 270 304 270 304 282 291 c 0,95,96
 293 277 293 277 293 256 c 0,97,98
 293 236 293 236 282 221.5 c 128,-1,99
 271 207 271 207 254 205 c 1,100,101
 270 202 270 202 282 188 c 0,102,103
 293 174 293 174 293 154 c 256,104,105
 293 134 293 134 282 119 c 128,-1,106
 271 104 271 104 254 102 c 1,107,108
 270 99 270 99 282 86 c 0,109,110
 293 72 293 72 293 51 c 0,111,112
 293 29 293 29 280.5 14.5 c 128,-1,113
 268 0 268 0 250 0 c 256,114,115
 232 0 232 0 219.5 15 c 128,-1,116
 207 30 207 30 207 51 c 0,117,118
 207 71 207 71 218 86 c 0,119,120
 228 99 228 99 246 102 c 1,121,122
 229 104 229 104 218 119 c 0,123,124
 207 133 207 133 207 154 c 0,125,126
 207 174 207 174 218 188 c 0,127,128
 228 201 228 201 246 205 c 1,129,130
 229 207 229 207 218 221 c 128,-1,131
 207 235 207 235 207 256 c 0,132,133
 207 276 207 276 218 291 c 0,134,135
 228 304 228 304 246 307 c 1,136,137
 229 309 229 309 218 324 c 0,138,139
 207 338 207 338 207 358 c 256,140,141
 207 378 207 378 218 393 c 0,142,143
 228 406 228 406 246 410 c 1,144,145
 229 412 229 412 218 426 c 128,-1,146
 207 440 207 440 207 461 c 0,147,148
 207 481 207 481 218 496 c 0,149,150
 228 509 228 509 246 512 c 1,151,152
 229 514 229 514 218 528 c 0,153,154
 207 543 207 543 207 563 c 256,0,1
EndSplineSet
EndChar

StartChar: U
Encoding: 85 85 34
Width: 500
Flags: W
LayerCount: 2
Fore
SplineSet
37 563 m 256,0,1
 37 583 37 583 48 598 c 0,2,3
 58 611 58 611 75 614 c 1,4,5
 58 616 58 616 48 631 c 0,6,7
 37 645 37 645 37 666 c 0,8,9
 37 688 37 688 49.5 702.5 c 128,-1,10
 62 717 62 717 79 717 c 0,11,12
 97 717 97 717 110 702 c 128,-1,13
 123 687 123 687 123 666 c 0,14,15
 123 646 123 646 111.5 631 c 128,-1,16
 100 616 100 616 84 614 c 1,17,18
 100 611 100 611 111 598 c 0,19,20
 123 584 123 584 123 563 c 0,21,22
 123 543 123 543 111.5 528.5 c 128,-1,23
 100 514 100 514 84 512 c 1,24,25
 100 509 100 509 111 496 c 0,26,27
 123 482 123 482 123 461 c 0,28,29
 123 441 123 441 111.5 426.5 c 128,-1,30
 100 412 100 412 84 410 c 1,31,32
 100 407 100 407 111 393 c 0,33,34
 123 379 123 379 123 358 c 0,35,36
 123 338 123 338 111.5 323.5 c 128,-1,37
 100 309 100 309 84 307 c 1,38,39
 100 304 100 304 111 291 c 0,40,41
 123 277 123 277 123 256 c 0,42,43
 123 236 123 236 111.5 221.5 c 128,-1,44
 100 207 100 207 84 205 c 1,45,46
 100 202 100 202 111 188 c 0,47,48
 123 174 123 174 123 154 c 0,49,50
 123 132 123 132 110 117 c 128,-1,51
 97 102 97 102 79 102 c 256,52,53
 61 102 61 102 49 117 c 128,-1,54
 37 132 37 132 37 154 c 0,55,56
 37 174 37 174 48 188 c 0,57,58
 58 201 58 201 75 205 c 1,59,60
 58 207 58 207 48 221 c 0,61,62
 37 235 37 235 37 256 c 0,63,64
 37 276 37 276 48 291 c 0,65,66
 58 304 58 304 75 307 c 1,67,68
 58 309 58 309 48 324 c 0,69,70
 37 338 37 338 37 358 c 128,-1,71
 37 378 37 378 48 393 c 0,72,73
 58 406 58 406 75 410 c 1,74,75
 58 412 58 412 48 426 c 0,76,77
 37 440 37 440 37 461 c 0,78,79
 37 481 37 481 48 496 c 0,80,81
 58 509 58 509 75 512 c 1,82,83
 58 514 58 514 48 528 c 0,84,85
 37 543 37 543 37 563 c 256,0,1
378 563 m 256,86,87
 378 583 378 583 389 598 c 0,88,89
 399 611 399 611 417 614 c 1,90,91
 400 616 400 616 389 631 c 0,92,93
 378 645 378 645 378 666 c 0,94,95
 378 688 378 688 390.5 702.5 c 128,-1,96
 403 717 403 717 421 717 c 256,97,98
 439 717 439 717 451 702 c 128,-1,99
 463 687 463 687 463 666 c 0,100,101
 463 646 463 646 452.5 631 c 128,-1,102
 442 616 442 616 425 614 c 1,103,104
 441 611 441 611 453 598 c 0,105,106
 463 585 463 585 463 566 c 0,107,108
 463 543 463 543 452.5 528.5 c 128,-1,109
 442 514 442 514 425 512 c 1,110,111
 441 509 441 509 453 496 c 0,112,113
 463 483 463 483 463 464 c 0,114,115
 463 441 463 441 452.5 426.5 c 128,-1,116
 442 412 442 412 425 410 c 1,117,118
 441 407 441 407 453 393 c 0,119,120
 463 380 463 380 463 361 c 0,121,122
 463 338 463 338 452.5 323.5 c 128,-1,123
 442 309 442 309 425 307 c 1,124,125
 441 304 441 304 453 291 c 0,126,127
 463 278 463 278 463 259 c 0,128,129
 463 236 463 236 452.5 221.5 c 128,-1,130
 442 207 442 207 425 205 c 1,131,132
 441 202 441 202 453 188 c 0,133,134
 463 175 463 175 463 157 c 0,135,136
 463 132 463 132 451 117 c 128,-1,137
 439 102 439 102 421 102 c 256,138,139
 403 102 403 102 390.5 117 c 128,-1,140
 378 132 378 132 378 154 c 0,141,142
 378 174 378 174 389 188 c 0,143,144
 399 201 399 201 417 205 c 1,145,146
 400 207 400 207 389 221 c 128,-1,147
 378 235 378 235 378 256 c 0,148,149
 378 276 378 276 389 291 c 0,150,151
 399 304 399 304 417 307 c 1,152,153
 400 309 400 309 389 324 c 0,154,155
 378 338 378 338 378 358 c 256,156,157
 378 378 378 378 389 393 c 0,158,159
 399 406 399 406 417 410 c 1,160,161
 400 412 400 412 389 426 c 128,-1,162
 378 440 378 440 378 461 c 0,163,164
 378 481 378 481 389 496 c 0,165,166
 399 509 399 509 417 512 c 1,167,168
 400 514 400 514 389 528 c 0,169,170
 378 543 378 543 378 563 c 256,86,87
123 51 m 256,171,172
 123 73 123 73 135 87.5 c 128,-1,173
 147 102 147 102 165 102 c 256,174,175
 183 102 183 102 195 87 c 0,176,177
 205 74 205 74 207 55 c 1,178,179
 208 73 208 73 219 87 c 0,180,181
 231 102 231 102 250 102 c 256,182,183
 268 102 268 102 280.5 87.5 c 128,-1,184
 293 73 293 73 293 51 c 1,185,186
 293 73 293 73 305 87.5 c 128,-1,187
 317 102 317 102 336 102 c 256,188,189
 354 102 354 102 366 87.5 c 128,-1,190
 378 73 378 73 378 51 c 256,191,192
 378 29 378 29 365.5 14.5 c 128,-1,193
 353 0 353 0 336 0 c 128,-1,194
 319 0 319 0 307 13 c 0,195,196
 295 25 295 25 293 46 c 1,197,198
 291 26 291 26 279 13 c 128,-1,199
 267 0 267 0 250 0 c 128,-1,200
 233 0 233 0 221 13 c 0,201,202
 209 25 209 25 207 46 c 1,203,204
 205 26 205 26 194 13 c 0,205,206
 182 0 182 0 165 0 c 0,207,208
 147 0 147 0 135 14.5 c 128,-1,209
 123 29 123 29 123 51 c 256,171,172
EndSplineSet
EndChar

StartChar: V
Encoding: 86 86 35
Width: 500
Flags: W
LayerCount: 2
Fore
SplineSet
37 563 m 256,0,1
 37 583 37 583 48 598 c 0,2,3
 58 611 58 611 75 614 c 1,4,5
 58 616 58 616 48 631 c 0,6,7
 37 645 37 645 37 666 c 0,8,9
 37 688 37 688 49.5 702.5 c 128,-1,10
 62 717 62 717 79 717 c 0,11,12
 97 717 97 717 110 702 c 128,-1,13
 123 687 123 687 123 666 c 0,14,15
 123 646 123 646 111.5 631 c 128,-1,16
 100 616 100 616 84 614 c 1,17,18
 100 611 100 611 111 598 c 0,19,20
 123 584 123 584 123 563 c 0,21,22
 123 543 123 543 111.5 528.5 c 128,-1,23
 100 514 100 514 84 512 c 1,24,25
 100 509 100 509 111 496 c 0,26,27
 123 482 123 482 123 461 c 0,28,29
 123 441 123 441 111.5 426.5 c 128,-1,30
 100 412 100 412 84 410 c 1,31,32
 100 407 100 407 111 393 c 0,33,34
 123 379 123 379 123 358 c 0,35,36
 123 338 123 338 111.5 323.5 c 128,-1,37
 100 309 100 309 84 307 c 1,38,39
 100 304 100 304 111 291 c 0,40,41
 123 277 123 277 123 256 c 0,42,43
 123 234 123 234 110 219.5 c 128,-1,44
 97 205 97 205 79 205 c 256,45,46
 61 205 61 205 49 219.5 c 128,-1,47
 37 234 37 234 37 256 c 0,48,49
 37 276 37 276 48 291 c 0,50,51
 58 304 58 304 75 307 c 1,52,53
 58 309 58 309 48 324 c 0,54,55
 37 338 37 338 37 358 c 128,-1,56
 37 378 37 378 48 393 c 0,57,58
 58 406 58 406 75 410 c 1,59,60
 58 412 58 412 48 426 c 0,61,62
 37 440 37 440 37 461 c 0,63,64
 37 481 37 481 48 496 c 0,65,66
 58 509 58 509 75 512 c 1,67,68
 58 514 58 514 48 528 c 0,69,70
 37 543 37 543 37 563 c 256,0,1
378 563 m 256,71,72
 378 583 378 583 389 598 c 0,73,74
 399 611 399 611 417 614 c 1,75,76
 400 616 400 616 389 631 c 0,77,78
 378 645 378 645 378 666 c 0,79,80
 378 688 378 688 390.5 702.5 c 128,-1,81
 403 717 403 717 421 717 c 256,82,83
 439 717 439 717 451 702 c 128,-1,84
 463 687 463 687 463 666 c 0,85,86
 463 646 463 646 452.5 631 c 128,-1,87
 442 616 442 616 425 614 c 1,88,89
 441 611 441 611 453 598 c 0,90,91
 463 585 463 585 463 566 c 0,92,93
 463 543 463 543 452.5 528.5 c 128,-1,94
 442 514 442 514 425 512 c 1,95,96
 441 509 441 509 453 496 c 0,97,98
 463 483 463 483 463 464 c 0,99,100
 463 441 463 441 452.5 426.5 c 128,-1,101
 442 412 442 412 425 410 c 1,102,103
 441 407 441 407 453 393 c 0,104,105
 463 380 463 380 463 361 c 0,106,107
 463 338 463 338 452.5 323.5 c 128,-1,108
 442 309 442 309 425 307 c 1,109,110
 441 304 441 304 453 291 c 0,111,112
 463 278 463 278 463 259 c 0,113,114
 463 234 463 234 451 219.5 c 128,-1,115
 439 205 439 205 421 205 c 256,116,117
 403 205 403 205 390.5 219.5 c 128,-1,118
 378 234 378 234 378 256 c 0,119,120
 378 276 378 276 389 291 c 0,121,122
 399 304 399 304 417 307 c 1,123,124
 400 309 400 309 389 324 c 0,125,126
 378 338 378 338 378 358 c 256,127,128
 378 378 378 378 389 393 c 0,129,130
 399 406 399 406 417 410 c 1,131,132
 400 412 400 412 389 426 c 128,-1,133
 378 440 378 440 378 461 c 0,134,135
 378 481 378 481 389 496 c 0,136,137
 399 509 399 509 417 512 c 1,138,139
 400 514 400 514 389 528 c 0,140,141
 378 543 378 543 378 563 c 256,71,72
293 154 m 256,142,143
 293 176 293 176 305 190.5 c 128,-1,144
 317 205 317 205 336 205 c 256,145,146
 354 205 354 205 366 190 c 128,-1,147
 378 175 378 175 378 154 c 0,148,149
 378 132 378 132 365.5 117 c 128,-1,150
 353 102 353 102 336 102 c 0,151,152
 318 102 318 102 305.5 117 c 128,-1,153
 293 132 293 132 293 154 c 256,142,143
207 51 m 256,154,155
 207 73 207 73 220 87.5 c 128,-1,156
 233 102 233 102 250 102 c 0,157,158
 268 102 268 102 280.5 87.5 c 128,-1,159
 293 73 293 73 293 51 c 256,160,161
 293 29 293 29 280.5 14.5 c 128,-1,162
 268 0 268 0 250 0 c 256,163,164
 232 0 232 0 219.5 14.5 c 128,-1,165
 207 29 207 29 207 51 c 256,154,155
123 154 m 256,166,167
 123 176 123 176 135 190.5 c 128,-1,168
 147 205 147 205 165 205 c 256,169,170
 183 205 183 205 195 190 c 128,-1,171
 207 175 207 175 207 154 c 0,172,173
 207 132 207 132 195 117 c 128,-1,174
 183 102 183 102 165 102 c 128,-1,175
 147 102 147 102 135 117 c 128,-1,176
 123 132 123 132 123 154 c 256,166,167
EndSplineSet
EndChar

StartChar: W
Encoding: 87 87 36
Width: 500
Flags: W
LayerCount: 2
Fore
SplineSet
37 563 m 256,0,1
 37 583 37 583 48 598 c 0,2,3
 58 611 58 611 75 614 c 1,4,5
 58 616 58 616 48 631 c 0,6,7
 37 645 37 645 37 666 c 0,8,9
 37 688 37 688 49.5 702.5 c 128,-1,10
 62 717 62 717 79 717 c 0,11,12
 97 717 97 717 110 702 c 128,-1,13
 123 687 123 687 123 666 c 0,14,15
 123 646 123 646 111.5 631 c 128,-1,16
 100 616 100 616 84 614 c 1,17,18
 100 611 100 611 111 598 c 0,19,20
 123 584 123 584 123 563 c 0,21,22
 123 543 123 543 111.5 528.5 c 128,-1,23
 100 514 100 514 84 512 c 1,24,25
 100 509 100 509 111 496 c 0,26,27
 123 482 123 482 123 461 c 0,28,29
 123 441 123 441 111.5 426.5 c 128,-1,30
 100 412 100 412 84 410 c 1,31,32
 100 407 100 407 111 393 c 0,33,34
 123 379 123 379 123 358 c 0,35,36
 123 338 123 338 111.5 323.5 c 128,-1,37
 100 309 100 309 84 307 c 1,38,39
 100 304 100 304 111 291 c 0,40,41
 123 277 123 277 123 256 c 0,42,43
 123 236 123 236 111.5 221.5 c 128,-1,44
 100 207 100 207 84 205 c 1,45,46
 100 202 100 202 111 188 c 0,47,48
 123 174 123 174 123 154 c 0,49,50
 123 132 123 132 110 117 c 128,-1,51
 97 102 97 102 79 102 c 256,52,53
 61 102 61 102 49 117 c 128,-1,54
 37 132 37 132 37 154 c 0,55,56
 37 174 37 174 48 188 c 0,57,58
 58 201 58 201 75 205 c 1,59,60
 58 207 58 207 48 221 c 0,61,62
 37 235 37 235 37 256 c 0,63,64
 37 276 37 276 48 291 c 0,65,66
 58 304 58 304 75 307 c 1,67,68
 58 309 58 309 48 324 c 0,69,70
 37 338 37 338 37 358 c 128,-1,71
 37 378 37 378 48 393 c 0,72,73
 58 406 58 406 75 410 c 1,74,75
 58 412 58 412 48 426 c 0,76,77
 37 440 37 440 37 461 c 0,78,79
 37 481 37 481 48 496 c 0,80,81
 58 509 58 509 75 512 c 1,82,83
 58 514 58 514 48 528 c 0,84,85
 37 543 37 543 37 563 c 256,0,1
378 563 m 256,86,87
 378 583 378 583 389 598 c 0,88,89
 399 611 399 611 417 614 c 1,90,91
 400 616 400 616 389 631 c 0,92,93
 378 645 378 645 378 666 c 0,94,95
 378 688 378 688 390.5 702.5 c 128,-1,96
 403 717 403 717 421 717 c 256,97,98
 439 717 439 717 451 702 c 128,-1,99
 463 687 463 687 463 666 c 0,100,101
 463 646 463 646 452.5 631 c 128,-1,102
 442 616 442 616 425 614 c 1,103,104
 441 611 441 611 453 598 c 0,105,106
 463 585 463 585 463 566 c 0,107,108
 463 543 463 543 452.5 528.5 c 128,-1,109
 442 514 442 514 425 512 c 1,110,111
 441 509 441 509 453 496 c 0,112,113
 463 483 463 483 463 464 c 0,114,115
 463 441 463 441 452.5 426.5 c 128,-1,116
 442 412 442 412 425 410 c 1,117,118
 441 407 441 407 453 393 c 0,119,120
 463 380 463 380 463 361 c 0,121,122
 463 338 463 338 452.5 323.5 c 128,-1,123
 442 309 442 309 425 307 c 1,124,125
 441 304 441 304 453 291 c 0,126,127
 463 278 463 278 463 259 c 0,128,129
 463 236 463 236 452.5 221.5 c 128,-1,130
 442 207 442 207 425 205 c 1,131,132
 441 202 441 202 453 188 c 0,133,134
 463 175 463 175 463 157 c 0,135,136
 463 132 463 132 451 117 c 128,-1,137
 439 102 439 102 421 102 c 256,138,139
 403 102 403 102 390.5 117 c 128,-1,140
 378 132 378 132 378 154 c 0,141,142
 378 174 378 174 389 188 c 0,143,144
 399 201 399 201 417 205 c 1,145,146
 400 207 400 207 389 221 c 128,-1,147
 378 235 378 235 378 256 c 0,148,149
 378 276 378 276 389 291 c 0,150,151
 399 304 399 304 417 307 c 1,152,153
 400 309 400 309 389 324 c 0,154,155
 378 338 378 338 378 358 c 256,156,157
 378 378 378 378 389 393 c 0,158,159
 399 406 399 406 417 410 c 1,160,161
 400 412 400 412 389 426 c 128,-1,162
 378 440 378 440 378 461 c 0,163,164
 378 481 378 481 389 496 c 0,165,166
 399 509 399 509 417 512 c 1,167,168
 400 514 400 514 389 528 c 0,169,170
 378 543 378 543 378 563 c 256,86,87
207 154 m 0,171,172
 207 174 207 174 218 188 c 0,173,174
 228 201 228 201 246 205 c 1,175,176
 229 207 229 207 218 221 c 128,-1,177
 207 235 207 235 207 256 c 0,178,179
 207 278 207 278 220 292.5 c 128,-1,180
 233 307 233 307 250 307 c 0,181,182
 268 307 268 307 280.5 292.5 c 128,-1,183
 293 278 293 278 293 256 c 0,184,185
 293 236 293 236 282 221.5 c 128,-1,186
 271 207 271 207 254 205 c 1,187,188
 270 202 270 202 282 188 c 0,189,190
 293 174 293 174 293 154 c 0,191,192
 293 132 293 132 280.5 117 c 128,-1,193
 268 102 268 102 250 102 c 256,194,195
 232 102 232 102 219.5 117 c 128,-1,196
 207 132 207 132 207 154 c 0,171,172
293 51 m 256,197,198
 293 73 293 73 305 87.5 c 128,-1,199
 317 102 317 102 336 102 c 256,200,201
 354 102 354 102 366 87.5 c 128,-1,202
 378 73 378 73 378 51 c 256,203,204
 378 29 378 29 365.5 14.5 c 128,-1,205
 353 0 353 0 336 0 c 0,206,207
 318 0 318 0 305.5 14.5 c 128,-1,208
 293 29 293 29 293 51 c 256,197,198
123 51 m 256,209,210
 123 73 123 73 135 87.5 c 128,-1,211
 147 102 147 102 165 102 c 256,212,213
 183 102 183 102 195 87.5 c 128,-1,214
 207 73 207 73 207 51 c 256,215,216
 207 29 207 29 195 14.5 c 128,-1,217
 183 0 183 0 165 0 c 128,-1,218
 147 0 147 0 135 14.5 c 128,-1,219
 123 29 123 29 123 51 c 256,209,210
EndSplineSet
EndChar

StartChar: X
Encoding: 88 88 37
Width: 500
Flags: W
LayerCount: 2
Fore
SplineSet
37 563 m 0,0,1
 37 583 37 583 48 598 c 0,2,3
 58 611 58 611 75 614 c 1,4,5
 58 616 58 616 48 631 c 0,6,7
 37 645 37 645 37 666 c 0,8,9
 37 688 37 688 49.5 702.5 c 128,-1,10
 62 717 62 717 79 717 c 0,11,12
 97 717 97 717 110 702 c 128,-1,13
 123 687 123 687 123 666 c 0,14,15
 123 646 123 646 111.5 631 c 128,-1,16
 100 616 100 616 84 614 c 1,17,18
 100 611 100 611 111 598 c 0,19,20
 123 584 123 584 123 563 c 0,21,22
 123 541 123 541 110 526.5 c 128,-1,23
 97 512 97 512 79 512 c 256,24,25
 61 512 61 512 49 526.5 c 128,-1,26
 37 541 37 541 37 563 c 0,0,1
37 154 m 0,27,28
 37 176 37 176 49.5 190.5 c 128,-1,29
 62 205 62 205 79 205 c 0,30,31
 97 205 97 205 110 190 c 128,-1,32
 123 175 123 175 123 154 c 0,33,34
 123 134 123 134 111.5 119 c 128,-1,35
 100 104 100 104 84 102 c 1,36,37
 100 99 100 99 111 86 c 0,38,39
 123 72 123 72 123 51 c 0,40,41
 123 29 123 29 110 14.5 c 128,-1,42
 97 0 97 0 79 0 c 256,43,44
 61 0 61 0 49 15 c 128,-1,45
 37 30 37 30 37 51 c 0,46,47
 37 71 37 71 48 86 c 0,48,49
 58 99 58 99 75 102 c 1,50,51
 58 104 58 104 48 119 c 0,52,53
 37 134 37 134 37 154 c 0,27,28
378 51 m 0,54,55
 378 71 378 71 389 86 c 0,56,57
 399 99 399 99 417 102 c 1,58,59
 400 104 400 104 389 119 c 0,60,61
 378 133 378 133 378 154 c 0,62,63
 378 176 378 176 390.5 190.5 c 128,-1,64
 403 205 403 205 421 205 c 256,65,66
 439 205 439 205 451 190 c 128,-1,67
 463 175 463 175 463 154 c 0,68,69
 463 134 463 134 452.5 119 c 128,-1,70
 442 104 442 104 425 102 c 1,71,72
 441 99 441 99 453 86 c 0,73,74
 463 73 463 73 463 54 c 0,75,76
 463 29 463 29 451 14.5 c 128,-1,77
 439 0 439 0 421 0 c 256,78,79
 403 0 403 0 390.5 14.5 c 128,-1,80
 378 29 378 29 378 51 c 0,54,55
378 563 m 0,81,82
 378 583 378 583 389 598 c 0,83,84
 399 611 399 611 417 614 c 1,85,86
 400 616 400 616 389 631 c 0,87,88
 378 645 378 645 378 666 c 0,89,90
 378 688 378 688 390.5 702.5 c 128,-1,91
 403 717 403 717 421 717 c 256,92,93
 439 717 439 717 451 702 c 128,-1,94
 463 687 463 687 463 666 c 0,95,96
 463 646 463 646 452.5 631 c 128,-1,97
 442 616 442 616 425 614 c 1,98,99
 441 611 441 611 453 598 c 0,100,101
 463 585 463 585 463 566 c 0,102,103
 463 541 463 541 451 526.5 c 128,-1,104
 439 512 439 512 421 512 c 256,105,106
 403 512 403 512 390.5 526.5 c 128,-1,107
 378 541 378 541 378 563 c 0,81,82
293 256 m 256,108,109
 293 278 293 278 305 292.5 c 128,-1,110
 317 307 317 307 336 307 c 256,111,112
 354 307 354 307 366 292.5 c 128,-1,113
 378 278 378 278 378 256 c 256,114,115
 378 234 378 234 365.5 219.5 c 128,-1,116
 353 205 353 205 336 205 c 0,117,118
 318 205 318 205 305.5 219.5 c 128,-1,119
 293 234 293 234 293 256 c 256,108,109
123 256 m 256,120,121
 123 278 123 278 135 292.5 c 128,-1,122
 147 307 147 307 165 307 c 256,123,124
 183 307 183 307 195 292.5 c 128,-1,125
 207 278 207 278 207 256 c 256,126,127
 207 234 207 234 195 219.5 c 128,-1,128
 183 205 183 205 165 205 c 128,-1,129
 147 205 147 205 135 219.5 c 128,-1,130
 123 234 123 234 123 256 c 256,120,121
207 358 m 256,131,132
 207 380 207 380 220 395 c 128,-1,133
 233 410 233 410 250 410 c 0,134,135
 268 410 268 410 280.5 395 c 128,-1,136
 293 380 293 380 293 358 c 256,137,138
 293 336 293 336 280.5 321.5 c 128,-1,139
 268 307 268 307 250 307 c 256,140,141
 232 307 232 307 219.5 321.5 c 128,-1,142
 207 336 207 336 207 358 c 256,131,132
293 461 m 256,143,144
 293 483 293 483 305 497.5 c 128,-1,145
 317 512 317 512 336 512 c 256,146,147
 354 512 354 512 366 497 c 128,-1,148
 378 482 378 482 378 461 c 0,149,150
 378 439 378 439 365.5 424.5 c 128,-1,151
 353 410 353 410 336 410 c 0,152,153
 318 410 318 410 305.5 424.5 c 128,-1,154
 293 439 293 439 293 461 c 256,143,144
123 461 m 256,155,156
 123 483 123 483 135 497.5 c 128,-1,157
 147 512 147 512 165 512 c 256,158,159
 183 512 183 512 195 497 c 128,-1,160
 207 482 207 482 207 461 c 0,161,162
 207 439 207 439 195 424.5 c 128,-1,163
 183 410 183 410 165 410 c 128,-1,164
 147 410 147 410 135 424.5 c 128,-1,165
 123 439 123 439 123 461 c 256,155,156
EndSplineSet
EndChar

StartChar: Y
Encoding: 89 89 38
Width: 500
Flags: W
LayerCount: 2
Fore
SplineSet
207 154 m 256,0,1
 207 174 207 174 218 188 c 0,2,3
 228 201 228 201 246 205 c 1,4,5
 229 207 229 207 218 221 c 128,-1,6
 207 235 207 235 207 256 c 0,7,8
 207 278 207 278 220 292.5 c 128,-1,9
 233 307 233 307 250 307 c 0,10,11
 268 307 268 307 280.5 292.5 c 128,-1,12
 293 278 293 278 293 256 c 0,13,14
 293 236 293 236 282 221.5 c 128,-1,15
 271 207 271 207 254 205 c 1,16,17
 270 202 270 202 282 188 c 0,18,19
 293 174 293 174 293 154 c 256,20,21
 293 134 293 134 282 119 c 128,-1,22
 271 104 271 104 254 102 c 1,23,24
 270 99 270 99 282 86 c 0,25,26
 293 72 293 72 293 51 c 0,27,28
 293 29 293 29 280.5 14.5 c 128,-1,29
 268 0 268 0 250 0 c 256,30,31
 232 0 232 0 219.5 15 c 128,-1,32
 207 30 207 30 207 51 c 0,33,34
 207 71 207 71 218 86 c 0,35,36
 228 99 228 99 246 102 c 1,37,38
 229 104 229 104 218 119 c 128,-1,39
 207 134 207 134 207 154 c 256,0,1
37 563 m 256,40,41
 37 583 37 583 48 598 c 0,42,43
 58 611 58 611 75 614 c 1,44,45
 58 616 58 616 48 631 c 0,46,47
 37 645 37 645 37 666 c 0,48,49
 37 688 37 688 49.5 702.5 c 128,-1,50
 62 717 62 717 79 717 c 0,51,52
 97 717 97 717 110 702 c 128,-1,53
 123 687 123 687 123 666 c 0,54,55
 123 646 123 646 111.5 631 c 128,-1,56
 100 616 100 616 84 614 c 1,57,58
 100 611 100 611 111 598 c 0,59,60
 123 584 123 584 123 563 c 0,61,62
 123 543 123 543 111.5 528.5 c 128,-1,63
 100 514 100 514 84 512 c 1,64,65
 100 509 100 509 111 496 c 0,66,67
 123 482 123 482 123 461 c 0,68,69
 123 439 123 439 110 424.5 c 128,-1,70
 97 410 97 410 79 410 c 256,71,72
 61 410 61 410 49 424.5 c 128,-1,73
 37 439 37 439 37 461 c 0,74,75
 37 481 37 481 48 496 c 0,76,77
 58 509 58 509 75 512 c 1,78,79
 58 514 58 514 48 528 c 0,80,81
 37 543 37 543 37 563 c 256,40,41
378 563 m 256,82,83
 378 583 378 583 389 598 c 0,84,85
 399 611 399 611 417 614 c 1,86,87
 400 616 400 616 389 631 c 0,88,89
 378 645 378 645 378 666 c 0,90,91
 378 688 378 688 390.5 702.5 c 128,-1,92
 403 717 403 717 421 717 c 256,93,94
 439 717 439 717 451 702 c 128,-1,95
 463 687 463 687 463 666 c 0,96,97
 463 646 463 646 452.5 631 c 128,-1,98
 442 616 442 616 425 614 c 1,99,100
 441 611 441 611 453 598 c 0,101,102
 463 585 463 585 463 566 c 0,103,104
 463 543 463 543 452.5 528.5 c 128,-1,105
 442 514 442 514 425 512 c 1,106,107
 441 509 441 509 453 496 c 0,108,109
 463 483 463 483 463 464 c 0,110,111
 463 439 463 439 451 424.5 c 128,-1,112
 439 410 439 410 421 410 c 256,113,114
 403 410 403 410 390.5 424.5 c 128,-1,115
 378 439 378 439 378 461 c 0,116,117
 378 481 378 481 389 496 c 0,118,119
 399 509 399 509 417 512 c 1,120,121
 400 514 400 514 389 528 c 0,122,123
 378 543 378 543 378 563 c 256,82,83
293 358 m 256,124,125
 293 380 293 380 305 395 c 128,-1,126
 317 410 317 410 336 410 c 256,127,128
 354 410 354 410 366 395 c 128,-1,129
 378 380 378 380 378 358 c 256,130,131
 378 336 378 336 365.5 321.5 c 128,-1,132
 353 307 353 307 336 307 c 0,133,134
 318 307 318 307 305.5 321.5 c 128,-1,135
 293 336 293 336 293 358 c 256,124,125
123 358 m 256,136,137
 123 380 123 380 135 395 c 128,-1,138
 147 410 147 410 165 410 c 256,139,140
 183 410 183 410 195 395 c 128,-1,141
 207 380 207 380 207 358 c 256,142,143
 207 336 207 336 195 321.5 c 128,-1,144
 183 307 183 307 165 307 c 128,-1,145
 147 307 147 307 135 321.5 c 128,-1,146
 123 336 123 336 123 358 c 256,136,137
EndSplineSet
EndChar

StartChar: Z
Encoding: 90 90 39
Width: 500
Flags: W
LayerCount: 2
Fore
SplineSet
37 154 m 0,0,1
 37 176 37 176 49.5 190.5 c 128,-1,2
 62 205 62 205 79 205 c 0,3,4
 97 205 97 205 110 190 c 128,-1,5
 123 175 123 175 123 154 c 0,6,7
 123 134 123 134 111.5 119 c 128,-1,8
 100 104 100 104 84 102 c 1,9,10
 100 99 100 99 111 86 c 0,11,12
 121 73 121 73 123 55 c 1,13,14
 124 73 124 73 134 87 c 0,15,16
 146 102 146 102 165 102 c 0,17,18
 182 102 182 102 194 89 c 0,19,20
 205 76 205 76 207 55 c 1,21,22
 209 75 209 75 221 88.5 c 128,-1,23
 233 102 233 102 250 102 c 256,24,25
 267 102 267 102 279 89 c 128,-1,26
 291 76 291 76 293 56 c 1,27,28
 295 75 295 75 306.5 88.5 c 128,-1,29
 318 102 318 102 336 102 c 0,30,31
 353 102 353 102 364 89 c 128,-1,32
 375 76 375 76 378 56 c 1,33,34
 380 75 380 75 392 88.5 c 128,-1,35
 404 102 404 102 421 102 c 0,36,37
 439 102 439 102 451 87.5 c 128,-1,38
 463 73 463 73 463 51 c 256,39,40
 463 29 463 29 451 14.5 c 128,-1,41
 439 0 439 0 421 0 c 0,42,43
 404 0 404 0 392 13 c 0,44,45
 380 25 380 25 378 46 c 1,46,47
 376 26 376 26 364.5 13 c 128,-1,48
 353 0 353 0 336 0 c 256,49,50
 319 0 319 0 307 13 c 0,51,52
 295 25 295 25 293 46 c 1,53,54
 291 26 291 26 279 13 c 128,-1,55
 267 0 267 0 250 0 c 128,-1,56
 233 0 233 0 221 13 c 0,57,58
 209 25 209 25 207 46 c 1,59,60
 205 26 205 26 194 13 c 0,61,62
 182 0 182 0 165 0 c 128,-1,63
 148 0 148 0 136 13 c 0,64,65
 125 25 125 25 123 46 c 1,66,67
 121 26 121 26 109 13 c 128,-1,68
 97 0 97 0 79 0 c 128,-1,69
 61 0 61 0 49 15 c 128,-1,70
 37 30 37 30 37 51 c 0,71,72
 37 71 37 71 48 86 c 0,73,74
 58 99 58 99 75 102 c 1,75,76
 58 104 58 104 48 119 c 0,77,78
 37 134 37 134 37 154 c 0,0,1
378 563 m 0,79,80
 378 583 378 583 389 598 c 0,81,82
 399 611 399 611 417 614 c 1,83,84
 401 616 401 616 390.5 628.5 c 128,-1,85
 380 641 380 641 378 660 c 1,86,87
 376 640 376 640 364 628 c 0,88,89
 352 615 352 615 336 614 c 0,90,91
 319 614 319 614 307 628 c 0,92,93
 295 640 295 640 293 660 c 1,94,95
 291 640 291 640 279 628 c 0,96,97
 267 615 267 615 250 614 c 0,98,99
 233 614 233 614 221 628 c 0,100,101
 209 640 209 640 207 660 c 1,102,103
 205 640 205 640 194 628 c 0,104,105
 182 615 182 615 165 614 c 0,106,107
 148 614 148 614 136 628 c 0,108,109
 125 640 125 640 123 660 c 1,110,111
 121 640 121 640 108 628 c 0,112,113
 96 615 96 615 79 614 c 0,114,115
 61 614 61 614 49 629 c 128,-1,116
 37 644 37 644 37 666 c 256,117,118
 37 688 37 688 49.5 702.5 c 128,-1,119
 62 717 62 717 79 717 c 128,-1,120
 96 717 96 717 108 703 c 0,121,122
 119 690 119 690 123 671 c 1,123,124
 125 690 125 690 136 703.5 c 128,-1,125
 147 717 147 717 165 717 c 128,-1,126
 183 717 183 717 195 702 c 128,-1,127
 207 687 207 687 207 666 c 1,128,129
 207 688 207 688 220 702.5 c 128,-1,130
 233 717 233 717 250 717 c 0,131,132
 268 717 268 717 280 701 c 0,133,134
 291 688 291 688 293 670 c 1,135,136
 294 688 294 688 305 701 c 0,137,138
 317 716 317 716 336 717 c 0,139,140
 354 717 354 717 365 701 c 0,141,142
 376 688 376 688 378 670 c 1,143,144
 379 688 379 688 390 701 c 0,145,146
 402 716 402 716 421 717 c 0,147,148
 439 717 439 717 451 702 c 128,-1,149
 463 687 463 687 463 666 c 0,150,151
 463 646 463 646 452.5 631 c 128,-1,152
 442 616 442 616 425 614 c 1,153,154
 441 611 441 611 453 598 c 0,155,156
 463 585 463 585 463 566 c 0,157,158
 463 541 463 541 451 526.5 c 128,-1,159
 439 512 439 512 421 512 c 256,160,161
 403 512 403 512 390.5 526.5 c 128,-1,162
 378 541 378 541 378 563 c 0,79,80
123 256 m 256,163,164
 123 278 123 278 135 292.5 c 128,-1,165
 147 307 147 307 165 307 c 256,166,167
 183 307 183 307 195 292.5 c 128,-1,168
 207 278 207 278 207 256 c 256,169,170
 207 234 207 234 195 219.5 c 128,-1,171
 183 205 183 205 165 205 c 128,-1,172
 147 205 147 205 135 219.5 c 128,-1,173
 123 234 123 234 123 256 c 256,163,164
293 461 m 256,174,175
 293 483 293 483 305 497.5 c 128,-1,176
 317 512 317 512 336 512 c 256,177,178
 354 512 354 512 366 497 c 128,-1,179
 378 482 378 482 378 461 c 0,180,181
 378 439 378 439 365.5 424.5 c 128,-1,182
 353 410 353 410 336 410 c 0,183,184
 318 410 318 410 305.5 424.5 c 128,-1,185
 293 439 293 439 293 461 c 256,174,175
207 358 m 256,186,187
 207 380 207 380 220 395 c 128,-1,188
 233 410 233 410 250 410 c 0,189,190
 268 410 268 410 280.5 395 c 128,-1,191
 293 380 293 380 293 358 c 256,192,193
 293 336 293 336 280.5 321.5 c 128,-1,194
 268 307 268 307 250 307 c 256,195,196
 232 307 232 307 219.5 321.5 c 128,-1,197
 207 336 207 336 207 358 c 256,186,187
EndSplineSet
EndChar

StartChar: bracketleft
Encoding: 91 91 40
Width: 500
Flags: W
LayerCount: 2
Fore
SplineSet
123 666 m 0,0,1
 123 688 123 688 135 702.5 c 128,-1,2
 147 717 147 717 165 717 c 256,3,4
 183 717 183 717 195.5 702 c 128,-1,5
 208 687 208 687 208 666 c 1,6,7
 208 688 208 688 220.5 702.5 c 128,-1,8
 233 717 233 717 250 717 c 0,9,10
 268 717 268 717 280 701 c 0,11,12
 291 688 291 688 293 670 c 1,13,14
 294 688 294 688 305 701 c 0,15,16
 317 716 317 716 336 717 c 0,17,18
 354 717 354 717 366 702 c 128,-1,19
 378 687 378 687 378 666 c 0,20,21
 378 644 378 644 365.5 629 c 128,-1,22
 353 614 353 614 336 614 c 128,-1,23
 319 614 319 614 307 628 c 0,24,25
 295 640 295 640 293 660 c 1,26,27
 291 640 291 640 279 628 c 0,28,29
 267 615 267 615 250 614 c 0,30,31
 233 614 233 614 221 628 c 0,32,33
 209 640 209 640 208 660 c 1,34,35
 206 641 206 641 194.5 628.5 c 128,-1,36
 183 616 183 616 169 614 c 1,37,38
 185 611 185 611 197 598 c 0,39,40
 208 584 208 584 208 563 c 0,41,42
 208 543 208 543 196.5 528.5 c 128,-1,43
 185 514 185 514 169 512 c 1,44,45
 185 509 185 509 197 496 c 0,46,47
 208 482 208 482 208 461 c 0,48,49
 208 441 208 441 196.5 426.5 c 128,-1,50
 185 412 185 412 169 410 c 1,51,52
 185 407 185 407 197 393 c 0,53,54
 208 379 208 379 208 358 c 0,55,56
 208 338 208 338 196.5 323.5 c 128,-1,57
 185 309 185 309 169 307 c 1,58,59
 185 304 185 304 197 291 c 0,60,61
 208 277 208 277 208 256 c 0,62,63
 208 236 208 236 196.5 221.5 c 128,-1,64
 185 207 185 207 169 205 c 1,65,66
 185 202 185 202 197 188 c 0,67,68
 208 174 208 174 208 154 c 256,69,70
 208 134 208 134 196.5 119 c 128,-1,71
 185 104 185 104 169 102 c 1,72,73
 185 99 185 99 197 86 c 0,74,75
 208 72 208 72 208 51 c 1,76,77
 208 73 208 73 220.5 87.5 c 128,-1,78
 233 102 233 102 250 102 c 0,79,80
 268 102 268 102 280 87 c 0,81,82
 291 74 291 74 293 55 c 1,83,84
 294 73 294 73 305 87 c 0,85,86
 317 102 317 102 336 102 c 256,87,88
 354 102 354 102 366 87.5 c 128,-1,89
 378 73 378 73 378 51 c 256,90,91
 378 29 378 29 365.5 14.5 c 128,-1,92
 353 0 353 0 336 0 c 128,-1,93
 319 0 319 0 307 13 c 0,94,95
 295 25 295 25 293 46 c 1,96,97
 291 26 291 26 279 13 c 128,-1,98
 267 0 267 0 250 0 c 128,-1,99
 233 0 233 0 221 13 c 0,100,101
 209 25 209 25 208 46 c 1,102,103
 206 26 206 26 194 13 c 128,-1,104
 182 0 182 0 165 0 c 0,105,106
 147 0 147 0 135 15 c 128,-1,107
 123 30 123 30 123 51 c 0,108,109
 123 71 123 71 133 86 c 0,110,111
 143 99 143 99 161 102 c 1,112,113
 144 104 144 104 133 119 c 0,114,115
 123 132 123 132 123 151 c 0,116,117
 123 174 123 174 133 188 c 0,118,119
 143 201 143 201 161 205 c 1,120,121
 144 207 144 207 133.5 221 c 128,-1,122
 123 235 123 235 123 256 c 0,123,124
 123 276 123 276 133 291 c 0,125,126
 143 304 143 304 161 307 c 1,127,128
 144 309 144 309 133 324 c 0,129,130
 123 337 123 337 123 355 c 0,131,132
 123 378 123 378 133 393 c 0,133,134
 143 406 143 406 161 410 c 1,135,136
 144 412 144 412 133.5 426 c 128,-1,137
 123 440 123 440 123 461 c 0,138,139
 123 481 123 481 133 496 c 0,140,141
 143 509 143 509 161 512 c 1,142,143
 144 514 144 514 133.5 528 c 128,-1,144
 123 542 123 542 123 563 c 0,145,146
 123 583 123 583 133 598 c 0,147,148
 143 611 143 611 161 614 c 1,149,150
 144 616 144 616 133.5 631 c 128,-1,151
 123 646 123 646 123 666 c 0,0,1
EndSplineSet
EndChar

StartChar: backslash
Encoding: 92 92 41
Width: 500
Flags: W
LayerCount: 2
Fore
SplineSet
37 563 m 0,0,1
 37 583 37 583 48 598 c 0,2,3
 58 611 58 611 75 614 c 1,4,5
 58 616 58 616 48 631 c 0,6,7
 37 645 37 645 37 666 c 0,8,9
 37 688 37 688 49.5 702.5 c 128,-1,10
 62 717 62 717 79 717 c 0,11,12
 97 717 97 717 110 702 c 128,-1,13
 123 687 123 687 123 666 c 0,14,15
 123 646 123 646 111.5 631 c 128,-1,16
 100 616 100 616 84 614 c 1,17,18
 100 611 100 611 111 598 c 0,19,20
 123 584 123 584 123 563 c 0,21,22
 123 541 123 541 110 526.5 c 128,-1,23
 97 512 97 512 79 512 c 256,24,25
 61 512 61 512 49 526.5 c 128,-1,26
 37 541 37 541 37 563 c 0,0,1
378 51 m 0,27,28
 378 71 378 71 389 86 c 0,29,30
 399 99 399 99 417 102 c 1,31,32
 400 104 400 104 389 119 c 0,33,34
 378 133 378 133 378 154 c 0,35,36
 378 176 378 176 390.5 190.5 c 128,-1,37
 403 205 403 205 421 205 c 256,38,39
 439 205 439 205 451 190 c 128,-1,40
 463 175 463 175 463 154 c 0,41,42
 463 134 463 134 452.5 119 c 128,-1,43
 442 104 442 104 425 102 c 1,44,45
 441 99 441 99 453 86 c 0,46,47
 463 73 463 73 463 54 c 0,48,49
 463 29 463 29 451 14.5 c 128,-1,50
 439 0 439 0 421 0 c 256,51,52
 403 0 403 0 390.5 14.5 c 128,-1,53
 378 29 378 29 378 51 c 0,27,28
293 256 m 256,54,55
 293 278 293 278 305 292.5 c 128,-1,56
 317 307 317 307 336 307 c 256,57,58
 354 307 354 307 366 292.5 c 128,-1,59
 378 278 378 278 378 256 c 256,60,61
 378 234 378 234 365.5 219.5 c 128,-1,62
 353 205 353 205 336 205 c 0,63,64
 318 205 318 205 305.5 219.5 c 128,-1,65
 293 234 293 234 293 256 c 256,54,55
207 358 m 256,66,67
 207 380 207 380 220 395 c 128,-1,68
 233 410 233 410 250 410 c 0,69,70
 268 410 268 410 280.5 395 c 128,-1,71
 293 380 293 380 293 358 c 256,72,73
 293 336 293 336 280.5 321.5 c 128,-1,74
 268 307 268 307 250 307 c 256,75,76
 232 307 232 307 219.5 321.5 c 128,-1,77
 207 336 207 336 207 358 c 256,66,67
123 461 m 256,78,79
 123 483 123 483 135 497.5 c 128,-1,80
 147 512 147 512 165 512 c 256,81,82
 183 512 183 512 195 497 c 128,-1,83
 207 482 207 482 207 461 c 0,84,85
 207 439 207 439 195 424.5 c 128,-1,86
 183 410 183 410 165 410 c 128,-1,87
 147 410 147 410 135 424.5 c 128,-1,88
 123 439 123 439 123 461 c 256,78,79
EndSplineSet
EndChar

StartChar: bracketright
Encoding: 93 93 42
Width: 500
Flags: W
LayerCount: 2
Fore
SplineSet
292 563 m 256,0,1
 292 583 292 583 304 598 c 0,2,3
 314 611 314 611 330 614 c 1,4,5
 314 616 314 616 304 628.5 c 128,-1,6
 294 641 294 641 292 660 c 1,7,8
 290 640 290 640 278 628 c 0,9,10
 266 615 266 615 250 614 c 0,11,12
 232 614 232 614 220 628 c 0,13,14
 208 640 208 640 208 660 c 1,15,16
 206 640 206 640 194 628 c 0,17,18
 182 615 182 615 164 614 c 0,19,20
 146 614 146 614 134 629 c 128,-1,21
 122 644 122 644 122 666 c 256,22,23
 122 688 122 688 134 702.5 c 128,-1,24
 146 717 146 717 164 717 c 256,25,26
 182 717 182 717 195 702 c 128,-1,27
 208 687 208 687 208 666 c 1,28,29
 208 688 208 688 220 702.5 c 128,-1,30
 232 717 232 717 250 717 c 0,31,32
 268 717 268 717 280 702 c 128,-1,33
 292 687 292 687 292 666 c 1,34,35
 292 688 292 688 305 702.5 c 128,-1,36
 318 717 318 717 336 717 c 256,37,38
 354 717 354 717 366 702 c 128,-1,39
 378 687 378 687 378 666 c 0,40,41
 378 646 378 646 367 631 c 128,-1,42
 356 616 356 616 340 614 c 1,43,44
 356 611 356 611 366 598 c 0,45,46
 378 584 378 584 378 563 c 0,47,48
 378 543 378 543 367 528.5 c 128,-1,49
 356 514 356 514 340 512 c 1,50,51
 356 509 356 509 366 496 c 0,52,53
 378 482 378 482 378 461 c 0,54,55
 378 441 378 441 367 426.5 c 128,-1,56
 356 412 356 412 340 410 c 1,57,58
 356 407 356 407 367 393 c 128,-1,59
 378 379 378 379 378 358 c 0,60,61
 378 338 378 338 367 323.5 c 128,-1,62
 356 309 356 309 340 307 c 1,63,64
 356 304 356 304 366 291 c 0,65,66
 378 277 378 277 378 256 c 0,67,68
 378 236 378 236 367 221.5 c 128,-1,69
 356 207 356 207 340 205 c 1,70,71
 356 202 356 202 367 188 c 128,-1,72
 378 174 378 174 378 154 c 0,73,74
 378 134 378 134 367 119 c 128,-1,75
 356 104 356 104 340 102 c 1,76,77
 356 99 356 99 366 86 c 0,78,79
 378 72 378 72 378 51 c 0,80,81
 378 29 378 29 365 14.5 c 128,-1,82
 352 0 352 0 336 0 c 0,83,84
 318 0 318 0 306 13 c 0,85,86
 294 25 294 25 292 46 c 1,87,88
 290 26 290 26 278 13 c 0,89,90
 266 0 266 0 250 0 c 0,91,92
 232 0 232 0 220 13 c 0,93,94
 208 25 208 25 208 46 c 1,95,96
 206 26 206 26 194 13 c 0,97,98
 182 0 182 0 164 0 c 0,99,100
 146 0 146 0 134 15 c 128,-1,101
 122 30 122 30 122 51 c 0,102,103
 122 73 122 73 134 87.5 c 128,-1,104
 146 102 146 102 164 102 c 256,105,106
 182 102 182 102 195 87.5 c 128,-1,107
 208 73 208 73 208 51 c 1,108,109
 208 73 208 73 220 87.5 c 128,-1,110
 232 102 232 102 250 102 c 0,111,112
 266 102 266 102 278 89 c 0,113,114
 288 76 288 76 292 56 c 1,115,116
 294 73 294 73 304 86 c 128,-1,117
 314 99 314 99 330 102 c 1,118,119
 314 104 314 104 304 119 c 0,120,121
 292 133 292 133 292 154 c 0,122,123
 292 174 292 174 304 188 c 0,124,125
 314 201 314 201 330 205 c 1,126,127
 314 207 314 207 304 221 c 0,128,129
 292 235 292 235 292 256 c 0,130,131
 292 276 292 276 304 291 c 0,132,133
 314 304 314 304 330 307 c 1,134,135
 314 309 314 309 304 324 c 0,136,137
 292 338 292 338 292 358 c 0,138,139
 292 378 292 378 304 393 c 0,140,141
 314 406 314 406 330 410 c 1,142,143
 314 412 314 412 304 426 c 0,144,145
 292 440 292 440 292 461 c 0,146,147
 292 481 292 481 304 496 c 0,148,149
 314 509 314 509 330 512 c 1,150,151
 314 514 314 514 304 528 c 0,152,153
 292 543 292 543 292 563 c 256,0,1
EndSplineSet
EndChar

StartChar: asciicircum
Encoding: 94 94 43
Width: 500
Flags: W
LayerCount: 2
Fore
SplineSet
207 666 m 256,0,1
 207 688 207 688 220 702.5 c 128,-1,2
 233 717 233 717 250 717 c 0,3,4
 268 717 268 717 280.5 702 c 128,-1,5
 293 687 293 687 293 666 c 0,6,7
 293 644 293 644 280.5 629 c 128,-1,8
 268 614 268 614 250 614 c 256,9,10
 232 614 232 614 219.5 629 c 128,-1,11
 207 644 207 644 207 666 c 256,0,1
37 461 m 256,12,13
 37 483 37 483 49.5 497.5 c 128,-1,14
 62 512 62 512 79 512 c 0,15,16
 97 512 97 512 110 497 c 128,-1,17
 123 482 123 482 123 461 c 0,18,19
 123 439 123 439 110 424.5 c 128,-1,20
 97 410 97 410 79 410 c 256,21,22
 61 410 61 410 49 424.5 c 128,-1,23
 37 439 37 439 37 461 c 256,12,13
293 563 m 256,24,25
 293 585 293 585 305 599.5 c 128,-1,26
 317 614 317 614 336 614 c 256,27,28
 354 614 354 614 366 599.5 c 128,-1,29
 378 585 378 585 378 563 c 256,30,31
 378 541 378 541 365.5 526.5 c 128,-1,32
 353 512 353 512 336 512 c 0,33,34
 318 512 318 512 305.5 526.5 c 128,-1,35
 293 541 293 541 293 563 c 256,24,25
378 461 m 256,36,37
 378 483 378 483 390.5 497.5 c 128,-1,38
 403 512 403 512 421 512 c 256,39,40
 439 512 439 512 451 497 c 128,-1,41
 463 482 463 482 463 461 c 0,42,43
 463 439 463 439 451 424.5 c 128,-1,44
 439 410 439 410 421 410 c 256,45,46
 403 410 403 410 390.5 424.5 c 128,-1,47
 378 439 378 439 378 461 c 256,36,37
123 563 m 256,48,49
 123 585 123 585 135 599.5 c 128,-1,50
 147 614 147 614 165 614 c 256,51,52
 183 614 183 614 195 599.5 c 128,-1,53
 207 585 207 585 207 563 c 256,54,55
 207 541 207 541 195 526.5 c 128,-1,56
 183 512 183 512 165 512 c 0,57,58
 147 512 147 512 135 526.5 c 128,-1,59
 123 541 123 541 123 563 c 256,48,49
EndSplineSet
EndChar

StartChar: underscore
Encoding: 95 95 44
Width: 500
Flags: W
LayerCount: 2
Fore
SplineSet
37 51 m 256,0,1
 37 73 37 73 49.5 87.5 c 128,-1,2
 62 102 62 102 79 102 c 0,3,4
 97 102 97 102 110 87.5 c 128,-1,5
 123 73 123 73 123 51 c 1,6,7
 123 73 123 73 135 87.5 c 128,-1,8
 147 102 147 102 165 102 c 256,9,10
 183 102 183 102 195 87.5 c 128,-1,11
 207 73 207 73 207 51 c 1,12,13
 207 73 207 73 220 87.5 c 128,-1,14
 233 102 233 102 250 102 c 0,15,16
 267 102 267 102 279 89 c 128,-1,17
 291 76 291 76 293 55 c 1,18,19
 295 75 295 75 306.5 88.5 c 128,-1,20
 318 102 318 102 336 102 c 0,21,22
 353 102 353 102 364 89 c 0,23,24
 375 76 375 76 378 56 c 1,25,26
 380 75 380 75 392 88.5 c 128,-1,27
 404 102 404 102 421 102 c 0,28,29
 439 102 439 102 451 87.5 c 128,-1,30
 463 73 463 73 463 51 c 256,31,32
 463 29 463 29 451 14.5 c 128,-1,33
 439 0 439 0 421 0 c 0,34,35
 404 0 404 0 392 13 c 0,36,37
 380 25 380 25 378 46 c 1,38,39
 376 26 376 26 364.5 13 c 128,-1,40
 353 0 353 0 336 0 c 256,41,42
 319 0 319 0 307 13 c 0,43,44
 295 25 295 25 293 46 c 1,45,46
 291 26 291 26 279 13 c 0,47,48
 267 0 267 0 250 0 c 0,49,50
 233 0 233 0 221 13 c 0,51,52
 209 25 209 25 207 46 c 1,53,54
 205 26 205 26 194 13 c 0,55,56
 182 0 182 0 165 0 c 0,57,58
 148 0 148 0 136 13 c 0,59,60
 125 25 125 25 123 46 c 1,61,62
 121 26 121 26 109 13 c 128,-1,63
 97 0 97 0 79 0 c 0,64,65
 61 0 61 0 49 14.5 c 128,-1,66
 37 29 37 29 37 51 c 256,0,1
EndSplineSet
EndChar

StartChar: grave
Encoding: 96 96 45
Width: 500
Flags: W
LayerCount: 2
Fore
SplineSet
250 563 m 256,0,1
 250 585 250 585 262 599.5 c 128,-1,2
 274 614 274 614 292 614 c 0,3,4
 310 614 310 614 323 599.5 c 128,-1,5
 336 585 336 585 336 563 c 256,6,7
 336 541 336 541 323 526.5 c 128,-1,8
 310 512 310 512 292 512 c 256,9,10
 274 512 274 512 262 526.5 c 128,-1,11
 250 541 250 541 250 563 c 256,0,1
164 666 m 256,12,13
 164 688 164 688 176 702.5 c 128,-1,14
 188 717 188 717 208 717 c 256,15,16
 226 717 226 717 238 702 c 128,-1,17
 250 687 250 687 250 666 c 0,18,19
 250 644 250 644 238 629 c 128,-1,20
 226 614 226 614 208 614 c 256,21,22
 190 614 190 614 177 629 c 128,-1,23
 164 644 164 644 164 666 c 256,12,13
EndSplineSet
EndChar

StartChar: a
Encoding: 97 97 46
Width: 500
Flags: W
LayerCount: 2
Fore
SplineSet
378 154 m 256,0,1
 378 174 378 174 389 188 c 0,2,3
 399 201 399 201 417 205 c 1,4,5
 401 207 401 207 390.5 219 c 128,-1,6
 380 231 380 231 378 251 c 1,7,8
 376 231 376 231 364.5 218 c 128,-1,9
 353 205 353 205 336 205 c 256,10,11
 319 205 319 205 307 218 c 0,12,13
 295 230 295 230 293 251 c 1,14,15
 291 231 291 231 279 218 c 128,-1,16
 267 205 267 205 250 205 c 128,-1,17
 233 205 233 205 221 218 c 0,18,19
 209 230 209 230 207 251 c 1,20,21
 205 231 205 231 194 218 c 0,22,23
 182 205 182 205 165 205 c 0,24,25
 147 205 147 205 135 219.5 c 128,-1,26
 123 234 123 234 123 256 c 256,27,28
 123 278 123 278 135 292.5 c 128,-1,29
 147 307 147 307 165 307 c 256,30,31
 183 307 183 307 195 292.5 c 128,-1,32
 207 278 207 278 207 256 c 1,33,34
 207 278 207 278 220 292.5 c 128,-1,35
 233 307 233 307 250 307 c 0,36,37
 268 307 268 307 280.5 292.5 c 128,-1,38
 293 278 293 278 293 256 c 1,39,40
 293 278 293 278 305 292.5 c 128,-1,41
 317 307 317 307 336 307 c 0,42,43
 353 307 353 307 365 294 c 128,-1,44
 377 281 377 281 378 260 c 1,45,46
 380 278 380 278 390 292 c 0,47,48
 400 304 400 304 417 307 c 1,49,50
 400 309 400 309 389 324 c 0,51,52
 378 338 378 338 378 358 c 0,53,54
 378 380 378 380 390.5 395 c 128,-1,55
 403 410 403 410 421 410 c 256,56,57
 439 410 439 410 451 395 c 128,-1,58
 463 380 463 380 463 358 c 0,59,60
 463 338 463 338 452.5 323.5 c 128,-1,61
 442 309 442 309 425 307 c 1,62,63
 441 304 441 304 453 291 c 0,64,65
 463 278 463 278 463 259 c 0,66,67
 463 236 463 236 452.5 221.5 c 128,-1,68
 442 207 442 207 425 205 c 1,69,70
 441 202 441 202 453 188 c 0,71,72
 463 175 463 175 463 157 c 0,73,74
 463 134 463 134 452.5 119 c 128,-1,75
 442 104 442 104 425 102 c 1,76,77
 441 99 441 99 453 86 c 0,78,79
 463 73 463 73 463 54 c 0,80,81
 463 29 463 29 451 14.5 c 128,-1,82
 439 0 439 0 421 0 c 0,83,84
 404 0 404 0 392 13 c 0,85,86
 380 25 380 25 378 46 c 1,87,88
 376 26 376 26 364.5 13 c 128,-1,89
 353 0 353 0 336 0 c 256,90,91
 319 0 319 0 307 13 c 0,92,93
 295 25 295 25 293 46 c 1,94,95
 291 26 291 26 279 13 c 128,-1,96
 267 0 267 0 250 0 c 128,-1,97
 233 0 233 0 221 13 c 0,98,99
 209 25 209 25 207 46 c 1,100,101
 205 26 205 26 194 13 c 0,102,103
 182 0 182 0 165 0 c 0,104,105
 147 0 147 0 135 15 c 128,-1,106
 123 30 123 30 123 51 c 0,107,108
 123 73 123 73 135 87.5 c 128,-1,109
 147 102 147 102 165 102 c 0,110,111
 182 102 182 102 194 89 c 0,112,113
 205 76 205 76 207 55 c 1,114,115
 209 75 209 75 221 88.5 c 128,-1,116
 233 102 233 102 250 102 c 0,117,118
 268 102 268 102 280 87 c 0,119,120
 291 74 291 74 293 55 c 1,121,122
 294 73 294 73 305 87 c 0,123,124
 317 102 317 102 336 102 c 256,125,126
 354 102 354 102 365 87 c 0,127,128
 376 74 376 74 378 55 c 1,129,130
 379 72 379 72 389 86 c 0,131,132
 399 99 399 99 417 102 c 1,133,134
 400 104 400 104 389 119 c 128,-1,135
 378 134 378 134 378 154 c 256,0,1
123 461 m 256,136,137
 123 483 123 483 135 497.5 c 128,-1,138
 147 512 147 512 165 512 c 256,139,140
 183 512 183 512 195 497 c 128,-1,141
 207 482 207 482 207 461 c 1,142,143
 207 483 207 483 220 497.5 c 128,-1,144
 233 512 233 512 250 512 c 0,145,146
 268 512 268 512 280 497 c 0,147,148
 291 484 291 484 293 465 c 1,149,150
 294 483 294 483 305 497 c 0,151,152
 317 512 317 512 336 512 c 256,153,154
 354 512 354 512 366 497 c 128,-1,155
 378 482 378 482 378 461 c 0,156,157
 378 439 378 439 365.5 424.5 c 128,-1,158
 353 410 353 410 336 410 c 128,-1,159
 319 410 319 410 307 423 c 0,160,161
 295 435 295 435 293 456 c 1,162,163
 291 436 291 436 279 423 c 128,-1,164
 267 410 267 410 250 410 c 128,-1,165
 233 410 233 410 221 423 c 0,166,167
 209 435 209 435 207 456 c 1,168,169
 205 436 205 436 194 423 c 0,170,171
 182 410 182 410 165 410 c 0,172,173
 147 410 147 410 135 424.5 c 128,-1,174
 123 439 123 439 123 461 c 256,136,137
37 154 m 256,175,176
 37 176 37 176 49.5 190.5 c 128,-1,177
 62 205 62 205 79 205 c 0,178,179
 97 205 97 205 110 190 c 128,-1,180
 123 175 123 175 123 154 c 0,181,182
 123 132 123 132 110 117 c 128,-1,183
 97 102 97 102 79 102 c 256,184,185
 61 102 61 102 49 117 c 128,-1,186
 37 132 37 132 37 154 c 256,175,176
EndSplineSet
EndChar

StartChar: b
Encoding: 98 98 47
Width: 500
Flags: W
LayerCount: 2
Fore
SplineSet
37 563 m 256,0,1
 37 583 37 583 48 598 c 0,2,3
 58 611 58 611 75 614 c 1,4,5
 58 616 58 616 48 631 c 0,6,7
 37 645 37 645 37 666 c 0,8,9
 37 688 37 688 49.5 702.5 c 128,-1,10
 62 717 62 717 79 717 c 0,11,12
 97 717 97 717 110 702 c 128,-1,13
 123 687 123 687 123 666 c 0,14,15
 123 646 123 646 111.5 631 c 128,-1,16
 100 616 100 616 84 614 c 1,17,18
 100 611 100 611 111 598 c 0,19,20
 123 584 123 584 123 563 c 0,21,22
 123 543 123 543 111.5 528.5 c 128,-1,23
 100 514 100 514 84 512 c 1,24,25
 100 509 100 509 111 496 c 0,26,27
 123 482 123 482 123 461 c 0,28,29
 123 441 123 441 111.5 426.5 c 128,-1,30
 100 412 100 412 84 410 c 1,31,32
 100 407 100 407 111 393 c 0,33,34
 121 380 121 380 123 362 c 1,35,36
 124 380 124 380 134 394 c 0,37,38
 146 409 146 409 165 410 c 0,39,40
 183 410 183 410 195 395 c 128,-1,41
 207 380 207 380 207 358 c 256,42,43
 207 336 207 336 195 321.5 c 128,-1,44
 183 307 183 307 165 307 c 0,45,46
 148 307 148 307 136 321 c 0,47,48
 125 333 125 333 123 353 c 1,49,50
 121 334 121 334 109.5 321.5 c 128,-1,51
 98 309 98 309 84 307 c 1,52,53
 100 304 100 304 111 291 c 0,54,55
 123 277 123 277 123 256 c 0,56,57
 123 236 123 236 111.5 221.5 c 128,-1,58
 100 207 100 207 84 205 c 1,59,60
 98 202 98 202 109 189 c 0,61,62
 121 176 121 176 123 158 c 1,63,64
 125 178 125 178 136 191.5 c 128,-1,65
 147 205 147 205 165 205 c 128,-1,66
 183 205 183 205 195 190 c 128,-1,67
 207 175 207 175 207 154 c 0,68,69
 207 132 207 132 195 117 c 128,-1,70
 183 102 183 102 165 102 c 0,71,72
 148 102 148 102 136 116 c 0,73,74
 125 128 125 128 123 148 c 1,75,76
 121 129 121 129 109.5 116.5 c 128,-1,77
 98 104 98 104 84 102 c 1,78,79
 100 99 100 99 111 86 c 0,80,81
 123 72 123 72 123 51 c 0,82,83
 123 29 123 29 110 14.5 c 128,-1,84
 97 0 97 0 79 0 c 256,85,86
 61 0 61 0 49 15 c 128,-1,87
 37 30 37 30 37 51 c 0,88,89
 37 71 37 71 48 86 c 0,90,91
 58 99 58 99 75 102 c 1,92,93
 58 104 58 104 48 119 c 0,94,95
 37 133 37 133 37 154 c 0,96,97
 37 174 37 174 48 188 c 0,98,99
 58 201 58 201 75 205 c 1,100,101
 58 207 58 207 48 221 c 0,102,103
 37 235 37 235 37 256 c 0,104,105
 37 276 37 276 48 291 c 0,106,107
 58 304 58 304 75 307 c 1,108,109
 58 309 58 309 48 324 c 0,110,111
 37 338 37 338 37 358 c 128,-1,112
 37 378 37 378 48 393 c 0,113,114
 58 406 58 406 75 410 c 1,115,116
 58 412 58 412 48 426 c 0,117,118
 37 440 37 440 37 461 c 0,119,120
 37 481 37 481 48 496 c 0,121,122
 58 509 58 509 75 512 c 1,123,124
 58 514 58 514 48 528 c 0,125,126
 37 543 37 543 37 563 c 256,0,1
378 256 m 256,127,128
 378 276 378 276 389 291 c 0,129,130
 399 304 399 304 417 307 c 1,131,132
 400 309 400 309 389 324 c 0,133,134
 378 338 378 338 378 358 c 0,135,136
 378 380 378 380 390.5 395 c 128,-1,137
 403 410 403 410 421 410 c 256,138,139
 439 410 439 410 451 395 c 128,-1,140
 463 380 463 380 463 358 c 0,141,142
 463 338 463 338 452.5 323.5 c 128,-1,143
 442 309 442 309 425 307 c 1,144,145
 441 304 441 304 453 291 c 0,146,147
 463 278 463 278 463 259 c 0,148,149
 463 236 463 236 452.5 221.5 c 128,-1,150
 442 207 442 207 425 205 c 1,151,152
 441 202 441 202 453 188 c 0,153,154
 463 175 463 175 463 157 c 0,155,156
 463 132 463 132 451 117 c 128,-1,157
 439 102 439 102 421 102 c 256,158,159
 403 102 403 102 390.5 117 c 128,-1,160
 378 132 378 132 378 154 c 0,161,162
 378 174 378 174 389 188 c 0,163,164
 399 201 399 201 417 205 c 1,165,166
 400 207 400 207 389 221 c 0,167,168
 378 236 378 236 378 256 c 256,127,128
207 461 m 256,169,170
 207 483 207 483 220 497.5 c 128,-1,171
 233 512 233 512 250 512 c 0,172,173
 268 512 268 512 280 497 c 0,174,175
 291 484 291 484 293 465 c 1,176,177
 294 483 294 483 305 497 c 0,178,179
 317 512 317 512 336 512 c 256,180,181
 354 512 354 512 366 497 c 128,-1,182
 378 482 378 482 378 461 c 0,183,184
 378 439 378 439 365.5 424.5 c 128,-1,185
 353 410 353 410 336 410 c 128,-1,186
 319 410 319 410 307 423 c 0,187,188
 295 435 295 435 293 456 c 1,189,190
 291 436 291 436 279 423 c 128,-1,191
 267 410 267 410 250 410 c 0,192,193
 232 410 232 410 219.5 424.5 c 128,-1,194
 207 439 207 439 207 461 c 256,169,170
207 51 m 256,195,196
 207 73 207 73 220 87.5 c 128,-1,197
 233 102 233 102 250 102 c 0,198,199
 268 102 268 102 280 87 c 0,200,201
 291 74 291 74 293 55 c 1,202,203
 294 73 294 73 305 87 c 0,204,205
 317 102 317 102 336 102 c 256,206,207
 354 102 354 102 366 87.5 c 128,-1,208
 378 73 378 73 378 51 c 256,209,210
 378 29 378 29 365.5 14.5 c 128,-1,211
 353 0 353 0 336 0 c 128,-1,212
 319 0 319 0 307 13 c 0,213,214
 295 25 295 25 293 46 c 1,215,216
 291 26 291 26 279 13 c 128,-1,217
 267 0 267 0 250 0 c 0,218,219
 232 0 232 0 219.5 14.5 c 128,-1,220
 207 29 207 29 207 51 c 256,195,196
EndSplineSet
EndChar

StartChar: c
Encoding: 99 99 48
Width: 500
Flags: W
LayerCount: 2
Fore
SplineSet
123 461 m 256,0,1
 123 483 123 483 135 497.5 c 128,-1,2
 147 512 147 512 165 512 c 256,3,4
 183 512 183 512 195 497 c 0,5,6
 205 484 205 484 207 465 c 1,7,8
 208 483 208 483 219 497 c 0,9,10
 231 512 231 512 250 512 c 256,11,12
 268 512 268 512 280 497 c 0,13,14
 291 484 291 484 293 465 c 1,15,16
 294 483 294 483 305 497 c 0,17,18
 317 512 317 512 336 512 c 256,19,20
 354 512 354 512 366 497 c 128,-1,21
 378 482 378 482 378 461 c 0,22,23
 378 439 378 439 365.5 424.5 c 128,-1,24
 353 410 353 410 336 410 c 128,-1,25
 319 410 319 410 307 423 c 0,26,27
 295 435 295 435 293 456 c 1,28,29
 291 436 291 436 279 423 c 128,-1,30
 267 410 267 410 250 410 c 128,-1,31
 233 410 233 410 221 423 c 0,32,33
 209 435 209 435 207 456 c 1,34,35
 205 436 205 436 194 423 c 0,36,37
 182 410 182 410 165 410 c 0,38,39
 147 410 147 410 135 424.5 c 128,-1,40
 123 439 123 439 123 461 c 256,0,1
123 51 m 256,41,42
 123 73 123 73 135 87.5 c 128,-1,43
 147 102 147 102 165 102 c 256,44,45
 183 102 183 102 195 87 c 0,46,47
 205 74 205 74 207 55 c 1,48,49
 208 73 208 73 219 87 c 0,50,51
 231 102 231 102 250 102 c 256,52,53
 268 102 268 102 280 87 c 0,54,55
 291 74 291 74 293 55 c 1,56,57
 294 73 294 73 305 87 c 0,58,59
 317 102 317 102 336 102 c 256,60,61
 354 102 354 102 366 87.5 c 128,-1,62
 378 73 378 73 378 51 c 256,63,64
 378 29 378 29 365.5 14.5 c 128,-1,65
 353 0 353 0 336 0 c 128,-1,66
 319 0 319 0 307 13 c 0,67,68
 295 25 295 25 293 46 c 1,69,70
 291 26 291 26 279 13 c 128,-1,71
 267 0 267 0 250 0 c 128,-1,72
 233 0 233 0 221 13 c 0,73,74
 209 25 209 25 207 46 c 1,75,76
 205 26 205 26 194 13 c 0,77,78
 182 0 182 0 165 0 c 0,79,80
 147 0 147 0 135 14.5 c 128,-1,81
 123 29 123 29 123 51 c 256,41,42
37 256 m 256,82,83
 37 276 37 276 48 291 c 0,84,85
 58 304 58 304 75 307 c 1,86,87
 58 309 58 309 48 324 c 0,88,89
 37 338 37 338 37 358 c 0,90,91
 37 380 37 380 49.5 395 c 128,-1,92
 62 410 62 410 79 410 c 0,93,94
 97 410 97 410 110 395 c 128,-1,95
 123 380 123 380 123 358 c 0,96,97
 123 338 123 338 111.5 323.5 c 128,-1,98
 100 309 100 309 84 307 c 1,99,100
 100 304 100 304 111 291 c 0,101,102
 123 277 123 277 123 256 c 0,103,104
 123 236 123 236 111.5 221.5 c 128,-1,105
 100 207 100 207 84 205 c 1,106,107
 100 202 100 202 111 188 c 0,108,109
 123 174 123 174 123 154 c 0,110,111
 123 132 123 132 110 117 c 128,-1,112
 97 102 97 102 79 102 c 256,113,114
 61 102 61 102 49 117 c 128,-1,115
 37 132 37 132 37 154 c 0,116,117
 37 174 37 174 48 188 c 0,118,119
 58 201 58 201 75 205 c 1,120,121
 58 207 58 207 48 221 c 0,122,123
 37 236 37 236 37 256 c 256,82,83
378 358 m 256,124,125
 378 380 378 380 390.5 395 c 128,-1,126
 403 410 403 410 421 410 c 256,127,128
 439 410 439 410 451 395 c 128,-1,129
 463 380 463 380 463 358 c 256,130,131
 463 336 463 336 451 321.5 c 128,-1,132
 439 307 439 307 421 307 c 256,133,134
 403 307 403 307 390.5 321.5 c 128,-1,135
 378 336 378 336 378 358 c 256,124,125
378 154 m 256,136,137
 378 176 378 176 390.5 190.5 c 128,-1,138
 403 205 403 205 421 205 c 256,139,140
 439 205 439 205 451 190 c 128,-1,141
 463 175 463 175 463 154 c 0,142,143
 463 132 463 132 451 117 c 128,-1,144
 439 102 439 102 421 102 c 256,145,146
 403 102 403 102 390.5 117 c 128,-1,147
 378 132 378 132 378 154 c 256,136,137
EndSplineSet
EndChar

StartChar: d
Encoding: 100 100 49
Width: 500
Flags: W
LayerCount: 2
Fore
SplineSet
378 256 m 256,0,1
 378 276 378 276 389 291 c 0,2,3
 399 304 399 304 417 307 c 1,4,5
 401 309 401 309 390.5 321.5 c 128,-1,6
 380 334 380 334 378 353 c 1,7,8
 376 333 376 333 364 321 c 0,9,10
 352 308 352 308 336 307 c 0,11,12
 318 307 318 307 305.5 322 c 128,-1,13
 293 337 293 337 293 358 c 0,14,15
 293 380 293 380 305 395 c 128,-1,16
 317 410 317 410 336 410 c 256,17,18
 354 410 354 410 365 394 c 0,19,20
 376 381 376 381 378 362 c 1,21,22
 379 379 379 379 389 393 c 0,23,24
 399 406 399 406 417 410 c 1,25,26
 400 412 400 412 389 426 c 128,-1,27
 378 440 378 440 378 461 c 0,28,29
 378 481 378 481 389 496 c 0,30,31
 399 509 399 509 417 512 c 1,32,33
 400 514 400 514 389 528 c 128,-1,34
 378 542 378 542 378 563 c 0,35,36
 378 583 378 583 389 598 c 0,37,38
 399 611 399 611 417 614 c 1,39,40
 400 616 400 616 389 631 c 0,41,42
 378 645 378 645 378 666 c 0,43,44
 378 688 378 688 390.5 702.5 c 128,-1,45
 403 717 403 717 421 717 c 256,46,47
 439 717 439 717 451 702 c 128,-1,48
 463 687 463 687 463 666 c 0,49,50
 463 646 463 646 452.5 631 c 128,-1,51
 442 616 442 616 425 614 c 1,52,53
 441 611 441 611 453 598 c 0,54,55
 463 585 463 585 463 566 c 0,56,57
 463 543 463 543 452.5 528.5 c 128,-1,58
 442 514 442 514 425 512 c 1,59,60
 441 509 441 509 453 496 c 0,61,62
 463 483 463 483 463 464 c 0,63,64
 463 441 463 441 452.5 426.5 c 128,-1,65
 442 412 442 412 425 410 c 1,66,67
 441 407 441 407 453 393 c 0,68,69
 463 380 463 380 463 361 c 0,70,71
 463 338 463 338 452.5 323.5 c 128,-1,72
 442 309 442 309 425 307 c 1,73,74
 441 304 441 304 453 291 c 0,75,76
 463 278 463 278 463 259 c 0,77,78
 463 236 463 236 452.5 221.5 c 128,-1,79
 442 207 442 207 425 205 c 1,80,81
 441 202 441 202 453 188 c 0,82,83
 463 175 463 175 463 157 c 0,84,85
 463 134 463 134 452.5 119 c 128,-1,86
 442 104 442 104 425 102 c 1,87,88
 441 99 441 99 453 86 c 0,89,90
 463 73 463 73 463 54 c 0,91,92
 463 29 463 29 451 14.5 c 128,-1,93
 439 0 439 0 421 0 c 256,94,95
 403 0 403 0 390.5 15 c 128,-1,96
 378 30 378 30 378 51 c 0,97,98
 378 71 378 71 389 86 c 0,99,100
 399 99 399 99 417 102 c 1,101,102
 401 104 401 104 390.5 116.5 c 128,-1,103
 380 129 380 129 378 148 c 1,104,105
 376 128 376 128 364 116 c 0,106,107
 352 103 352 103 336 102 c 0,108,109
 318 102 318 102 305.5 117 c 128,-1,110
 293 132 293 132 293 154 c 256,111,112
 293 176 293 176 305 190.5 c 128,-1,113
 317 205 317 205 336 205 c 0,114,115
 353 205 353 205 364 191 c 0,116,117
 375 178 375 178 378 159 c 1,118,119
 380 176 380 176 390 189 c 128,-1,120
 400 202 400 202 417 205 c 1,121,122
 400 207 400 207 389 221 c 0,123,124
 378 236 378 236 378 256 c 256,0,1
37 256 m 256,125,126
 37 276 37 276 48 291 c 0,127,128
 58 304 58 304 75 307 c 1,129,130
 58 309 58 309 48 324 c 0,131,132
 37 338 37 338 37 358 c 0,133,134
 37 380 37 380 49.5 395 c 128,-1,135
 62 410 62 410 79 410 c 0,136,137
 97 410 97 410 110 395 c 128,-1,138
 123 380 123 380 123 358 c 0,139,140
 123 338 123 338 111.5 323.5 c 128,-1,141
 100 309 100 309 84 307 c 1,142,143
 100 304 100 304 111 291 c 0,144,145
 123 277 123 277 123 256 c 0,146,147
 123 236 123 236 111.5 221.5 c 128,-1,148
 100 207 100 207 84 205 c 1,149,150
 100 202 100 202 111 188 c 0,151,152
 123 174 123 174 123 154 c 0,153,154
 123 132 123 132 110 117 c 128,-1,155
 97 102 97 102 79 102 c 256,156,157
 61 102 61 102 49 117 c 128,-1,158
 37 132 37 132 37 154 c 0,159,160
 37 174 37 174 48 188 c 0,161,162
 58 201 58 201 75 205 c 1,163,164
 58 207 58 207 48 221 c 0,165,166
 37 236 37 236 37 256 c 256,125,126
123 461 m 256,167,168
 123 483 123 483 135 497.5 c 128,-1,169
 147 512 147 512 165 512 c 256,170,171
 183 512 183 512 195 497 c 128,-1,172
 207 482 207 482 207 461 c 1,173,174
 207 483 207 483 220 497.5 c 128,-1,175
 233 512 233 512 250 512 c 0,176,177
 268 512 268 512 280.5 497 c 128,-1,178
 293 482 293 482 293 461 c 0,179,180
 293 439 293 439 280.5 424.5 c 128,-1,181
 268 410 268 410 250 410 c 0,182,183
 233 410 233 410 221 423 c 0,184,185
 209 435 209 435 207 456 c 1,186,187
 205 436 205 436 194 423 c 0,188,189
 182 410 182 410 165 410 c 0,190,191
 147 410 147 410 135 424.5 c 128,-1,192
 123 439 123 439 123 461 c 256,167,168
123 51 m 256,193,194
 123 73 123 73 135 87.5 c 128,-1,195
 147 102 147 102 165 102 c 256,196,197
 183 102 183 102 195 87 c 0,198,199
 205 74 205 74 207 55 c 1,200,201
 208 73 208 73 219 87 c 0,202,203
 231 102 231 102 250 102 c 256,204,205
 268 102 268 102 280.5 87.5 c 128,-1,206
 293 73 293 73 293 51 c 256,207,208
 293 29 293 29 280.5 14.5 c 128,-1,209
 268 0 268 0 250 0 c 0,210,211
 233 0 233 0 221 13 c 0,212,213
 209 25 209 25 207 46 c 1,214,215
 205 26 205 26 194 13 c 0,216,217
 182 0 182 0 165 0 c 0,218,219
 147 0 147 0 135 14.5 c 128,-1,220
 123 29 123 29 123 51 c 256,193,194
EndSplineSet
EndChar

